<svg width="211" height="2171" viewBox="0 0 211 2171" fill="none" xmlns="http://www.w3.org/2000/svg">
<path d="M143.51 1092.89L143.51 808.166L139.561 808.166L139.561 1088.94L143.51 1092.89Z" fill="#0F95F7"/>
<path d="M148.96 808.561C148.96 804.45 145.642 801.13 141.535 801.13C137.428 801.13 134.111 804.45 134.111 808.561C134.111 812.672 137.428 815.993 141.535 815.993C145.642 815.993 148.96 812.672 148.96 808.561Z" fill="#0F95F7"/>
<path d="M10.1097 109.85L10.1097 412.246L71.3206 473.515L71.3206 1015.06L143.549 1087.36L140.746 1090.16L67.6079 1017.11L67.3715 475.176L6.16056 413.906L6.16058 109.85L10.1097 109.85Z" fill="#0F95F7"/>
<path d="M15.5199 110.206C15.5199 106.095 12.2027 102.775 8.09562 102.775C3.98857 102.775 0.671347 106.095 0.671346 110.206C0.671346 114.317 3.98857 117.638 8.09562 117.638C12.2027 117.638 15.5199 114.317 15.5199 110.206Z" fill="#0F95F7"/>
<path d="M147.14 1453.16L149.944 1455.92L123.564 1482.33L123.564 1581.15L43.2788 1661.51L43.2788 2090.24L39.3297 2090.24L39.3297 1659.89L119.615 1579.49L119.615 1480.67L147.14 1453.16Z" fill="#0F95F7"/>
<path d="M152.948 1460.08C155.831 1457.19 155.831 1452.49 152.948 1449.56C150.065 1446.67 145.366 1446.67 142.444 1449.56C139.521 1452.45 139.561 1457.15 142.444 1460.08C145.327 1462.96 150.026 1462.96 152.948 1460.08Z" fill="#0F95F7"/>
<path d="M24.5206 956.478L24.5206 1056.29L71.9097 1103.72L71.9097 1230.89L10.6988 1292.16L10.6988 1383.39L43.2788 1416L43.2788 1768.79L39.3297 1768.79L39.3297 1417.66L6.7497 1385.05L6.7497 1290.5L67.9606 1229.23L67.9606 1105.38L20.5715 1057.95L20.5715 956.478L24.5206 956.478Z" fill="#0F95F7"/>
<path d="M29.3812 956.834C29.3812 952.723 26.064 949.402 21.9569 949.402C17.8499 949.402 14.5326 952.723 14.5326 956.834C14.5326 960.945 17.8499 964.265 21.9569 964.265C26.064 964.265 29.3812 960.945 29.3812 956.834Z" fill="#0F95F7"/>
<path d="M5.76242 1749.23L39.3297 1782.83L39.3297 2171L43.2788 2171L43.2788 1781.21L9.7115 1747.61L9.71151 1660.6L5.76242 1660.6L5.76242 1749.23Z" fill="#0F95F7"/>
<path d="M14.8485 1661C14.8485 1656.89 11.5313 1653.57 7.42421 1653.57C3.31715 1653.57 -6.78097e-05 1656.89 -6.79894e-05 1661C-6.81691e-05 1665.11 3.31715 1668.43 7.42421 1668.43C11.5313 1668.43 14.8485 1665.11 14.8485 1661Z" fill="#0F95F7"/>
<path d="M67.5809 955.111L67.9606 1109.6L71.9097 1113.6L71.3205 953.474L16.0333 898.134L16.0333 529.172L12.0842 529.172L12.0842 899.754L67.5809 955.111Z" fill="#0F95F7"/>
<path d="M21.483 529.528C21.483 525.417 18.1658 522.096 14.0587 522.096C9.95168 522.096 6.63446 525.417 6.63446 529.528C6.63446 533.639 9.95168 536.959 14.0587 536.959C18.1658 536.959 21.483 533.639 21.483 529.528Z" fill="#0F95F7"/>
<path d="M205.55 7.07565L205.59 216.894L137.112 285.437L137.112 604.276L70.1359 671.317L67.3715 668.511L133.163 602.656L133.163 283.777L201.641 215.274L201.601 7.07565L205.55 7.07565Z" fill="#0F95F7"/>
<path d="M211 7.43142C211 3.32042 207.683 -1.45001e-07 203.576 -3.24526e-07C199.469 -5.04051e-07 196.151 3.32042 196.151 7.43142C196.151 11.5424 199.469 14.8628 203.576 14.8628C207.683 14.8628 211 11.5424 211 7.43142Z" fill="#0F95F7"/>
<path d="M104.888 1278.76L104.888 1434.58L42.6896 1496.84L42.6896 1683.77L39.3297 1683.77L39.3297 1495.06L100.939 1432.92L100.939 1278.76L104.888 1278.76Z" fill="#0F95F7"/>
<path d="M110.338 1279.11C110.338 1275 107.02 1271.68 102.913 1271.68C98.8062 1271.68 95.489 1275 95.489 1279.11C95.489 1283.22 98.8062 1286.54 102.913 1286.54C107.02 1286.54 110.338 1283.22 110.338 1279.11Z" fill="#0F95F7"/>
</svg>
