<svg width="50" height="57" viewBox="0 0 50 57" fill="none" xmlns="http://www.w3.org/2000/svg">
<path d="M49.3639 42.1994C49.7562 41.5198 50 40.7542 50 40.0666V16.1991C50 15.5115 49.7565 14.746 49.3641 14.0664L25 28.1329L49.3639 42.1994Z" fill="#00599C"/>
<path d="M27.1652 55.7506L47.8351 43.817C48.4306 43.4732 48.9717 42.8795 49.3641 42.1998L25.0002 28.1333L0.636292 42.2C1.02861 42.8795 1.56995 43.4733 2.16521 43.817L22.8351 55.7506C24.0258 56.4382 25.9745 56.4382 27.1652 55.7506Z" fill="#004482"/>
<path d="M49.364 14.0665C48.9716 13.3868 48.4302 12.7931 47.835 12.4493L27.165 0.515686C25.9743 -0.171895 24.0257 -0.171895 22.835 0.515686L2.16503 12.4493C0.974183 13.1368 0 14.8243 0 16.1993V40.0668C0 40.7544 0.243627 41.5201 0.636111 42.1997L25 28.1332L49.364 14.0665Z" fill="#659AD2"/>
<path d="M25 44.7996C15.8099 44.7996 8.33331 37.323 8.33331 28.133C8.33331 18.9429 15.8099 11.4663 25 11.4663C30.93 11.4663 36.4606 14.6575 39.4331 19.7944L32.2202 23.9683C30.7325 21.397 27.9657 19.7996 25 19.7996C20.4049 19.7996 16.6666 23.5379 16.6666 28.133C16.6666 32.7279 20.4049 36.4663 25 36.4663C27.966 36.4663 30.7328 34.8689 32.2207 32.2972L39.4336 36.4709C36.4611 41.6083 30.9304 44.7996 25 44.7996Z" fill="white"/>
<path d="M41.6665 27.2073H39.8145V25.3555H37.9629V27.2073H36.1109V29.0591H37.9629V30.911H39.8145V29.0591H41.6665V27.2073Z" fill="white"/>
<path d="M48.6112 27.2073H46.7593V25.3555H44.9076V27.2073H43.0557V29.0591H44.9076V30.911H46.7593V29.0591H48.6112V27.2073Z" fill="white"/>
</svg>
