<svg width="31" height="33" viewBox="0 0 31 33" fill="none" xmlns="http://www.w3.org/2000/svg">
<path d="M23.136 12.235L30.624 7.86639C26.672 1.72953 19.392 -0.870835 12.632 1.20946C5.664 3.18574 0.880005 9.53063 0.880005 16.8117C0.880005 23.9887 5.872 30.3335 12.84 32.2058C19.704 33.9741 26.776 31.2697 30.624 25.2368L23.136 20.8682C21.68 22.6365 19.808 23.7806 17.52 23.9887C15.232 24.0927 13.152 23.3646 11.592 21.7003C8.888 18.7879 8.78401 14.4193 11.488 11.5069C12.84 10.0507 14.4 9.21858 16.376 9.11457C19.184 8.90654 21.368 10.0507 23.136 12.235Z" fill="#00A6FB"/>
</svg>
