<svg width="60" height="60" viewBox="0 0 60 60" fill="none" xmlns="http://www.w3.org/2000/svg">
<path d="M28.6901 30.4669C28.3926 31.1116 28.0643 31.836 27.7243 32.607C26.5226 35.3297 25.1917 38.6429 24.7056 40.7654C24.531 41.5214 24.4228 42.4582 24.4249 43.4969C24.4249 43.9078 24.4469 44.3396 24.4818 44.7794C26.1808 45.4037 28.0159 45.747 29.9322 45.7504C31.6768 45.747 33.3527 45.4588 34.9213 44.9372C34.5527 44.6001 34.2008 44.2408 33.8805 43.8359C31.7539 41.124 30.5674 37.1496 28.6901 30.4669ZM20.838 16.9941C16.7764 19.8566 14.1186 24.5777 14.1085 29.928C14.1186 35.1983 16.6965 39.8583 20.6559 42.7327C21.6271 38.6871 24.0617 34.9828 27.7124 27.5576C27.4956 26.962 27.2485 26.3101 26.972 25.6252C25.9606 23.0882 24.501 20.142 23.1983 18.8078C22.5342 18.1108 21.7283 17.5085 20.838 16.9941Z" fill="#64DD17"/>
<path d="M43.7141 48.0779C41.6185 47.8153 39.889 47.4984 38.376 46.9647C35.8312 48.2283 32.9654 48.9421 29.9309 48.9421C19.4311 48.9421 10.9196 40.4318 10.9183 29.9289C10.9183 24.2301 13.4289 19.1215 17.4007 15.6373C16.3384 15.3807 15.2306 15.2309 14.099 15.2329C8.52048 15.2855 2.6318 18.3727 0.180195 26.7104C-0.0490293 27.9241 0.00556016 28.8417 0.00556016 29.9294C0.00556016 46.4576 13.4048 59.8579 29.9314 59.8579C40.053 59.8579 48.9943 54.8287 54.409 47.137C51.4803 47.8668 48.6639 48.2158 46.2522 48.2233C45.3482 48.2233 44.4996 48.175 43.7139 48.079" fill="#7CB342"/>
<path d="M38.0922 42.2776C38.2769 42.3692 38.6958 42.5188 39.2787 42.6841C43.2001 39.8053 45.7485 35.1683 45.7585 29.9275H45.757C45.7422 21.1903 38.6717 14.1208 29.9325 14.1035C28.1955 14.1069 26.5268 14.3935 24.9644 14.9112C28.1774 18.5736 29.7224 23.8075 31.2171 29.5327C31.2178 29.5353 31.2191 29.5373 31.2196 29.5394C31.2225 29.5441 31.6977 31.1292 32.5137 33.2323C33.324 35.3326 34.4784 37.9327 35.7374 39.8276C36.564 41.0974 37.4731 42.0099 38.0922 42.2776Z" fill="#29B6F6"/>
<path d="M29.9319 0.000517463C19.9081 0.000517463 11.0414 4.93504 5.61035 12.5012C8.43684 10.7311 11.3228 10.0926 13.8415 10.1153C17.3202 10.1254 20.0551 11.204 21.3673 11.9419C21.6842 12.1246 21.9851 12.3212 22.2798 12.5232C24.6212 11.492 27.2084 10.9153 29.9311 10.9153C40.4322 10.9166 48.9451 19.4269 48.9466 29.928H48.9451C48.9451 35.2224 46.7796 40.0094 43.2887 43.4566C44.1456 43.5526 45.0594 43.6123 45.9926 43.6077C49.307 43.6092 52.8895 42.8778 55.5752 40.619C57.3265 39.1437 58.7937 36.9837 59.6073 33.7451C59.7665 32.4942 59.858 31.2226 59.858 29.9285C59.858 13.4011 46.4601 0 29.9322 0" fill="#1E88E5"/>
</svg>
