<svg width="33" height="32" viewBox="0 0 33 32" fill="none" xmlns="http://www.w3.org/2000/svg">
<path d="M0.439584 0.43934C1.02537 -0.146447 1.97512 -0.146447 2.5609 0.43934L31.5523 29.4307C32.1381 30.0165 32.1381 30.9663 31.5523 31.552C30.9665 32.1378 30.0167 32.1378 29.431 31.552L0.439584 2.56066C-0.146202 1.97487 -0.146203 1.02513 0.439584 0.43934Z" fill="white"/>
<path d="M31.6733 0.439418C32.2591 1.0252 32.2591 1.97495 31.6733 2.56074L2.68191 31.5521C2.09612 32.1379 1.14638 32.1379 0.560589 31.5521C-0.0251971 30.9663 -0.0251971 30.0166 0.560589 29.4308L29.552 0.439419C30.1378 -0.146367 31.0875 -0.146368 31.6733 0.439418Z" fill="white"/>
</svg>
