<svg width="44" height="50" viewBox="0 0 44 50" fill="none" xmlns="http://www.w3.org/2000/svg">
<path d="M0 0C14.6667 0 29.3333 0 44 0C43.7588 2.72709 43.5188 5.45418 43.2764 8.18005C42.9933 11.3606 42.7091 14.5424 42.4248 17.723C42.1516 20.7909 41.8809 23.8587 41.6064 26.9253C41.3258 30.0581 41.0416 33.1896 40.7622 36.3212C40.5185 39.0642 40.2737 41.8072 40.0435 44.5515C40.0103 44.94 39.8774 45.1202 39.4713 45.2317C33.8793 46.7687 28.2934 48.3265 22.7113 49.8966C22.2191 50.0351 21.7773 50.0339 21.2862 49.8966C15.6721 48.3192 10.053 46.7564 4.43273 45.2035C4.114 45.1153 3.98109 44.978 3.95894 44.6508C3.9011 43.7891 3.8125 42.9299 3.7362 42.0695C3.42854 38.5801 3.12457 35.0894 2.81445 31.5999C2.5031 28.0946 2.18314 24.5892 1.87056 21.0838C1.56044 17.5943 1.25771 14.1037 0.947586 10.6142C0.635006 7.07573 0.316272 3.53848 0 0ZM22.0234 9.20838C21.2875 9.20838 20.5503 9.20838 19.8144 9.20838C16.0671 9.20838 12.3186 9.20838 8.57135 9.2096C8.32522 9.2096 8.04587 9.11645 8.08525 9.57607C8.20585 10.9721 8.26861 12.373 8.38552 13.7691C8.45198 14.5621 8.34245 14.4468 9.10667 14.4444C15.8825 14.426 22.6572 14.4064 29.433 14.3709C29.849 14.3684 29.94 14.4591 29.9007 14.882C29.7591 16.3907 29.6471 17.902 29.5733 19.4157C29.5499 19.8912 29.3936 20.0028 28.9383 20.0077C22.491 20.0726 16.0437 20.1621 9.59523 20.2258C9.13621 20.2307 8.96638 20.3067 9.03037 20.808C9.20882 22.1967 9.36141 23.5915 9.4734 24.9863C9.51032 25.4386 9.69615 25.4974 10.0813 25.4876C11.2098 25.4606 12.3395 25.4667 13.4693 25.4643C18.4939 25.4533 23.5174 25.4484 28.542 25.4226C28.9678 25.4202 29.0441 25.5194 28.9949 25.9325C28.7328 28.1485 28.4977 30.3682 28.2701 32.5878C28.2319 32.9567 28.1052 33.148 27.7187 33.2472C25.9146 33.7069 24.1179 34.1996 22.32 34.6849C22.0911 34.7474 21.8757 34.7425 21.6456 34.68C19.8329 34.1873 18.0201 33.6946 16.2013 33.2227C15.8961 33.1431 15.7816 33.0021 15.757 32.6981C15.6549 31.432 15.522 30.1671 15.426 28.8998C15.4026 28.5836 15.2968 28.4843 14.9842 28.4868C13.3967 28.499 11.8091 28.499 10.2216 28.4868C9.90043 28.4843 9.7946 28.5713 9.82536 28.9035C10.0776 31.5803 10.3213 34.2572 10.549 36.9352C10.5785 37.2882 10.7213 37.4218 11.0572 37.5125C14.5731 38.4673 18.0829 39.438 21.5927 40.4137C21.8745 40.4921 22.1268 40.4847 22.4049 40.4075C25.8359 39.4552 29.2656 38.498 32.7065 37.5824C33.2357 37.4414 33.4338 37.2306 33.4793 36.6877C33.8202 32.6454 34.1968 28.6057 34.5561 24.5647C34.9955 19.6314 35.4237 14.6969 35.8815 9.76483C35.9246 9.30398 35.8397 9.19244 35.3745 9.19489C30.9233 9.21205 26.4721 9.2047 22.0197 9.2047L22.0234 9.20838Z" fill="#0F95F7"/>
</svg>
