<svg width="91" height="35" viewBox="0 0 91 35" fill="none" xmlns="http://www.w3.org/2000/svg">
<path d="M6.86716 10.2993C6.68994 10.2993 6.64564 10.2107 6.73425 10.0777L7.66462 8.88082C7.75323 8.74784 7.97475 8.65918 8.15197 8.65918H23.9684C24.1456 8.65918 24.1899 8.79217 24.1013 8.92515L23.3482 10.0777C23.2596 10.2107 23.038 10.3437 22.9051 10.3437L6.86716 10.2993Z" fill="#00ACD7"/>
<path d="M0.177215 14.3775C0 14.3775 -0.0443038 14.2888 0.0443038 14.1558L0.974684 12.9589C1.06329 12.826 1.28481 12.7373 1.46203 12.7373H21.6646C21.8418 12.7373 21.9304 12.8703 21.8861 13.0033L21.5316 14.0672C21.4873 14.2445 21.3101 14.3331 21.1329 14.3331L0.177215 14.3775Z" fill="#00ACD7"/>
<path d="M10.8987 18.4561C10.7214 18.4561 10.6771 18.3231 10.7657 18.1901L11.386 17.0819C11.4746 16.9489 11.6518 16.8159 11.829 16.8159H20.6898C20.867 16.8159 20.9556 16.9489 20.9556 17.1262L20.867 18.1901C20.867 18.3674 20.6898 18.5004 20.5569 18.5004L10.8987 18.4561Z" fill="#00ACD7"/>
<path d="M56.7339 9.50153C53.9428 10.2108 52.0377 10.7427 49.2909 11.452C48.6263 11.6293 48.582 11.6736 48.006 11.0087C47.3415 10.2551 46.8541 9.7675 45.9238 9.32421C43.1326 7.95003 40.4301 8.34898 37.9048 9.98914C34.8921 11.9396 33.3415 14.821 33.3858 18.4116C33.4301 21.9579 35.8668 24.8835 39.3668 25.3712C42.3795 25.7701 44.9048 24.7062 46.8984 22.4455C47.2972 21.9579 47.6516 21.4259 48.0947 20.8053C46.4997 20.8053 44.506 20.8053 39.544 20.8053C38.6136 20.8053 38.3921 20.229 38.7022 19.4755C39.2782 18.1013 40.3415 15.7962 40.9617 14.6436C41.0947 14.3777 41.4048 13.9344 42.0693 13.9344C44.3288 13.9344 52.6579 13.9344 58.1959 13.9344C58.1073 15.1313 58.1073 16.3281 57.9301 17.525C57.4428 20.7167 56.2466 23.6423 54.2972 26.2134C51.1073 30.4246 46.9428 33.04 41.6706 33.7492C37.3288 34.3255 33.2972 33.4833 29.7529 30.8236C26.4744 28.3412 24.6136 25.0609 24.1263 20.9826C23.5503 16.1508 24.9681 11.8066 27.8921 7.99436C31.0377 3.8718 35.2022 1.25642 40.2972 0.325516C44.4617 -0.428069 48.4491 0.059545 52.0377 2.49762C54.3858 4.04912 56.0693 6.17689 57.1769 8.74794C57.4428 9.1469 57.2655 9.36854 56.7339 9.50153Z" fill="#00ACD7"/>
<path d="M71.5507 34.0154C67.5191 33.9267 63.8419 32.7742 60.7406 30.1145C58.1267 27.8537 56.4874 24.9724 55.9558 21.5591C55.1583 16.5499 56.5317 12.1171 59.5444 8.17184C62.7786 3.9163 66.6773 1.69987 71.9495 0.768971C76.4684 -0.0289426 80.7216 0.414343 84.576 3.02973C88.076 5.42347 90.2469 8.65945 90.8229 12.915C91.576 18.8994 89.8482 23.7755 85.7279 27.9424C82.8039 30.9124 79.2153 32.7742 75.095 33.6164C73.8988 33.8381 72.7026 33.8824 71.5507 34.0154ZM82.095 16.1067C82.0507 15.5304 82.0507 15.0871 81.9621 14.6438C81.1646 10.2553 77.133 7.77288 72.9241 8.74811C68.8039 9.67901 66.1457 12.2944 65.171 16.4613C64.3735 19.9189 66.0571 23.4209 69.2469 24.8394C71.6836 25.9033 74.1203 25.7703 76.4684 24.5734C79.9684 22.7559 81.8735 19.9189 82.095 16.1067Z" fill="#00ACD7"/>
</svg>
