<svg width="44" height="50" viewBox="0 0 44 50" fill="none" xmlns="http://www.w3.org/2000/svg">
<path d="M0.0047523 1.6552L3.24985 43.1704C3.29857 43.7938 3.72054 44.3254 4.31666 44.5144L21.3924 49.9282C21.6944 50.024 22.0186 50.024 22.3206 49.9282L39.3964 44.5144C39.9925 44.3254 40.4145 43.7938 40.4632 43.1704L43.7083 1.6552C43.7781 0.762645 43.0727 0 42.1774 0H1.53569C0.640482 0 -0.0649246 0.762645 0.0047523 1.6552ZM35.3864 14.536H14.2375L14.8758 20.4217H34.9264L33.6148 37.2009L21.8566 40.9288L10.0983 37.2009L9.41309 28.4347H15.5847V32.7346L22.0215 34.4622L28.4198 32.7346L28.9162 25.8818H9.2135L7.90542 9.14656H35.8076L35.3864 14.536Z" fill="#FC490B"/>
</svg>
