<svg width="48" height="64" viewBox="0 0 48 64" fill="none" xmlns="http://www.w3.org/2000/svg">
<path d="M15.7457 49.333C6.63012 52.1066 21.2903 57.8368 32.8959 52.4204C30.995 51.6154 29.6339 50.6861 29.6339 50.6861C24.4569 51.7531 22.0558 51.8368 17.358 51.2531C13.4802 50.7677 15.7457 49.333 15.7457 49.333ZM13.773 43.9997C2.62008 47.7023 19.9782 51.901 35.5625 47.3428C33.906 46.7586 32.8526 45.6903 32.8526 45.6903C25.2361 47.1573 20.8345 47.1103 15.2609 46.5351C10.9509 46.0892 13.773 43.9997 13.773 43.9997ZM44.9686 55.0905C44.9686 55.0905 46.8173 56.259 42.9326 57.1631C35.5458 58.8797 12.1878 59.3981 5.69905 57.2315C3.36651 56.453 7.74068 55.3727 9.11663 55.1461C10.5516 54.9073 11.3716 54.9518 11.3716 54.9518C8.77762 53.55 -5.39504 57.7044 4.17263 58.8942C30.2651 62.1403 51.7366 57.4325 44.9686 55.0905ZM17.4141 36.0095C17.4141 36.0095 5.83728 38.6255 13.3145 39.5755C16.4715 39.9776 22.7651 39.8867 28.6274 39.4194C33.4185 39.0349 38.2292 38.2174 38.2292 38.2174C38.2292 38.2174 36.5398 38.9057 35.3176 39.6996C23.5616 42.6412 0.851072 41.2727 7.38913 38.2639C12.9184 35.7211 17.4141 36.0095 17.4141 36.0095ZM38.4507 46.3335C38.3997 46.4907 38.2292 46.6665 38.2292 46.6663C52.9447 42.2039 47.5346 30.9369 40.5 33.7898C39.8821 34.0428 39.5585 34.6275 39.5585 34.6275C39.5585 34.6275 39.9471 34.4462 40.8187 34.2369C44.3745 33.3818 49.4689 39.7288 38.4507 46.3335ZM16.9166 63.8227C28.8319 64.4716 47.1292 63.4627 47.5625 58.6663C47.5625 58.6663 46.7295 60.4846 37.7152 61.9286C27.5452 63.5568 15.002 63.3667 7.56254 62.3232C7.56272 62.3231 9.0855 63.3955 16.9166 63.8227Z" fill="#5382A1"/>
<path d="M28.8738 31.6219C19.1007 19.0422 39.5627 13.3333 39.5627 13.3333C26.5269 21.779 28.9349 24.2285 32.0749 29.1585C35.4369 34.445 28.1163 38.6667 28.1163 38.6667C28.1163 38.6667 31.7569 35.3299 28.8738 31.6219ZM31.1038 0C31.1038 0 38.0894 6.82062 24.4782 17.3088C13.5635 25.7221 21.9893 30.5192 24.4737 36C18.1026 30.3893 13.427 25.4503 16.5638 20.8534C21.1677 14.1057 33.9223 10.8341 31.1038 0Z" fill="#E76F00"/>
</svg>
