<svg width="50" height="49" viewBox="0 0 50 49" fill="none" xmlns="http://www.w3.org/2000/svg">
<path fill-rule="evenodd" clip-rule="evenodd" d="M46.0475 37.7337C43.3281 37.658 41.2184 37.9367 39.4502 38.6805C38.941 38.885 38.124 38.885 38.0569 39.5258C38.329 39.7947 38.3618 40.2348 38.6003 40.6074C39.0081 41.2838 39.723 42.195 40.3686 42.6677L42.5446 44.2227C43.8707 45.0332 45.3669 45.5066 46.6587 46.3178C47.4072 46.7912 48.1549 47.3994 48.9033 47.9069C49.2844 48.1773 49.5153 48.6174 49.9917 48.7855V48.6833C49.7539 48.3803 49.6853 47.941 49.4482 47.6017L48.427 46.6223C47.4415 45.3043 46.2167 44.1545 44.8905 43.2092C43.8021 42.4654 41.4226 41.452 40.9806 40.2022L40.9135 40.1265C41.6604 40.0507 42.5446 39.7879 43.2595 39.5849C44.4164 39.2819 45.4698 39.3486 46.6587 39.0448L48.292 38.5714V38.2685C47.68 37.6602 47.238 36.849 46.5924 36.2749C44.8585 34.788 42.9531 33.3345 40.9806 32.118C39.9265 31.4424 38.566 31.0023 37.4441 30.4289C37.0349 30.2259 36.3558 30.1244 36.118 29.7866C35.5044 29.0443 35.1653 28.0635 34.7232 27.1841L31.9352 21.304C31.3232 19.9861 30.9482 18.6682 30.2013 17.4517C26.6984 11.7065 22.8891 8.22606 17.0402 4.81228C15.7826 4.10255 14.2865 3.7973 12.6959 3.42616L10.1456 3.28982C9.60069 3.05349 9.05727 2.41118 8.58092 2.10669C6.64273 0.890242 1.64368 -1.74565 0.214623 1.72797C-0.703787 3.92455 1.57509 6.08705 2.34868 7.20276C2.92793 7.97989 3.67485 8.85853 4.08414 9.73716C4.31279 10.3113 4.38901 10.9203 4.62756 11.5285C5.17099 13.0154 5.68164 14.6719 6.39579 16.058C6.77687 16.7677 7.17701 17.5123 7.65336 18.1539C7.92546 18.5326 8.4018 18.6947 8.50317 19.3029C8.02682 19.9793 7.99405 20.992 7.72196 21.838C6.49716 25.6571 6.97351 30.388 8.70744 33.1997C9.25238 34.0442 10.5366 35.9037 12.2789 35.1932C13.8094 34.585 13.4679 32.6589 13.91 30.969C14.0129 30.5638 13.9443 30.2934 14.1478 30.0222V30.0979L15.5425 32.9027C16.5966 34.5585 18.4334 36.2824 19.9631 37.4322C20.7786 38.0405 21.4249 39.0888 22.4447 39.4599V39.3577H22.3776C22.1734 39.0547 21.867 38.9183 21.5949 38.682C20.9829 38.0738 20.303 37.33 19.8267 36.6544C18.3991 34.7623 17.1416 32.6664 16.0189 30.5039C15.4739 29.4564 14.9976 28.3073 14.5571 27.2598C14.3513 26.8538 14.3513 26.2448 14.0121 26.0434C13.5015 26.7857 12.7545 27.4295 12.3788 28.3414C11.7325 29.7942 11.6654 31.5856 11.4276 33.4443C11.2904 33.4784 11.3514 33.4443 11.2904 33.5201C10.2036 33.2504 9.82859 32.1339 9.42083 31.1887C8.40105 28.7891 8.23032 24.9367 9.11443 22.1653C9.35223 21.4555 10.3735 19.2249 9.96577 18.5492C9.75999 17.9069 9.08165 17.5358 8.70667 17.0283C8.26461 16.386 7.78979 15.5755 7.4834 14.8658C6.66788 12.9722 6.26012 10.8779 5.37525 8.98502C4.96596 8.10639 4.25258 7.19367 3.6741 6.38321C3.02778 5.47049 2.31515 4.82818 1.8045 3.74731C1.63454 3.36859 1.39674 2.76718 1.66883 2.36119C1.7359 2.09079 1.87309 1.98247 2.14366 1.92188C2.58572 1.54316 3.84482 2.02338 4.28687 2.22485C5.54445 2.73234 6.59852 3.20498 7.6526 3.91395C8.12895 4.25177 8.63961 4.89408 9.25163 5.06375H9.96653C11.0549 5.30007 12.2782 5.13949 13.2972 5.44247C15.0997 6.01812 16.7315 6.86191 18.1949 7.77538C22.649 10.5802 26.3226 14.5681 28.8042 19.3339C29.212 20.1111 29.3819 20.8208 29.7569 21.632C30.4718 23.2885 31.356 24.9776 32.0686 26.6008C32.7835 28.1892 33.4633 29.8124 34.4831 31.1303C34.9938 31.8401 37.0333 32.2112 37.951 32.5831C38.6316 32.8861 39.6849 33.1588 40.2985 33.5299C41.4539 34.2396 42.6101 35.0508 43.6977 35.828C44.2411 36.2325 45.9423 37.0778 46.0437 37.7519L46.0475 37.7337ZM11.3689 8.36619C10.8991 8.36206 10.4307 8.41884 9.97568 8.5351V8.61084H10.0427C10.3148 9.15166 10.7912 9.52356 11.1311 9.99696L11.9139 11.6194L11.9809 11.5437C12.4573 11.2058 12.6959 10.665 12.6959 9.85456C12.4916 9.61824 12.4581 9.38116 12.2881 9.14484C12.0838 8.80702 11.6418 8.63735 11.3689 8.36771V8.36619Z" fill="#00678C"/>
</svg>
