<svg width="63" height="70" viewBox="0 0 63 70" fill="none" xmlns="http://www.w3.org/2000/svg">
<path d="M31.1886 70C30.2512 70 29.3202 69.7541 28.4983 69.2809L19.9351 64.2112C18.6561 63.4959 19.2802 63.2429 19.7021 63.0972C21.4074 62.5 21.7535 62.3652 23.5737 61.3315C23.765 61.2223 24.0154 61.2609 24.2113 61.3764L30.7899 65.2802C31.0274 65.4086 31.3645 65.4086 31.5847 65.2802L57.2352 50.4742C57.4727 50.3394 57.6268 50.0633 57.6268 49.7808V20.1817C57.6268 19.8863 57.4727 19.6231 57.23 19.4754L31.5899 4.68225C31.3523 4.54099 31.0377 4.54099 30.8001 4.68225L5.1651 19.4754C4.91662 19.6166 4.75868 19.8927 4.75868 20.1752V49.7744C4.75868 50.0569 4.91277 50.3265 5.15675 50.4614L12.1809 54.5192C15.9948 56.4261 18.3255 54.1789 18.3255 51.9189V22.705C18.3255 22.2876 18.6529 21.9666 19.0703 21.9666H22.3191C22.7236 21.9666 23.0575 22.2876 23.0575 22.705V51.9317C23.0575 57.0168 20.2838 59.9382 15.4619 59.9382C13.9787 59.9382 12.8101 59.9382 9.54846 58.3331L2.81964 54.455C1.1567 53.4919 0.129395 51.6941 0.129395 49.7744V20.1752C0.129395 18.249 1.1567 16.4513 2.81964 15.501L28.4958 0.688613C30.1202 -0.229538 32.2775 -0.229538 33.8891 0.688613L59.5331 15.5074C61.1896 16.4641 62.2234 18.2555 62.2234 20.1817V49.7808C62.2234 51.7006 61.1896 53.4919 59.5331 54.455L33.8891 69.2674C33.0673 69.7425 32.1363 69.9865 31.186 69.9865" fill="#689F63"/>
<path d="M39.1116 49.6046C27.8883 49.6046 25.5352 44.4526 25.5352 40.1316C25.5352 39.7206 25.8665 39.3932 26.278 39.3932H29.5911C29.957 39.3932 30.2652 39.6596 30.323 40.0211C30.8238 43.3971 32.3134 45.0998 39.1 45.0998C44.5062 45.0998 46.8048 43.8786 46.8048 41.0118C46.8048 39.3617 46.1499 38.1354 37.7517 37.3135C30.7275 36.6201 26.3872 35.0727 26.3872 29.4547C26.3872 24.2797 30.7532 21.1978 38.0663 21.1978C46.2783 21.1978 50.349 24.0485 50.8626 30.1738C50.8819 30.3857 50.8049 30.5911 50.6636 30.7452C50.5223 30.8929 50.3233 30.9828 50.1178 30.9828H46.7855C46.4388 30.9828 46.1371 30.7388 46.0664 30.4049C45.2638 26.8543 43.3248 25.7179 38.0535 25.7179C32.1529 25.7179 31.4659 27.7725 31.4659 29.3134C31.4659 31.1818 32.2749 31.7276 40.2365 32.7806C48.121 33.8271 51.8643 35.3039 51.8643 40.8449C51.8643 46.4308 47.2029 49.6347 39.0744 49.6347" fill="#689F63"/>
</svg>
