<svg width="70" height="40" viewBox="0 0 70 40" fill="none" xmlns="http://www.w3.org/2000/svg">
<path d="M14 13.3831C14.7709 13.2669 15.5534 13.335 16.3021 13.5833C17.0509 13.8316 17.7512 14.2553 18.3625 14.8298C18.757 15.5578 19.0085 16.3835 19.0981 17.2447C19.1878 18.106 19.1132 18.9804 18.88 19.8021C18.6755 21.8251 17.859 23.6879 16.585 25.038C15.0488 26.2237 13.2327 26.7798 11.41 26.6225H7.91002L10.06 13.41L14 13.3831ZM0 39.9998H5.75002L7.11252 31.6128H12.03C13.8417 31.6681 15.6496 31.3882 17.39 30.7831C18.8195 30.2177 20.126 29.2784 21.2151 28.0334C23.0986 26.0041 24.368 23.2844 24.8251 20.2993C25.1858 18.8136 25.2493 17.2469 25.0105 15.7263C24.7716 14.2056 24.237 12.7738 23.4501 11.5469C22.5013 10.4204 21.3588 9.55562 20.1023 9.01292C18.8457 8.47021 17.5055 8.26266 16.175 8.40477H5.14251L0 39.9998Z" fill="#00A6FB"/>
<path d="M29.0426 0H34.7501L33.3676 8.38701H38.4451C40.7779 8.09437 43.1215 8.80459 45.0576 10.3909C45.6983 11.2634 46.1362 12.3224 46.3275 13.4616C46.5188 14.6009 46.4568 15.7804 46.1476 16.8818L43.7626 31.5861H37.9876L40.2576 17.6067C40.4156 17.0734 40.4719 16.5044 40.4226 15.9416C40.3733 15.3787 40.2196 14.8362 39.9726 14.3538C39.1451 13.6424 38.1222 13.336 37.1126 13.4971H32.5551L29.6176 31.601H23.8976L29.0426 0Z" fill="#00A6FB"/>
<path d="M58.8477 13.3829C59.6186 13.2667 60.401 13.3348 61.1498 13.5831C61.8986 13.8314 62.5989 14.2551 63.2102 14.8296C63.6047 15.5576 63.8562 16.3833 63.9458 17.2445C64.0354 18.1058 63.9609 18.9802 63.7277 19.8019C63.5232 21.8249 62.7066 23.6878 61.4327 25.0378C59.8936 26.226 58.0737 26.7822 56.2477 26.6224H52.7502L54.8952 13.3949L58.8477 13.3829ZM44.8477 39.9996H50.5977L51.9602 31.6126H56.8802C58.6952 31.6692 60.5066 31.3893 62.2502 30.7829C63.6796 30.2175 64.9862 29.2782 66.0752 28.0332C67.9541 26.0017 69.219 23.2823 69.6727 20.2992C70.0335 18.8134 70.097 17.2467 69.8581 15.7261C69.6192 14.2054 69.0846 12.7736 68.2977 11.5467C67.3486 10.4222 66.2062 9.55936 64.9501 9.01822C63.6941 8.47709 62.3546 8.27075 61.0252 8.41357H49.9752L44.8477 39.9996Z" fill="#00A6FB"/>
</svg>
