<svg width="62" height="64" viewBox="0 0 62 64" fill="none" xmlns="http://www.w3.org/2000/svg">
<path d="M59.1009 39.3344C51.5064 40.9056 50.9843 38.3267 50.9843 38.3267C59.0029 26.3931 62.355 11.2452 59.4622 7.53784C51.5706 -2.57514 37.9097 2.20765 37.6818 2.33182L37.6084 2.34499C36.108 2.0326 34.4288 1.8465 32.5415 1.81561C29.1051 1.75913 26.4985 2.71917 24.5205 4.22358C24.5205 4.22358 0.15092 -5.84548 1.28432 16.8873C1.52543 21.7236 8.19551 53.4804 16.1513 43.8884C19.0592 40.3809 21.8687 37.4152 21.8687 37.4152C23.2642 38.345 24.9348 38.8192 26.6861 38.6489L26.8222 38.5331C26.7799 38.9686 26.7992 39.3945 26.8767 39.8988C24.8271 42.1954 25.4294 42.5987 21.3323 43.4445C17.1866 44.3015 19.622 45.8271 21.2121 46.2258C23.1398 46.7093 27.5996 47.3942 30.6129 43.1633L30.4928 43.6461C31.2958 44.2912 31.8597 47.8423 31.7652 51.0613C31.6707 54.2804 31.6076 56.4905 32.2403 58.2168C32.8731 59.943 33.5037 63.8271 38.8897 62.6696C43.3903 61.7023 45.7224 59.1956 46.0469 55.0142C46.2771 52.0416 46.7981 52.481 46.8311 49.8234L47.249 48.5652C47.7309 44.5356 47.3255 43.2356 50.0982 43.8402L50.772 43.8996C52.8128 43.9927 55.4838 43.5704 57.0514 42.8396C60.427 41.2684 62.4289 38.6451 59.1006 39.3344H59.1009Z" fill="#336791"/>
<path d="M30.9393 41.644C30.7302 49.142 30.9918 56.6923 31.7233 58.5273C32.4553 60.3622 34.0217 63.9314 39.4081 62.774C43.9082 61.8064 45.5456 59.9339 46.2561 55.8007C46.7794 52.7598 47.7882 44.3144 47.9176 42.5841" stroke="white" stroke-linecap="round" stroke-linejoin="round"/>
<path d="M24.4832 4.0556C24.4832 4.0556 0.0970236 -5.94093 1.23072 16.7919C1.47183 21.6281 8.14237 53.3861 16.098 43.7935C19.0053 40.2856 21.6346 37.5343 21.6346 37.5343" stroke="white" stroke-linecap="round" stroke-linejoin="round"/>
<path d="M37.655 2.23119C36.8109 2.49664 51.2201 -3.0519 59.409 7.44282C62.3016 11.1503 58.9496 26.2982 50.9312 38.2321" stroke="white" stroke-linecap="round" stroke-linejoin="round"/>
<path d="M50.932 38.2319C50.932 38.2319 51.4545 40.8116 59.0492 39.2394C62.3768 38.5501 60.3742 41.1737 56.9994 42.7456C54.2297 44.0349 48.0201 44.3653 47.9186 42.5838C47.6576 37.9872 51.1868 39.3837 50.9321 38.2319C50.7019 37.1947 49.1236 36.1766 48.0796 33.638C47.1681 31.4222 35.5791 14.4298 51.2934 16.9534C51.8691 16.834 47.195 1.96197 32.4886 1.72014C17.7856 1.47831 18.2679 19.8552 18.2679 19.8552" stroke="white" stroke-linecap="round" stroke-linejoin="bevel"/>
<path d="M26.8233 39.804C24.7735 42.1005 25.3763 42.5038 21.2789 43.3499C17.1332 44.207 19.569 45.7323 21.1586 46.1309C23.0863 46.6147 27.5461 47.2996 30.5594 43.0677C31.4771 41.7792 30.554 39.7233 29.2935 39.1992C28.6844 38.9461 27.8701 38.6291 26.8233 39.804V39.804Z" stroke="white" stroke-linecap="round" stroke-linejoin="round"/>
<path d="M26.689 39.7639C26.4824 38.4136 27.1313 36.8068 27.8267 34.927C28.8718 32.1066 31.2831 29.2857 29.3542 20.3388C27.9164 13.6717 18.273 18.9513 18.2669 19.8553C18.2611 20.759 18.7031 24.4375 18.1058 28.721C17.3265 34.3106 21.652 39.0379 26.633 38.5543" stroke="white" stroke-linecap="round" stroke-linejoin="round"/>
<path d="M24.3945 19.72C24.351 20.0288 24.9581 20.8527 25.7497 20.9628C26.5399 21.0733 27.2163 20.4295 27.2592 20.121C27.3021 19.8123 26.6957 19.4721 25.9039 19.3616C25.1132 19.2509 24.4365 19.412 24.3947 19.72H24.3945Z" fill="white" stroke="white"/>
<path d="M48.4643 19.0906C48.5072 19.3993 47.9009 20.2232 47.1091 20.3333C46.3183 20.4439 45.6419 19.8 45.5986 19.4915C45.5568 19.1828 46.1633 18.8427 46.9542 18.7321C47.7452 18.6216 48.4214 18.7826 48.4643 19.0907V19.0906Z" fill="white" stroke="white"/>
<path d="M51.2926 16.9536C51.4229 19.3755 50.7725 21.0252 50.6905 23.6033C50.5692 27.3508 52.4719 31.6401 49.6049 35.9347" stroke="white" stroke-linecap="round" stroke-linejoin="round"/>
</svg>
