<svg width="61" height="60" viewBox="0 0 61 60" fill="none" xmlns="http://www.w3.org/2000/svg">
<path d="M59.639 29.2844L57.1214 27.7221C57.105 27.4748 57.0721 27.2286 57.0557 26.9813L59.2276 24.9571C59.4409 24.7602 59.5405 24.4473 59.4913 24.1507C59.4257 23.8542 59.2276 23.6081 58.9486 23.5096L56.1849 22.4735C56.1192 22.2262 56.0372 21.9964 55.9716 21.7655L57.6992 19.364C57.8797 19.1166 57.9125 18.8049 57.7977 18.5247C57.6828 18.2446 57.4355 18.0477 57.1401 17.9985L54.2111 17.5214C54.0962 17.3081 53.9802 17.0772 53.8653 16.8639L55.0995 14.1658C55.2308 13.8856 55.198 13.5739 55.0339 13.3266C54.8698 13.0793 54.5897 12.9316 54.2767 12.948L51.3149 13.0464C51.1672 12.8495 51.0019 12.6679 50.8543 12.4709L51.5294 9.59231C51.595 9.29578 51.513 9.00041 51.2985 8.78592C51.0852 8.5726 50.7722 8.48938 50.4921 8.55502L47.6134 9.23014C47.4329 9.06605 47.2349 8.91719 47.038 8.76951L47.1364 5.80766C47.1528 5.51113 47.0051 5.21576 46.7578 5.0505C46.5105 4.88641 46.1823 4.85359 45.9186 4.98486L43.2205 6.21906C43.0072 6.1042 42.7927 5.98816 42.563 5.8733L42.0367 2.94427C41.9875 2.64773 41.7894 2.40159 41.5104 2.28673C41.2315 2.17187 40.9185 2.20468 40.6712 2.38519L38.2696 4.11283C38.0387 4.03079 37.7926 3.96515 37.5617 3.89951L36.5256 1.13575C36.4271 0.855619 36.1798 0.6423 35.8844 0.593073C35.5879 0.527436 35.2925 0.625891 35.078 0.856791L33.0539 3.02866C32.8065 2.99584 32.5604 2.97943 32.3131 2.96302L30.766 0.4114C30.6019 0.147682 30.3217 0 30.0252 0C29.7287 0 29.4497 0.147682 29.2844 0.4114L27.7221 2.92903C27.4748 2.94544 27.2286 2.97826 26.9813 2.99467L24.9583 0.822801C24.7614 0.609482 24.4484 0.509855 24.1519 0.559083C23.8554 0.624719 23.6092 0.822801 23.5108 1.10176L22.4747 3.86552C22.2273 3.93116 21.9976 4.01321 21.7667 4.07884L19.3815 2.38401C19.1342 2.20351 18.8225 2.17069 18.5423 2.28556C18.2622 2.40042 18.0653 2.64773 18.0161 2.9431L17.5378 5.8733C17.3245 5.98816 17.0936 6.1042 16.8803 6.21906L14.1822 4.98486C13.9021 4.85359 13.5903 4.88641 13.343 5.0505C13.0957 5.21459 12.948 5.49472 12.9644 5.80766L13.0628 8.76951C12.8659 8.91719 12.6843 9.08246 12.4874 9.23014L9.60872 8.55502C9.31218 8.48938 9.00041 8.57143 8.80233 8.78592C8.58901 8.99924 8.50579 9.31218 8.57143 9.59231L9.24655 12.4709C9.08246 12.6514 8.9336 12.8495 8.78592 13.0464L5.82407 12.948C5.52753 12.9316 5.23217 13.0793 5.06691 13.3266C4.90282 13.5739 4.87 13.9021 5.00127 14.1658L6.23547 16.8639C6.12061 17.0772 6.00457 17.2917 5.88971 17.5214L2.94427 18.0149C2.64773 18.0641 2.40159 18.2622 2.28673 18.5412C2.17187 18.8213 2.20468 19.1331 2.38519 19.3804L4.11283 21.782C4.03079 22.0129 3.96515 22.259 3.89951 22.4899L1.13575 23.526C0.855619 23.6245 0.6423 23.8718 0.593073 24.1671C0.527436 24.4637 0.625891 24.759 0.856791 24.9735L3.02866 26.9977C2.99584 27.245 2.97943 27.4912 2.96302 27.7385L0.4114 29.2844C0.147682 29.4485 0 29.7287 0 30.0252C0 30.3217 0.147682 30.6007 0.4114 30.766L2.92903 32.3283C2.94544 32.5756 2.97826 32.8218 2.99467 33.0691L0.822801 35.0921C0.609482 35.289 0.509855 35.602 0.559083 35.8985C0.624719 36.195 0.822801 36.4412 1.10176 36.5396L3.86552 37.5757C3.93116 37.8231 4.01321 38.0528 4.07884 38.2837L2.38401 40.6689C2.20351 40.9162 2.17069 41.228 2.28556 41.5081C2.40042 41.7882 2.64773 41.9851 2.9431 42.0343L5.85572 42.5114C5.97058 42.7247 6.08662 42.9556 6.20148 43.1689L4.96728 45.867C4.83601 46.1472 4.86882 46.459 5.03292 46.7063C5.19701 46.9536 5.49354 47.1012 5.79008 47.0848L8.75193 46.9864C8.89961 47.1833 9.06488 47.365 9.21256 47.5619L8.53744 50.4569C8.4718 50.7535 8.55385 51.0488 8.76834 51.2633C8.98166 51.4766 9.2946 51.5598 9.57473 51.4942L12.4534 50.8191C12.6339 50.9832 12.8319 51.132 13.0289 51.2797L12.9304 54.2416C12.914 54.5381 13.0617 54.8335 13.309 54.9987C13.5563 55.1628 13.8845 55.1956 14.1482 55.0644L16.8463 53.8302C17.0596 53.945 17.2741 54.0611 17.5039 54.1759L17.9809 57.0886C18.0301 57.3851 18.2282 57.6312 18.5072 57.7461C18.7873 57.861 19.0991 57.8281 19.3464 57.6476L21.7491 55.9212C21.98 56.0032 22.2262 56.0688 22.4571 56.1345L23.4932 58.8982C23.5916 59.1784 23.839 59.3917 24.1343 59.4409C24.4309 59.5066 24.7262 59.4081 24.9407 59.1772L26.9649 57.0053C27.2122 57.0382 27.4583 57.0546 27.7057 57.071L29.268 59.5886C29.4321 59.8359 29.7123 60 30.0088 60C30.3053 60 30.5843 59.8523 30.7495 59.5886L32.3119 57.071C32.5592 57.0546 32.8054 57.0217 33.0527 57.0053L35.0769 59.1772C35.2738 59.3905 35.5867 59.4901 35.8833 59.4409C36.1798 59.3753 36.4259 59.1772 36.5244 58.8982L37.5605 56.1345C37.8078 56.0688 38.0375 55.9868 38.2684 55.9212L40.67 57.6488C40.9174 57.8293 41.2291 57.8621 41.5093 57.7473C41.7894 57.6324 41.9863 57.3851 42.0355 57.0897L42.5126 54.1771C42.7259 54.0622 42.9568 53.9462 43.1701 53.8313L45.8682 55.0655C46.1483 55.1968 46.4601 55.164 46.7074 54.9999C46.9547 54.8358 47.1024 54.5557 47.086 54.2427L46.9876 51.2809C47.1845 51.1332 47.3661 50.9679 47.563 50.8203L50.4417 51.4954C50.7382 51.561 51.05 51.479 51.2481 51.2645C51.4614 51.0512 51.5446 50.7382 51.479 50.4581L50.8039 47.563C50.9679 47.3825 51.1168 47.1845 51.2645 46.9876L54.2263 47.086C54.5229 47.1024 54.8182 46.9547 54.9835 46.7074C55.1476 46.4601 55.1804 46.1319 55.0491 45.8682L53.8149 43.1701C53.9298 42.9568 54.0458 42.7423 54.1607 42.5126L57.0897 42.0355C57.3863 41.9863 57.6324 41.7882 57.7473 41.5093C57.8621 41.2291 57.8293 40.9174 57.6488 40.67L55.9212 38.2684C56.0032 38.0375 56.0688 37.7914 56.1345 37.5605L58.8982 36.5244C59.1784 36.4259 59.3917 36.1786 59.4409 35.8833C59.5066 35.5867 59.4081 35.2914 59.1772 35.0769L57.0053 33.0527C57.0382 32.8054 57.0546 32.5592 57.071 32.3119L59.5886 30.7495C59.8523 30.5855 60 30.3053 60 30.0088C60.0504 29.7287 59.9027 29.4497 59.639 29.2844ZM42.7587 50.1955C41.7882 49.9822 41.1787 49.0434 41.3932 48.0729C41.6065 47.1024 42.5454 46.4929 43.5159 46.7074C44.4863 46.9207 45.0958 47.8596 44.8813 48.8301C44.6844 49.8006 43.7303 50.41 42.7587 50.1955ZM41.9031 44.4043C41.031 44.2238 40.159 44.7829 39.9785 45.6549L39.0901 49.8334C36.3263 51.084 33.266 51.7907 30.0252 51.7907C26.7188 51.7907 23.5928 51.0664 20.7787 49.7502L19.8902 45.5717C19.7097 44.6997 18.8377 44.1406 17.9657 44.3211L14.2806 45.1111C13.5891 44.4031 12.9644 43.6635 12.3725 42.8571H30.3217C30.5186 42.8571 30.6675 42.8243 30.6675 42.6438V36.2935C30.6675 36.113 30.5362 36.0802 30.3217 36.0802H25.0732V32.0494H30.7495C31.2594 32.0494 33.5133 32.1971 34.2377 35.0769C34.4686 35.9653 34.962 38.8439 35.2902 39.7652C35.636 40.8013 37.0014 42.8583 38.4654 42.8583H47.399C47.4974 42.8583 47.6123 42.8419 47.7283 42.8255C47.1036 43.6647 46.4285 44.4711 45.6877 45.2107L41.9031 44.4043ZM17.0936 50.1135C16.1231 50.3268 15.1855 49.7021 14.971 48.748C14.7577 47.7775 15.3824 46.8399 16.3365 46.6254C17.3069 46.4121 18.2446 47.0368 18.4591 47.9909C18.6736 48.9613 18.0641 49.9154 17.0936 50.1135ZM10.2827 22.5227C10.6777 23.4276 10.2827 24.4801 9.37782 24.8751C8.47297 25.2701 7.42044 24.8751 7.02545 23.9702C6.63046 23.0654 7.02545 22.0129 7.9303 21.6179C8.83515 21.2065 9.88768 21.6179 10.2827 22.5227ZM8.19285 27.4748L12.0267 25.7635C12.8495 25.4013 13.2117 24.4309 12.8495 23.6081L12.0595 21.8148H15.1691V35.8317H8.88437C8.3417 33.9235 8.04516 31.8994 8.04516 29.8107C8.07798 29.0383 8.1108 28.2483 8.19285 27.4748ZM25.0567 26.1093V21.98H32.4608C32.8394 21.98 35.1589 22.4243 35.1589 24.1519C35.1589 25.5994 33.382 26.1093 31.9181 26.1093H25.0567ZM51.9724 29.8283C51.9724 30.371 51.956 30.9136 51.9068 31.4575H49.6529C49.422 31.4575 49.3399 31.6052 49.3399 31.8197V32.8558C49.3399 35.2902 47.9744 35.8176 46.7567 35.9489C45.6045 36.0802 44.3387 35.4719 44.1898 34.7639C43.5147 30.964 42.3801 30.1576 40.6032 28.7429C42.8079 27.3447 45.1111 25.2712 45.1111 22.5075C45.1111 19.5128 43.0541 17.6375 41.6722 16.7162C39.7148 15.4164 37.5429 15.1702 36.9499 15.1702H13.6712C16.8299 11.6493 21.108 9.14927 25.9604 8.24442L28.7078 11.123C29.3325 11.7806 30.3534 11.7982 31.0109 11.1723L34.0876 8.22684C40.52 9.42822 45.9831 13.4262 49.1254 18.9373L47.0192 23.6924C46.657 24.5152 47.0192 25.4693 47.842 25.8479L51.8892 27.6412C51.9396 28.3632 51.9724 29.1039 51.9724 29.8283ZM28.6925 5.80766C29.4005 5.13254 30.5351 5.15012 31.2102 5.8733C31.8853 6.58124 31.8677 7.71581 31.1445 8.39093C30.4366 9.06605 29.302 9.04847 28.6269 8.32529C27.9682 7.61735 27.9846 6.48161 28.6925 5.80766ZM49.5708 22.6048C49.9658 21.6999 51.0183 21.2885 51.9232 21.6999C52.828 22.0949 53.223 23.1474 52.828 24.0523C52.433 24.9571 51.3805 25.3685 50.4757 24.9571C49.5872 24.5633 49.1758 23.5108 49.5708 22.6048Z" fill="black"/>
</svg>
