<svg width="38" height="50" viewBox="0 0 38 50" fill="none" xmlns="http://www.w3.org/2000/svg">
<path d="M15.7606 49.9679C11.0803 49.6306 6.45454 48.4525 3.61758 46.8754C2.00164 45.9771 0.770528 44.8731 0.28743 43.8892L0 43.3038V24.9409V6.57814L0.227442 6.11632C1.24384 4.05276 4.48764 2.19245 9.0158 1.07624C10.5529 0.697315 12.7719 0.319963 14.5822 0.129678C16.4308 -0.0646779 21.3305 -0.035108 23.1744 0.181819C28.0753 0.757602 32.2456 2.04664 34.8156 3.78013C35.8067 4.44862 36.8237 5.51829 37.1683 6.25457L37.4637 6.88584L37.4384 25.1931L37.4131 43.5005L37.176 43.9822C37.0456 44.2471 36.6516 44.7684 36.3006 45.1405C34.1636 47.4058 29.5798 49.0816 23.5673 49.7956C22.3418 49.9412 17.018 50.0589 15.7607 49.9682L15.7606 49.9679ZM24.3856 34.2335C24.3676 34.1865 23.6679 33.5632 22.8308 32.8483C21.9936 32.1334 21.2726 31.5148 21.2286 31.4738C21.1845 31.4327 21.3392 31.2873 21.5723 31.1507C21.8054 31.014 22.252 30.6339 22.5648 30.3059C23.4794 29.3468 23.9109 28.1621 23.9109 26.6103C23.9109 25.0826 23.4455 23.85 22.5133 22.9091C21.5738 21.9606 20.495 21.5531 18.9241 21.5531C16.5026 21.5531 14.643 22.9661 14.0494 25.2568C13.8452 26.0447 13.8463 27.6368 14.0515 28.3354C14.5868 30.1578 16.0447 31.4814 17.8591 31.7922C18.4731 31.8974 18.5563 31.9427 18.9749 32.4004C19.2236 32.6723 19.7341 33.2152 20.1093 33.6068L20.7915 34.3187H22.6049C23.6023 34.3187 24.4036 34.2804 24.3856 34.2335ZM18.1666 29.156C17.7301 28.9284 17.565 28.7517 17.3161 28.2456C17.1238 27.8548 17.0909 27.6324 17.0888 26.7085C17.0866 25.7697 17.1165 25.5669 17.3172 25.1592C17.6457 24.4922 18.0984 24.1764 18.7986 24.1257C19.7732 24.055 20.3358 24.5334 20.6307 25.683C20.9922 27.0924 20.5946 28.5908 19.7273 29.0881C19.2722 29.349 18.5935 29.3786 18.1666 29.156ZM10.1287 31.7722C12.03 31.4116 13.1093 30.3059 13.1093 28.7187C13.1093 27.3106 12.4125 26.4901 10.4867 25.6304C9.38429 25.1382 8.98498 24.8293 8.98498 24.4684C8.98498 24.1693 9.36392 23.8415 9.80507 23.7591C10.2358 23.6787 11.3782 23.8771 12.0528 24.1496L12.6183 24.378V23.1263V21.8746L12.0045 21.7384C11.6252 21.6543 10.8282 21.6038 9.91786 21.6064C8.62838 21.6064 8.37589 21.6378 7.89063 21.8305C6.47317 22.3932 5.80054 23.3518 5.8113 24.7937C5.82137 26.1435 6.53348 26.9855 8.30575 27.743C9.35145 28.19 9.77059 28.5303 9.77059 28.9325C9.77059 29.7871 8.34658 29.8923 6.83891 29.149C6.42602 28.9454 6.05505 28.7623 6.01455 28.742C5.97405 28.7217 5.94091 29.3065 5.94091 30.0414C5.94091 31.3717 5.94233 31.3781 6.18318 31.4698C7.09017 31.8146 9.09479 31.9683 10.1287 31.7722ZM31.8649 30.5381V29.4089H30.1465H28.428V25.5301V21.6513H26.9059H25.3839V26.6594V31.6674H28.6244H31.8649V30.5381ZM21.2596 10.749C24.2842 10.5392 26.5514 10.1431 28.5466 9.47603C30.5341 8.81146 31.7083 8.00733 31.9709 7.13077C32.0721 6.79298 32.0648 6.66486 31.9234 6.2945C31.2893 4.63415 27.7471 3.35849 22.3343 2.84128C20.0189 2.62 15.8081 2.69173 13.6004 2.98995C10.2318 3.44509 7.49803 4.29049 6.28249 5.25299C3.82357 7.20012 6.42389 9.34171 12.471 10.3497C15.093 10.7868 18.4901 10.9411 21.2597 10.749H21.2596Z" fill="#00BCF2"/>
</svg>
