<svg width="55" height="50" viewBox="0 0 55 50" fill="none" xmlns="http://www.w3.org/2000/svg">
<path d="M41.4849 46.5428C34.9968 50.3377 26.117 50.7283 17.1273 46.8219C9.86949 43.6967 3.84883 38.2276 0 31.9773C1.84194 33.512 4.01378 34.7676 6.32307 35.8837C15.5877 40.2646 24.8249 39.9576 31.3404 35.8837C22.0758 28.6568 14.1857 19.2533 8.32996 11.5799C7.09284 10.3243 6.18562 8.76166 5.2509 7.36649C28.014 24.248 27.0243 28.5452 11.8764 4.54825C25.3198 18.3325 37.801 26.1455 37.801 26.1455C38.2408 26.3966 38.4883 26.5919 38.7907 26.7593C39.0656 26.0618 39.313 25.3363 39.5055 24.5829C41.6773 16.6304 39.203 7.50601 33.7872 0C46.2959 7.67343 53.7186 22.0716 50.6121 34.1537C50.5296 34.4607 50.4471 34.7676 50.4746 35.242C56.6327 43.1386 54.9832 51.3701 54.186 49.8075C50.8595 43.1386 44.6189 45.2035 41.4849 46.5428Z" fill="#FE5E2F"/>
</svg>
