<svg width="672" height="566" viewBox="0 0 672 566" fill="none" xmlns="http://www.w3.org/2000/svg">
<g clip-path="url(#clip0_21_2397)">
<mask id="mask0_21_2397" style="mask-type:alpha" maskUnits="userSpaceOnUse" x="-20" y="86" width="692" height="480">
<rect x="-20" y="86" width="692" height="480" fill="url(#paint0_radial_21_2397)"/>
</mask>
<g mask="url(#mask0_21_2397)">
<g opacity="0.4">
<path d="M614.289 180.602L556.597 147.31L614.289 114L671.982 147.292L614.289 180.583V180.602ZM560.673 147.31L614.289 178.242L667.906 147.31L614.289 116.36L560.673 147.292V147.31Z" fill="white"/>
<path d="M502.963 180.602L502.446 180.307L445.252 147.31L502.963 114L503.479 114.295L560.673 147.292L502.981 180.583L502.963 180.602ZM449.346 147.31L502.963 178.242L556.579 147.31L502.963 116.36L449.346 147.292V147.31Z" fill="white"/>
<path d="M558.626 212.713L500.934 179.422L558.626 146.13L616.318 179.422L558.626 212.713ZM505.01 179.422L558.626 210.354L612.242 179.422L558.626 148.489L505.01 179.422Z" fill="white"/>
<path d="M614.289 244.826L613.773 244.531L556.579 211.534L614.271 178.242L614.787 178.537L671.982 211.534L614.289 244.826ZM560.673 211.534L614.289 242.466L667.905 211.534L614.289 180.602L560.673 211.534Z" fill="white"/>
<path d="M391.654 180.602L391.138 180.307L333.943 147.31L391.654 114L392.171 114.295L449.365 147.292L391.673 180.583L391.654 180.602ZM338.038 147.31L391.654 178.242L445.27 147.31L391.654 116.36L338.038 147.292V147.31Z" fill="white"/>
<path d="M447.318 212.713L446.801 212.418L389.607 179.422L447.299 146.13L447.816 146.425L505.01 179.422L447.318 212.713ZM393.701 179.422L447.318 210.354L500.934 179.422L447.318 148.489L393.701 179.422Z" fill="white"/>
<path d="M502.963 244.826L502.446 244.531L445.252 211.534L502.944 178.242L560.636 211.534L502.944 244.826H502.963ZM449.346 211.534L502.963 242.466L556.579 211.534L502.963 180.602L449.346 211.534Z" fill="white"/>
<path d="M558.626 276.956L500.934 243.665L558.626 210.373L559.142 210.668L616.337 243.665L558.644 276.956H558.626ZM505.01 243.665L558.626 274.597L612.242 243.665L558.626 212.733L505.01 243.665Z" fill="white"/>
<path d="M614.289 309.068L556.579 275.776L614.271 242.484L614.787 242.779L671.982 275.776L614.289 309.068ZM560.673 275.776L614.289 306.708L667.905 275.776L614.289 244.844L560.673 275.776Z" fill="white"/>
<path d="M280.327 180.602L279.811 180.307L222.617 147.31L280.327 114L338.038 147.292L280.346 180.583L280.327 180.602ZM226.711 147.31L280.327 178.242L333.943 147.31L280.327 116.36L226.711 147.292V147.31Z" fill="white"/>
<path d="M335.991 212.713L278.28 179.422L335.972 146.13L336.489 146.425L393.683 179.422L335.991 212.713ZM282.375 179.422L335.991 210.354L389.607 179.422L335.991 148.489L282.375 179.422Z" fill="white"/>
<path d="M391.654 244.826L391.138 244.531L333.943 211.534L391.636 178.242L392.152 178.537L449.346 211.534L391.654 244.826ZM338.038 211.534L391.654 242.466L445.27 211.534L391.654 180.602L338.038 211.534Z" fill="white"/>
<path d="M447.318 276.956L446.801 276.661L389.607 243.665L447.299 210.373L447.816 210.668L505.01 243.665L447.318 276.956ZM393.701 243.665L447.318 274.597L500.934 243.665L447.318 212.733L393.701 243.665Z" fill="white"/>
<path d="M502.963 309.068L445.27 275.776L502.963 242.484L560.655 275.776L502.963 309.068ZM449.346 275.776L502.963 306.708L556.579 275.776L502.963 244.844L449.346 275.776Z" fill="white"/>
<path d="M558.626 341.18L558.11 340.885L500.915 307.888L558.607 274.597L616.318 307.888L558.626 341.18ZM505.01 307.888L558.626 338.82L612.242 307.888L558.626 276.956L505.01 307.888Z" fill="white"/>
<path d="M614.289 373.291L556.579 340L614.271 306.708L614.787 307.003L671.982 340L614.289 373.291ZM560.673 340L614.289 370.932L667.905 340L614.289 309.068L560.673 340Z" fill="white"/>
<path d="M169.019 180.602L168.503 180.307L111.308 147.31L169.019 114L169.535 114.295L226.73 147.292L169.037 180.583L169.019 180.602ZM115.403 147.31L169.019 178.242L222.635 147.31L169.019 116.36L115.403 147.292V147.31Z" fill="white"/>
<path d="M224.682 212.713L224.166 212.418L166.972 179.422L224.664 146.13L225.18 146.425L282.375 179.422L224.682 212.713ZM171.066 179.422L224.682 210.354L278.299 179.422L224.682 148.489L171.066 179.422Z" fill="white"/>
<path d="M280.346 244.826L279.829 244.531L222.635 211.534L280.327 178.242L338.038 211.534L280.346 244.826ZM226.73 211.534L280.346 242.466L333.962 211.534L280.346 180.602L226.73 211.534Z" fill="white"/>
<path d="M335.991 276.938L335.474 276.643L278.28 243.646L335.972 210.354L336.489 210.649L393.683 243.646L335.991 276.938ZM282.375 243.646L335.991 274.578L389.607 243.646L335.991 212.714L282.375 243.646Z" fill="white"/>
<path d="M391.654 309.068L333.943 275.776L391.636 242.484L392.152 242.779L449.346 275.776L391.654 309.068ZM338.038 275.776L391.654 306.708L445.27 275.776L391.654 244.844L338.038 275.776Z" fill="white"/>
<path d="M447.318 341.18L389.625 307.888L447.318 274.597L505.01 307.888L447.318 341.18ZM393.701 307.888L447.318 338.82L500.934 307.888L447.318 276.956L393.701 307.888Z" fill="white"/>
<path d="M502.981 373.291L502.464 372.996L445.27 340L502.963 306.708L503.479 307.003L560.673 340L502.981 373.291ZM449.365 340L502.981 370.932L556.597 340L502.981 309.068L449.365 340Z" fill="white"/>
<path d="M558.626 405.422L558.11 405.127L500.915 372.131L558.607 338.839L616.318 372.131L558.626 405.422ZM505.01 372.131L558.626 403.063L612.242 372.131L558.626 341.198L505.01 372.131Z" fill="white"/>
<path d="M614.289 437.534L613.773 437.239L556.579 404.242L614.271 370.95L614.787 371.245L671.982 404.242L614.289 437.534ZM560.673 404.242L614.289 435.174L667.905 404.242L614.289 373.31L560.673 404.242Z" fill="white"/>
<path d="M57.7107 180.583L57.1942 180.288L0 147.292L57.6922 114L115.403 147.292L57.7107 180.583ZM4.07608 147.292L57.6922 178.224L111.308 147.292L57.6922 116.36L4.07608 147.292Z" fill="white"/>
<path d="M113.356 212.713L112.839 212.418L55.6449 179.422L113.337 146.13L113.854 146.425L171.048 179.422L113.356 212.713ZM59.7394 179.422L113.356 210.354L166.972 179.422L113.356 148.489L59.7394 179.422Z" fill="white"/>
<path d="M169.019 244.826L111.308 211.534L169.001 178.242L169.517 178.537L226.711 211.534L169.019 244.826ZM115.403 211.534L169.019 242.466L222.635 211.534L169.019 180.602L115.403 211.534Z" fill="white"/>
<path d="M224.682 276.938L224.166 276.643L166.972 243.646L224.664 210.354L225.18 210.649L282.375 243.646L224.682 276.938ZM171.066 243.646L224.682 274.578L278.299 243.646L224.682 212.714L171.066 243.646Z" fill="white"/>
<path d="M280.346 309.068L279.829 308.773L222.635 275.776L280.327 242.484L280.844 242.779L338.038 275.776L280.346 309.068ZM226.73 275.776L280.346 306.708L333.962 275.776L280.346 244.844L226.73 275.776Z" fill="white"/>
<path d="M335.991 341.18L335.474 340.885L278.28 307.888L335.972 274.597L393.683 307.888L335.991 341.18ZM282.375 307.888L335.991 338.82L389.607 307.888L335.991 276.956L282.375 307.888Z" fill="white"/>
<path d="M391.654 373.291L391.138 372.996L333.943 340L391.636 306.708L449.328 340L391.636 373.291H391.654ZM338.038 340L391.654 370.932L445.27 340L391.654 309.068L338.038 340Z" fill="white"/>
<path d="M447.318 405.422L389.625 372.131L447.318 338.839L447.834 339.134L505.028 372.131L447.336 405.422H447.318ZM393.701 372.131L447.318 403.063L500.934 372.131L447.318 341.198L393.701 372.131Z" fill="white"/>
<path d="M502.981 437.534L502.464 437.239L445.27 404.242L502.963 370.95L503.479 371.245L560.673 404.242L502.981 437.534ZM449.365 404.242L502.981 435.174L556.597 404.242L502.981 373.31L449.365 404.242Z" fill="white"/>
<path d="M558.626 469.646L558.11 469.351L500.915 436.354L558.607 403.062L559.124 403.357L616.318 436.354L558.626 469.646ZM505.01 436.354L558.626 467.286L612.242 436.354L558.626 405.422L505.01 436.354Z" fill="white"/>
<path d="M614.289 501.776L613.773 501.481L556.579 468.484L614.271 435.192L671.982 468.484L614.289 501.776ZM560.673 468.484L614.289 499.416L667.905 468.484L614.289 437.552L560.673 468.484Z" fill="white"/>
<path d="M57.7107 244.826L57.1942 244.531L0 211.534L57.6922 178.242L58.2086 178.537L115.403 211.534L57.7107 244.826ZM4.09452 211.534L57.7107 242.466L111.327 211.534L57.7107 180.602L4.09452 211.534Z" fill="white"/>
<path d="M113.356 276.938L112.839 276.643L55.6449 243.646L113.337 210.354L171.048 243.646L113.356 276.938ZM59.7394 243.646L113.356 274.578L166.972 243.646L113.356 212.714L59.7394 243.646Z" fill="white"/>
<path d="M169.019 309.068L111.308 275.776L169.001 242.484L169.517 242.779L226.711 275.776L169.019 309.068ZM115.403 275.776L169.019 306.708L222.635 275.776L169.019 244.844L115.403 275.776Z" fill="white"/>
<path d="M224.682 341.18L224.166 340.885L166.972 307.888L224.664 274.597L225.18 274.892L282.375 307.888L224.682 341.18ZM171.066 307.888L224.682 338.82L278.299 307.888L224.682 276.956L171.066 307.888Z" fill="white"/>
<path d="M280.346 373.291L279.829 372.996L222.635 340L280.327 306.708L280.844 307.003L338.038 340L280.346 373.291ZM226.73 340L280.346 370.932L333.962 340L280.346 309.068L226.73 340Z" fill="white"/>
<path d="M335.991 405.422L335.474 405.127L278.28 372.131L335.972 338.839L336.489 339.134L393.683 372.131L335.991 405.422ZM282.375 372.131L335.991 403.063L389.607 372.131L335.991 341.198L282.375 372.131Z" fill="white"/>
<path d="M391.654 437.534L333.962 404.242L391.654 370.95L449.346 404.242L391.654 437.534ZM338.038 404.242L391.654 435.174L445.27 404.242L391.654 373.31L338.038 404.242Z" fill="white"/>
<path d="M447.318 469.646L389.607 436.354L447.299 403.062L447.816 403.357L505.01 436.354L447.318 469.646ZM393.701 436.354L447.318 467.286L500.934 436.354L447.318 405.422L393.701 436.354Z" fill="white"/>
<path d="M502.981 501.776L502.464 501.481L445.27 468.484L502.963 435.192L503.479 435.487L560.673 468.484L502.981 501.776ZM449.365 468.484L502.981 499.416L556.597 468.484L502.981 437.552L449.365 468.484Z" fill="white"/>
<path d="M558.626 533.888L558.11 533.593L500.915 500.596L558.607 467.305L559.124 467.6L616.318 500.596L558.626 533.888ZM505.01 500.596L558.626 531.528L612.242 500.596L558.626 469.664L505.01 500.596Z" fill="white"/>
<path d="M614.289 566L613.773 565.705L556.579 532.709L614.271 499.417L614.787 499.712L671.982 532.709L614.289 566ZM560.673 532.709L614.289 563.641L667.905 532.709L614.289 501.777L560.673 532.709Z" fill="white"/>
<path d="M57.7107 309.068L57.1942 308.773L0 275.757L57.6922 242.466L58.2086 242.761L115.403 275.757L57.7107 309.049V309.068ZM4.09452 275.757L57.7107 306.69L111.327 275.757L57.7107 244.825L4.09452 275.757Z" fill="white"/>
<path d="M113.356 341.18L112.839 340.885L55.6449 307.888L113.337 274.597L171.048 307.888L113.356 341.18ZM59.7394 307.888L113.356 338.82L166.972 307.888L113.356 276.956L59.7394 307.888Z" fill="white"/>
<path d="M169.019 373.291L168.503 372.996L111.308 340L169.001 306.708L169.517 307.003L226.711 340L169.019 373.291ZM115.403 340L169.019 370.932L222.635 340L169.019 309.068L115.403 340Z" fill="white"/>
<path d="M224.682 405.422L166.972 372.131L224.664 338.839L225.18 339.134L282.375 372.131L224.682 405.422ZM171.066 372.131L224.682 403.063L278.299 372.131L224.682 341.198L171.066 372.131Z" fill="white"/>
<path d="M280.346 437.534L279.829 437.239L222.635 404.242L280.327 370.95L280.844 371.245L338.038 404.242L280.346 437.534ZM226.73 404.242L280.346 435.174L333.962 404.242L280.346 373.31L226.73 404.242Z" fill="white"/>
<path d="M335.991 469.646L278.299 436.354L335.991 403.062L393.683 436.354L335.991 469.646ZM282.375 436.354L335.991 467.286L389.607 436.354L335.991 405.422L282.375 436.354Z" fill="white"/>
<path d="M391.654 501.758L391.138 501.463L333.943 468.466L391.636 435.175L449.346 468.466L391.654 501.758ZM338.038 468.466L391.654 499.399L445.27 468.466L391.654 437.534L338.038 468.466Z" fill="white"/>
<path d="M447.318 533.888L446.801 533.593L389.607 500.596L447.299 467.305L447.816 467.6L505.01 500.596L447.318 533.888ZM393.701 500.596L447.318 531.528L500.934 500.596L447.318 469.664L393.701 500.596Z" fill="white"/>
<path d="M502.981 566L445.27 532.709L502.963 499.417L503.479 499.712L560.673 532.709L502.981 566ZM449.365 532.709L502.981 563.641L556.597 532.709L502.981 501.777L449.365 532.709Z" fill="white"/>
<path d="M57.7107 373.291L57.1942 372.996L0 340L57.6922 306.708L58.2086 307.003L115.403 340L57.7107 373.291ZM4.09452 340L57.7107 370.932L111.327 340L57.7107 309.068L4.09452 340Z" fill="white"/>
<path d="M113.374 405.404L112.858 405.109L55.6635 372.112L113.356 338.82L113.872 339.115L171.066 372.112L113.374 405.404ZM59.758 372.112L113.374 403.044L166.99 372.112L113.374 341.18L59.758 372.112Z" fill="white"/>
<path d="M169.019 437.534L168.503 437.239L111.308 404.242L169.001 370.95L226.711 404.242L169.019 437.534ZM115.403 404.242L169.019 435.174L222.635 404.242L169.019 373.31L115.403 404.242Z" fill="white"/>
<path d="M224.682 469.646L166.972 436.354L224.664 403.062L225.18 403.357L282.375 436.354L224.682 469.646ZM171.066 436.354L224.682 467.286L278.299 436.354L224.682 405.422L171.066 436.354Z" fill="white"/>
<path d="M280.346 501.758L279.829 501.463L222.635 468.466L280.327 435.175L338.02 468.466L280.327 501.758H280.346ZM226.73 468.466L280.346 499.399L333.962 468.466L280.346 437.534L226.73 468.466Z" fill="white"/>
<path d="M336.009 533.888L278.317 500.596L336.009 467.305L336.526 467.6L393.72 500.596L336.028 533.888H336.009ZM282.393 500.596L336.009 531.528L389.625 500.596L336.009 469.664L282.393 500.596Z" fill="white"/>
<path d="M391.654 566L391.138 565.705L333.943 532.709L391.636 499.417L392.152 499.712L449.346 532.709L391.654 566ZM338.038 532.709L391.654 563.641L445.27 532.709L391.654 501.777L338.038 532.709Z" fill="white"/>
<path d="M57.7107 437.534L57.1942 437.239L0 404.242L57.6922 370.95L58.2086 371.245L115.403 404.242L57.7107 437.534ZM4.09452 404.242L57.7107 435.174L111.327 404.242L57.7107 373.31L4.09452 404.242Z" fill="white"/>
<path d="M113.374 469.646L112.858 469.351L55.6635 436.354L113.356 403.062L113.872 403.357L171.066 436.354L113.374 469.646ZM59.758 436.354L113.374 467.286L166.99 436.354L113.374 405.422L59.758 436.354Z" fill="white"/>
<path d="M169.019 501.758L168.503 501.463L111.308 468.466L169.001 435.175L226.711 468.466L169.019 501.758ZM115.403 468.466L169.019 499.399L222.635 468.466L169.019 437.534L115.403 468.466Z" fill="white"/>
<path d="M224.682 533.888L224.166 533.593L166.972 500.596L224.664 467.305L225.18 467.6L282.375 500.596L224.682 533.888ZM171.066 500.596L224.682 531.528L278.299 500.596L224.682 469.664L171.066 500.596Z" fill="white"/>
<path d="M280.346 566L222.654 532.709L280.346 499.417L338.038 532.709L280.346 566ZM226.73 532.709L280.346 563.641L333.962 532.709L280.346 501.777L226.73 532.709Z" fill="white"/>
<path d="M57.7107 501.758L0 468.466L57.6922 435.175L58.2086 435.47L115.403 468.466L57.7107 501.758ZM4.09452 468.466L57.7107 499.399L111.327 468.466L57.7107 437.534L4.09452 468.466Z" fill="white"/>
<path d="M113.374 533.888L112.858 533.593L55.6635 500.596L113.356 467.305L113.872 467.6L171.066 500.596L113.374 533.888ZM59.758 500.596L113.374 531.528L166.99 500.596L113.374 469.664L59.758 500.596Z" fill="white"/>
<path d="M169.037 566L168.521 565.705L111.327 532.709L169.019 499.417L169.535 499.712L226.73 532.709L169.037 566ZM115.421 532.709L169.037 563.641L222.654 532.709L169.037 501.777L115.421 532.709Z" fill="white"/>
<path d="M57.7107 566L0 532.709L57.6922 499.417L58.2086 499.712L115.403 532.709L57.7107 566ZM4.09452 532.709L57.7107 563.641L111.327 532.709L57.7107 501.777L4.09452 532.709Z" fill="white"/>
</g>
</g>
</g>
<rect width="337.286" height="244.433" rx="20" transform="matrix(0.866044 0.499967 -0.866044 0.499967 271.684 212.509)" fill="#111111"/>
<path d="M254.901 203.659C264.278 198.6 278.83 198.577 288.255 203.606L550.253 343.419C555.437 346.186 558.302 350.109 558.113 354.183L557.695 363.159C557.53 366.703 555.065 370.083 550.787 372.627L373.582 478.041C363.959 483.765 348.043 483.764 338.422 478.039L81.173 324.941C76.956 322.431 74.499 319.109 74.2765 315.615L73.7946 308.049C73.5338 303.954 76.362 299.996 81.5471 297.198L254.901 203.659Z" fill="#580074"/>
<rect width="337.286" height="244.433" rx="20" transform="matrix(0.866044 0.499967 -0.866044 0.499967 275.808 184.733)" fill="#980BC4"/>
<rect y="1.99987" width="287.257" height="194.404" rx="18" transform="matrix(0.866044 0.499967 -0.866044 0.499967 277.54 208.747)" stroke="white" stroke-width="4"/>
<g clip-path="url(#clip1_21_2397)">
<path d="M558.747 121.333L350.711 1.28872C348.3 -0.100329 345.839 -0.317891 343.662 0.418474L343.277 0.535622C343.277 0.535622 343.21 0.552358 343.177 0.569094L335.659 3.44761L342.407 6.74452C342.373 6.86167 342.34 6.97882 342.306 7.1127L305.555 174.201C303.864 181.916 307.262 190.919 313.139 194.317L516.168 311.482L515.448 320.085L523.669 316.905C526.432 315.616 528.642 312.704 529.546 308.537L566.298 141.449C567.989 133.734 564.59 124.73 558.713 121.333H558.747Z" fill="#173D7A"/>
<path d="M558.747 121.333L350.711 1.28872C348.3 -0.100329 345.839 -0.317891 343.662 0.418474L343.277 0.535622C343.277 0.535622 343.21 0.552358 343.177 0.569094L335.659 3.44761L342.407 6.74452C342.373 6.86167 342.34 6.97882 342.306 7.1127L317.108 121.634L418.89 200.894L565.276 129.617C563.903 126.036 561.61 123.007 558.713 121.333H558.747Z" fill="#396CAA"/>
<path d="M550.894 145.031L566.733 138.286C567.018 132.161 564.49 125.818 560.32 122.438L535.256 132.981L550.894 145.031Z" fill="#274F89"/>
<path d="M508.249 319.265L300.214 199.221C294.337 195.823 290.938 186.82 292.629 179.104L329.38 12.0165C331.071 4.30142 337.216 0.803686 343.11 4.20101L551.128 124.245C557.005 127.643 560.404 136.646 558.713 144.361L521.962 311.449C520.271 319.164 514.126 322.662 508.232 319.265H508.249Z" fill="url(#paint1_radial_21_2397)"/>
<path d="M553.138 123.509L345.102 3.46448C342.256 1.8244 339.343 1.8244 336.915 3.11304C338.874 2.67791 341 2.97915 343.11 4.20085L551.128 124.245C557.005 127.642 560.404 136.646 558.713 144.361L521.962 311.432C521.091 315.415 519.015 318.244 516.42 319.616C519.936 318.846 522.866 315.667 523.954 310.713L560.705 143.642C562.397 135.927 558.998 126.923 553.121 123.525L553.138 123.509Z" fill="white"/>
<path d="M503.728 307.8L308.083 194.952C302.692 191.84 299.594 183.606 301.134 176.543L335.023 22.5425C336.58 15.4801 342.206 12.2836 347.58 15.3797L543.226 128.228C548.617 131.34 551.714 139.574 550.174 146.637L516.302 300.621C514.745 307.683 509.119 310.88 503.745 307.784L503.728 307.8Z" fill="white"/>
<path d="M503.728 307.8L308.083 194.952C302.692 191.84 299.594 183.606 301.134 176.543L335.023 22.5425C336.58 15.4801 342.206 12.2836 347.58 15.3797L543.226 128.228C548.617 131.34 551.714 139.574 550.174 146.637L516.302 300.621C514.745 307.683 509.119 310.88 503.745 307.784L503.728 307.8Z" fill="url(#paint2_radial_21_2397)"/>
<path d="M505.436 307.097L309.791 194.249C304.399 191.137 301.302 182.903 302.842 175.84L336.731 21.8564C337.518 18.2917 339.343 15.7144 341.653 14.4258C338.556 15.2291 335.994 18.1243 335.023 22.5425L301.151 176.526C299.594 183.589 302.708 191.823 308.1 194.936L503.745 307.784C506.407 309.323 509.119 309.306 511.38 308.051C509.521 308.537 507.479 308.252 505.453 307.081L505.436 307.097Z" fill="#4D21A3"/>
<path d="M511.112 324.486L482.682 320.737L299.125 214.801C293.248 211.404 282.968 211.839 276.17 215.755L146.092 290.797L128.896 288.521V298.278H128.913C128.796 300.537 130.085 302.696 132.865 304.303L340.883 424.347C346.76 427.744 357.04 427.309 363.838 423.393L505.486 341.673C509.304 339.464 511.212 336.619 511.095 333.958V324.486H511.112Z" fill="#480689"/>
<path d="M373.198 257.56L360.155 250.029H216.782L146.092 290.797L128.896 288.521V298.278H128.913C128.796 300.537 130.085 302.696 132.865 304.303L340.883 424.347C343.997 426.138 348.334 426.857 352.737 426.573L373.198 257.56Z" fill="#396CAA"/>
<path d="M136.531 289.526L128.896 288.521V298.278H128.913C128.796 300.538 130.085 302.697 132.865 304.303L136.531 306.412V289.526Z" fill="#4D21A3"/>
<path d="M342.976 425.318C348.551 427.426 356.521 426.974 362.482 424.113V402.356H342.976V425.318Z" fill="#274F89"/>
<path d="M340.883 414.607L132.864 294.563C126.988 291.166 127.724 285.242 134.505 281.309L276.153 199.589C282.951 195.673 293.232 195.238 299.109 198.635L507.127 318.679C513.004 322.077 512.267 328.001 505.486 331.934L363.838 413.654C357.04 417.57 346.76 418.005 340.883 414.607Z" fill="url(#paint3_linear_21_2397)"/>
<path d="M505.503 328.385L363.855 410.105C357.057 414.021 346.777 414.456 340.9 411.059L132.864 290.998C130.939 289.877 129.733 288.504 129.198 286.998C128.277 289.776 129.449 292.588 132.864 294.563L340.883 414.607C346.76 418.004 357.04 417.569 363.838 413.653L505.486 331.933C510.057 329.289 511.865 325.758 510.794 322.678C510.124 324.703 508.349 326.712 505.486 328.368L505.503 328.385Z" fill="white"/>
<path d="M221.336 254.815L211.926 249.376C211.173 248.941 211.273 248.171 212.144 247.669L223.261 241.26C224.132 240.757 225.455 240.707 226.208 241.142L235.618 246.581C236.371 247.017 236.271 247.786 235.4 248.288L224.283 254.698C223.412 255.2 222.089 255.25 221.336 254.815Z" fill="#4D21A3"/>
<path d="M235.869 263.2L226.459 257.761C225.706 257.326 225.806 256.556 226.677 256.054L237.795 249.644C238.665 249.142 239.988 249.092 240.741 249.527L250.151 254.966C250.905 255.401 250.804 256.171 249.933 256.673L238.816 263.083C237.945 263.585 236.623 263.635 235.869 263.2Z" fill="#4D21A3"/>
<path d="M250.402 271.601L240.993 266.162C240.239 265.727 240.34 264.957 241.21 264.455L252.328 258.046C253.198 257.544 254.521 257.493 255.275 257.928L264.684 263.368C265.438 263.803 265.337 264.573 264.467 265.075L253.349 271.484C252.478 271.986 251.156 272.037 250.402 271.601Z" fill="#4D21A3"/>
<path d="M270.511 264.672L261.101 259.233C260.348 258.798 260.448 258.028 261.319 257.526L270.645 252.137C271.516 251.635 272.838 251.585 273.592 252.02L283.001 257.459C283.755 257.894 283.654 258.664 282.784 259.166L273.458 264.555C272.587 265.057 271.264 265.107 270.511 264.672Z" fill="#4D21A3"/>
<path d="M285.044 273.057L275.634 267.618C274.881 267.183 274.981 266.413 275.852 265.911L285.178 260.522C286.049 260.02 287.371 259.97 288.125 260.405L297.535 265.844C298.288 266.279 298.188 267.049 297.317 267.551L287.991 272.94C287.12 273.442 285.798 273.492 285.044 273.057Z" fill="#4D21A3"/>
<path d="M299.577 281.442L290.168 276.003C289.414 275.568 289.515 274.798 290.385 274.296L299.711 268.907C300.582 268.405 301.905 268.355 302.658 268.79L312.068 274.229C312.821 274.664 312.721 275.434 311.85 275.936L302.524 281.325C301.653 281.827 300.331 281.877 299.577 281.442Z" fill="#4D21A3"/>
<path d="M314.127 289.827L304.717 284.388C303.964 283.952 304.064 283.183 304.935 282.681L314.261 277.292C315.132 276.79 316.455 276.739 317.208 277.175L326.618 282.614C327.371 283.049 327.271 283.819 326.4 284.321L317.074 289.71C316.203 290.212 314.881 290.262 314.127 289.827Z" fill="#4D21A3"/>
<path d="M328.66 298.228L319.251 292.789C318.497 292.354 318.598 291.584 319.468 291.082L328.794 285.693C329.665 285.191 330.988 285.141 331.741 285.576L341.151 291.015C341.904 291.45 341.804 292.22 340.933 292.722L331.607 298.111C330.737 298.613 329.414 298.663 328.66 298.228Z" fill="#4D21A3"/>
<path d="M343.193 306.612L333.784 301.173C333.03 300.738 333.131 299.968 334.001 299.466L343.327 294.077C344.198 293.575 345.521 293.525 346.274 293.96L355.684 299.399C356.437 299.834 356.337 300.604 355.466 301.106L346.14 306.495C345.27 306.997 343.947 307.047 343.193 306.612Z" fill="#4D21A3"/>
<path d="M357.727 314.997L348.317 309.558C347.563 309.122 347.664 308.353 348.535 307.85L357.861 302.462C358.731 301.96 360.054 301.909 360.807 302.345L370.217 307.784C370.971 308.219 370.87 308.989 370 309.491L360.673 314.879C359.803 315.381 358.48 315.432 357.727 314.997Z" fill="#4D21A3"/>
<path d="M372.26 323.381L362.85 317.942C362.097 317.507 362.197 316.737 363.068 316.235L372.394 310.846C373.264 310.344 374.587 310.294 375.341 310.729L384.75 316.168C385.504 316.603 385.403 317.373 384.533 317.875L375.207 323.264C374.336 323.766 373.013 323.816 372.26 323.381Z" fill="#4D21A3"/>
<path d="M386.793 331.783L377.383 326.344C376.63 325.909 376.73 325.139 377.601 324.637L386.927 319.248C387.798 318.746 389.12 318.696 389.874 319.131L399.283 324.57C400.037 325.005 399.936 325.775 399.066 326.277L389.74 331.666C388.869 332.168 387.546 332.218 386.793 331.783Z" fill="#4D21A3"/>
<path d="M401.326 340.166L391.916 334.727C391.163 334.292 391.263 333.522 392.134 333.02L401.46 327.632C402.331 327.13 403.653 327.079 404.407 327.514L413.817 332.953C414.57 333.389 414.47 334.158 413.599 334.661L404.273 340.049C403.402 340.551 402.08 340.602 401.326 340.166Z" fill="#4D21A3"/>
<path d="M291.926 260.69L282.516 255.251C281.762 254.816 281.863 254.046 282.734 253.544L292.06 248.155C292.93 247.653 294.253 247.603 295.006 248.038L304.416 253.477C305.17 253.912 305.069 254.682 304.198 255.184L294.872 260.573C294.002 261.075 292.679 261.125 291.926 260.69Z" fill="#4D21A3"/>
<path d="M277.175 252.188L267.765 246.749C267.012 246.314 267.112 245.544 267.983 245.042L277.309 239.653C278.179 239.151 279.502 239.101 280.256 239.536L289.665 244.975C290.419 245.41 290.318 246.18 289.448 246.682L280.122 252.071C279.251 252.573 277.928 252.623 277.175 252.188Z" fill="#4D21A3"/>
<path d="M262.407 243.653L242.131 231.955C241.378 231.52 241.478 230.75 242.349 230.248L251.675 224.859C252.545 224.357 253.868 224.307 254.622 224.742L274.898 236.44C275.651 236.875 275.551 237.645 274.68 238.147L265.354 243.536C264.483 244.038 263.161 244.088 262.407 243.653Z" fill="#4D21A3"/>
<path d="M272.721 233.294L256.262 223.805C255.509 223.369 255.609 222.6 256.48 222.098L265.806 216.709C266.677 216.207 267.999 216.156 268.753 216.592L285.212 226.081C285.965 226.516 285.865 227.286 284.994 227.788L275.668 233.177C274.797 233.679 273.474 233.729 272.721 233.294Z" fill="#4D21A3"/>
<path d="M306.459 269.091L297.049 263.652C296.296 263.217 296.396 262.447 297.267 261.945L306.593 256.556C307.463 256.054 308.786 256.004 309.539 256.439L318.949 261.878C319.703 262.313 319.602 263.083 318.732 263.585L309.406 268.974C308.535 269.476 307.212 269.526 306.459 269.091Z" fill="#4D21A3"/>
<path d="M321.009 277.475L311.599 272.036C310.845 271.601 310.946 270.831 311.817 270.329L321.143 264.94C322.013 264.438 323.336 264.388 324.089 264.823L333.499 270.262C334.253 270.697 334.152 271.467 333.281 271.969L323.955 277.358C323.085 277.86 321.762 277.91 321.009 277.475Z" fill="#4D21A3"/>
<path d="M335.542 285.86L326.132 280.421C325.379 279.986 325.479 279.216 326.35 278.714L335.676 273.325C336.546 272.823 337.869 272.773 338.623 273.208L348.032 278.647C348.786 279.082 348.685 279.852 347.815 280.354L338.489 285.743C337.618 286.245 336.295 286.295 335.542 285.86Z" fill="#4D21A3"/>
<path d="M350.075 294.245L340.665 288.806C339.912 288.37 340.012 287.601 340.883 287.099L350.209 281.71C351.08 281.208 352.402 281.157 353.156 281.593L362.566 287.032C363.319 287.467 363.219 288.237 362.348 288.739L353.022 294.127C352.151 294.63 350.828 294.68 350.075 294.245Z" fill="#4D21A3"/>
<path d="M364.608 302.646L355.198 297.207C354.445 296.772 354.545 296.002 355.416 295.5L364.742 290.111C365.613 289.609 366.935 289.559 367.689 289.994L377.099 295.433C377.852 295.868 377.752 296.638 376.881 297.14L367.555 302.529C366.684 303.031 365.362 303.081 364.608 302.646Z" fill="#4D21A3"/>
<path d="M379.141 311.03L369.732 305.591C368.978 305.156 369.079 304.386 369.949 303.884L379.275 298.495C380.146 297.993 381.469 297.943 382.222 298.378L391.632 303.817C392.385 304.252 392.285 305.022 391.414 305.524L382.088 310.913C381.218 311.415 379.895 311.465 379.141 311.03Z" fill="#4D21A3"/>
<path d="M393.675 319.415L384.265 313.975C383.511 313.54 383.612 312.771 384.482 312.268L393.808 306.88C394.679 306.378 396.002 306.327 396.755 306.762L406.165 312.202C406.918 312.637 406.818 313.407 405.947 313.909L396.621 319.297C395.751 319.799 394.428 319.85 393.675 319.415Z" fill="#4D21A3"/>
<path d="M408.208 327.799L398.798 322.36C398.045 321.925 398.145 321.155 399.016 320.653L408.342 315.264C409.212 314.762 410.535 314.712 411.289 315.147L420.698 320.586C421.452 321.021 421.351 321.791 420.481 322.293L411.155 327.682C410.284 328.184 408.961 328.234 408.208 327.799Z" fill="#4D21A3"/>
<path d="M422.741 336.184L413.331 330.745C412.578 330.31 412.678 329.54 413.549 329.038L422.875 323.649C423.745 323.147 425.068 323.097 425.822 323.532L435.231 328.971C435.985 329.406 435.884 330.176 435.014 330.678L425.688 336.067C424.817 336.569 423.494 336.619 422.741 336.184Z" fill="#4D21A3"/>
<path d="M448.593 351.095L428.049 339.246C427.295 338.811 427.396 338.041 428.266 337.539L437.592 332.15C438.463 331.648 439.786 331.598 440.539 332.033L461.083 343.882C461.836 344.317 461.736 345.087 460.865 345.589L451.539 350.978C450.669 351.48 449.346 351.53 448.593 351.095Z" fill="#4D21A3"/>
<path d="M476.889 334.778L459.559 324.77C458.806 324.335 458.906 323.565 459.777 323.063L469.103 317.675C469.974 317.172 471.296 317.122 472.05 317.557L489.379 327.565C490.132 328 490.032 328.77 489.161 329.272L479.835 334.661C478.965 335.163 477.642 335.213 476.889 334.778Z" fill="#4D21A3"/>
<path d="M331.925 267.451L322.516 262.012C321.762 261.576 321.863 260.807 322.733 260.305L332.059 254.916C332.93 254.414 334.253 254.363 335.006 254.799L344.416 260.238C345.169 260.673 345.069 261.443 344.198 261.945L334.872 267.334C334.001 267.836 332.679 267.886 331.925 267.451Z" fill="#4D21A3"/>
<path d="M317.024 258.849L307.614 253.41C306.861 252.975 306.961 252.205 307.832 251.703L317.158 246.314C318.028 245.812 319.351 245.762 320.105 246.197L329.514 251.636C330.268 252.071 330.167 252.841 329.297 253.343L319.971 258.732C319.1 259.234 317.777 259.284 317.024 258.849Z" fill="#4D21A3"/>
<path d="M302.122 250.247L292.713 244.808C291.959 244.372 292.06 243.603 292.93 243.1L302.256 237.712C303.127 237.21 304.45 237.159 305.203 237.595L314.613 243.034C315.366 243.469 315.266 244.239 314.395 244.741L305.069 250.129C304.198 250.632 302.876 250.682 302.122 250.247Z" fill="#4D21A3"/>
<path d="M287.221 241.662L277.811 236.223C277.058 235.787 277.158 235.018 278.029 234.516L287.355 229.127C288.225 228.625 289.548 228.574 290.301 229.01L299.711 234.449C300.465 234.884 300.364 235.654 299.494 236.156L290.168 241.544C289.297 242.047 287.974 242.097 287.221 241.662Z" fill="#4D21A3"/>
<path d="M346.458 275.835L337.049 270.396C336.295 269.961 336.396 269.191 337.266 268.689L346.592 263.301C347.463 262.798 348.786 262.748 349.539 263.183L358.949 268.622C359.702 269.058 359.602 269.827 358.731 270.329L349.405 275.718C348.535 276.22 347.212 276.271 346.458 275.835Z" fill="#4D21A3"/>
<path d="M360.992 284.22L351.582 278.781C350.829 278.346 350.929 277.576 351.8 277.074L361.126 271.685C361.996 271.183 363.319 271.133 364.072 271.568L373.482 277.007C374.236 277.442 374.135 278.212 373.265 278.714L363.938 284.103C363.068 284.605 361.745 284.655 360.992 284.22Z" fill="#4D21A3"/>
<path d="M375.525 292.604L366.115 287.165C365.362 286.73 365.462 285.96 366.333 285.458L375.659 280.069C376.529 279.567 377.852 279.517 378.606 279.952L388.015 285.391C388.769 285.826 388.668 286.596 387.798 287.098L378.472 292.487C377.601 292.989 376.278 293.039 375.525 292.604Z" fill="#4D21A3"/>
<path d="M390.058 300.989L380.648 295.55C379.895 295.115 379.995 294.345 380.866 293.843L390.192 288.454C391.063 287.952 392.385 287.902 393.139 288.337L402.548 293.776C403.302 294.211 403.201 294.981 402.331 295.483L393.005 300.872C392.134 301.374 390.811 301.424 390.058 300.989Z" fill="#4D21A3"/>
<path d="M404.591 309.39L395.181 303.951C394.428 303.516 394.528 302.746 395.399 302.244L404.725 296.855C405.596 296.353 406.919 296.303 407.672 296.738L417.082 302.177C417.835 302.612 417.735 303.382 416.864 303.884L407.538 309.273C406.667 309.775 405.345 309.825 404.591 309.39Z" fill="#4D21A3"/>
<path d="M419.124 317.775L409.715 312.336C408.961 311.901 409.062 311.131 409.932 310.629L419.258 305.24C420.129 304.738 421.452 304.688 422.205 305.123L431.615 310.562C432.368 310.997 432.268 311.767 431.397 312.269L422.071 317.658C421.2 318.16 419.878 318.21 419.124 317.775Z" fill="#4D21A3"/>
<path d="M433.674 326.16L424.264 320.721C423.511 320.285 423.611 319.516 424.482 319.014L433.808 313.625C434.679 313.123 436.002 313.072 436.755 313.508L446.165 318.947C446.918 319.382 446.818 320.152 445.947 320.654L436.621 326.043C435.75 326.545 434.428 326.595 433.674 326.16Z" fill="#4D21A3"/>
<path d="M448.207 334.543L438.798 329.104C438.044 328.669 438.145 327.899 439.015 327.397L448.341 322.009C449.212 321.506 450.535 321.456 451.288 321.891L460.698 327.33C461.451 327.766 461.351 328.535 460.48 329.037L451.154 334.426C450.284 334.928 448.961 334.979 448.207 334.543Z" fill="#4D21A3"/>
<path d="M462.741 342.945L453.331 337.506C452.577 337.071 452.678 336.301 453.549 335.799L462.875 330.41C463.745 329.908 465.068 329.858 465.821 330.293L475.231 335.732C475.985 336.167 475.884 336.937 475.013 337.439L465.687 342.828C464.817 343.33 463.494 343.38 462.741 342.945Z" fill="#4D21A3"/>
<path d="M324.274 246.699L314.864 241.26C314.11 240.825 314.211 240.055 315.082 239.553L324.408 234.164C325.278 233.662 326.601 233.612 327.354 234.047L336.764 239.486C337.518 239.921 337.417 240.691 336.546 241.193L327.22 246.582C326.35 247.084 325.027 247.134 324.274 246.699Z" fill="#4D21A3"/>
<path d="M309.807 238.348L300.398 232.909C299.644 232.474 299.745 231.704 300.615 231.202L309.941 225.813C310.812 225.311 312.135 225.261 312.888 225.696L322.298 231.135C323.051 231.57 322.951 232.34 322.08 232.842L312.754 238.231C311.884 238.733 310.561 238.783 309.807 238.348Z" fill="#4D21A3"/>
<path d="M295.341 229.997L285.931 224.558C285.178 224.122 285.278 223.353 286.149 222.851L295.475 217.462C296.346 216.96 297.668 216.909 298.422 217.344L307.832 222.784C308.585 223.219 308.485 223.989 307.614 224.491L298.288 229.879C297.417 230.382 296.095 230.432 295.341 229.997Z" fill="#4D21A3"/>
<path d="M280.875 221.663L271.465 216.224C270.712 215.788 270.812 215.019 271.683 214.517L281.009 209.128C281.88 208.626 283.202 208.575 283.956 209.011L293.365 214.45C294.119 214.885 294.018 215.655 293.148 216.157L283.822 221.545C282.951 222.048 281.628 222.098 280.875 221.663Z" fill="#4D21A3"/>
<path d="M295.743 213.077L286.333 207.638C285.58 207.203 285.68 206.433 286.551 205.931L289.632 204.157C290.502 203.655 291.825 203.605 292.579 204.04L301.988 209.479C302.742 209.914 302.641 210.684 301.771 211.186L298.69 212.96C297.819 213.462 296.496 213.512 295.743 213.077Z" fill="#4D21A3"/>
<path d="M314.63 223.972L305.22 218.533C304.466 218.097 304.567 217.328 305.437 216.825L308.518 215.051C309.389 214.549 310.712 214.499 311.465 214.934L320.875 220.373C321.628 220.809 321.528 221.578 320.657 222.08L317.576 223.854C316.706 224.356 315.383 224.407 314.63 223.972Z" fill="#4D21A3"/>
<path d="M329.029 232.272L319.619 226.833C318.866 226.398 318.966 225.628 319.837 225.126L322.917 223.352C323.788 222.85 325.111 222.8 325.864 223.235L335.274 228.674C336.027 229.109 335.927 229.879 335.056 230.381L331.975 232.155C331.105 232.657 329.782 232.707 329.029 232.272Z" fill="#4D21A3"/>
<path d="M343.428 240.591L334.018 235.152C333.265 234.717 333.365 233.947 334.236 233.445L337.317 231.671C338.187 231.169 339.51 231.118 340.263 231.553L349.673 236.993C350.427 237.428 350.326 238.198 349.456 238.7L346.375 240.474C345.504 240.976 344.181 241.026 343.428 240.591Z" fill="#4D21A3"/>
<path d="M357.827 248.908L348.417 243.469C347.664 243.034 347.764 242.264 348.635 241.762L351.716 239.988C352.586 239.486 353.909 239.436 354.663 239.871L364.072 245.31C364.826 245.745 364.725 246.515 363.855 247.017L360.774 248.791C359.903 249.293 358.581 249.343 357.827 248.908Z" fill="#4D21A3"/>
<path d="M438.245 295.299L428.835 289.86C428.082 289.425 428.182 288.655 429.053 288.153L432.134 286.379C433.004 285.877 434.327 285.826 435.081 286.261L444.49 291.701C445.244 292.136 445.143 292.906 444.273 293.408L441.192 295.182C440.321 295.684 438.999 295.734 438.245 295.299Z" fill="#4D21A3"/>
<path d="M452.644 303.616L443.235 298.177C442.481 297.742 442.582 296.972 443.452 296.47L446.533 294.696C447.404 294.194 448.726 294.144 449.48 294.579L458.89 300.018C459.643 300.453 459.543 301.223 458.672 301.725L455.591 303.499C454.721 304.001 453.398 304.051 452.644 303.616Z" fill="#4D21A3"/>
<path d="M467.044 311.934L457.634 306.495C456.88 306.06 456.981 305.29 457.851 304.788L460.932 303.014C461.803 302.512 463.126 302.462 463.879 302.897L473.289 308.336C474.042 308.771 473.942 309.541 473.071 310.043L469.99 311.817C469.12 312.319 467.797 312.37 467.044 311.934Z" fill="#4D21A3"/>
<path d="M481.443 320.235L472.033 314.796C471.28 314.361 471.38 313.591 472.251 313.089L475.331 311.315C476.202 310.813 477.525 310.763 478.278 311.198L487.688 316.637C488.441 317.072 488.341 317.842 487.47 318.344L484.39 320.118C483.519 320.62 482.196 320.67 481.443 320.235Z" fill="#4D21A3"/>
<path d="M338.807 255.084L329.397 249.644C328.644 249.209 328.744 248.439 329.615 247.937L338.941 242.549C339.811 242.046 341.134 241.996 341.888 242.431L351.297 247.87C352.051 248.306 351.95 249.075 351.08 249.578L341.754 254.966C340.883 255.468 339.56 255.519 338.807 255.084Z" fill="#4D21A3"/>
<path d="M353.34 263.468L343.93 258.029C343.177 257.594 343.277 256.824 344.148 256.322L353.474 250.933C354.345 250.431 355.667 250.381 356.421 250.816L365.83 256.255C366.584 256.69 366.483 257.46 365.613 257.962L356.287 263.351C355.416 263.853 354.093 263.903 353.34 263.468Z" fill="#4D21A3"/>
<path d="M367.873 271.869L358.463 266.43C357.71 265.994 357.81 265.225 358.681 264.723L368.007 259.334C368.878 258.832 370.2 258.781 370.954 259.217L380.364 264.656C381.117 265.091 381.017 265.861 380.146 266.363L370.82 271.752C369.949 272.254 368.627 272.304 367.873 271.869Z" fill="#4D21A3"/>
<path d="M382.406 280.253L372.997 274.814C372.243 274.379 372.344 273.609 373.214 273.107L382.54 267.718C383.411 267.216 384.734 267.166 385.487 267.601L394.897 273.04C395.65 273.476 395.55 274.245 394.679 274.747L385.353 280.136C384.482 280.638 383.16 280.689 382.406 280.253Z" fill="#4D21A3"/>
<path d="M396.939 288.638L387.53 283.199C386.776 282.764 386.877 281.994 387.747 281.492L397.073 276.103C397.944 275.601 399.267 275.551 400.02 275.986L409.43 281.425C410.183 281.86 410.083 282.63 409.212 283.132L399.886 288.521C399.016 289.023 397.693 289.073 396.939 288.638Z" fill="#4D21A3"/>
<path d="M411.473 297.023L402.063 291.584C401.309 291.149 401.41 290.379 402.281 289.877L411.607 284.488C412.477 283.986 413.8 283.936 414.553 284.371L423.963 289.81C424.717 290.245 424.616 291.015 423.745 291.517L414.419 296.906C413.549 297.408 412.226 297.458 411.473 297.023Z" fill="#4D21A3"/>
<path d="M426.006 305.407L416.596 299.968C415.843 299.533 415.943 298.763 416.814 298.261L426.14 292.872C427.01 292.37 428.333 292.32 429.087 292.755L438.496 298.194C439.25 298.629 439.149 299.399 438.279 299.901L428.953 305.29C428.082 305.792 426.759 305.842 426.006 305.407Z" fill="#4D21A3"/>
<path d="M440.556 313.808L431.146 308.369C430.392 307.934 430.493 307.164 431.364 306.662L440.69 301.273C441.56 300.771 442.883 300.721 443.636 301.156L453.046 306.595C453.8 307.03 453.699 307.8 452.828 308.302L443.502 313.691C442.632 314.193 441.309 314.243 440.556 313.808Z" fill="#4D21A3"/>
<path d="M455.089 322.193L445.679 316.754C444.926 316.319 445.026 315.549 445.897 315.047L455.223 309.658C456.093 309.156 457.416 309.106 458.17 309.541L467.579 314.98C468.333 315.415 468.232 316.185 467.362 316.687L458.036 322.076C457.165 322.578 455.842 322.628 455.089 322.193Z" fill="#4D21A3"/>
<path d="M255.693 256.121L227.966 240.122C227.213 239.687 227.313 238.917 228.184 238.415L237.51 233.026C238.381 232.524 239.703 232.474 240.457 232.909L268.184 248.908C268.937 249.343 268.837 250.113 267.966 250.615L258.64 256.004C257.769 256.506 256.447 256.556 255.693 256.121Z" fill="#4D21A3"/>
<path d="M434.277 359.179L406.55 343.18C405.797 342.744 405.897 341.975 406.768 341.473L416.094 336.084C416.964 335.582 418.287 335.531 419.041 335.967L446.767 351.966C447.521 352.401 447.42 353.171 446.55 353.673L437.224 359.062C436.353 359.564 435.03 359.614 434.277 359.179Z" fill="#4D21A3"/>
<path d="M376.144 344.15L366.735 338.711C365.981 338.276 366.082 337.506 366.952 337.004L378.07 330.594C378.94 330.092 380.263 330.042 381.017 330.477L390.426 335.916C391.18 336.352 391.079 337.121 390.209 337.623L379.091 344.033C378.22 344.535 376.898 344.585 376.144 344.15Z" fill="#4D21A3"/>
<path d="M270.578 283.233L255.526 274.547C254.772 274.112 254.873 273.342 255.743 272.84L266.861 266.43C267.732 265.928 269.054 265.878 269.808 266.313L284.86 274.999C285.613 275.434 285.513 276.204 284.642 276.706L273.525 283.116C272.654 283.618 271.331 283.668 270.578 283.233Z" fill="#4D21A3"/>
<path d="M362.13 336.067L347.078 327.381C346.324 326.946 346.425 326.176 347.296 325.674L358.413 319.264C359.284 318.762 360.607 318.712 361.36 319.147L376.412 327.833C377.166 328.268 377.065 329.038 376.195 329.54L365.077 335.95C364.206 336.452 362.884 336.502 362.13 336.067Z" fill="#4D21A3"/>
<path d="M291.557 295.349L276.505 286.663C275.752 286.228 275.852 285.458 276.723 284.956L287.84 278.547C288.711 278.045 290.034 277.994 290.787 278.429L305.839 287.115C306.593 287.55 306.492 288.32 305.622 288.822L294.504 295.232C293.633 295.734 292.311 295.784 291.557 295.349Z" fill="#4D21A3"/>
<path d="M290.871 278.479L356.32 316.252C357.141 316.72 357.141 317.473 356.32 317.942L344.985 324.486C344.165 324.954 342.859 324.954 342.038 324.486L276.589 286.713L290.854 278.479H290.871Z" fill="#4D21A3"/>
<path d="M416.763 359.363L427.245 365.421C427.864 365.772 427.781 366.408 427.077 366.81L422.54 369.438C421.82 369.856 420.748 369.889 420.129 369.538L409.648 363.48C409.028 363.128 409.112 362.492 409.815 362.091L414.352 359.463C415.072 359.045 416.144 359.011 416.763 359.363Z" fill="#4D21A3"/>
<path d="M402.113 350.912L412.594 356.97C413.214 357.321 413.13 357.957 412.427 358.359L407.89 360.986C407.17 361.405 406.098 361.438 405.478 361.087L394.997 355.029C394.378 354.677 394.461 354.041 395.165 353.639L399.702 351.012C400.422 350.594 401.494 350.56 402.113 350.912Z" fill="#4D21A3"/>
<path d="M387.58 342.51L398.061 348.568C398.681 348.92 398.597 349.556 397.894 349.958L393.356 352.585C392.636 353.003 391.565 353.037 390.945 352.685L380.464 346.627C379.845 346.276 379.928 345.64 380.632 345.238L385.169 342.611C385.889 342.192 386.961 342.159 387.58 342.51Z" fill="#4D21A3"/>
<path d="M410.133 346.276L420.614 352.334C421.234 352.686 421.15 353.321 420.447 353.723L415.91 356.351C415.19 356.769 414.118 356.802 413.499 356.451L403.017 350.393C402.398 350.041 402.481 349.405 403.185 349.004L407.722 346.376C408.442 345.958 409.514 345.924 410.133 346.276Z" fill="#4D21A3"/>
<path d="M380.916 93.0329L357.275 79.3767L358.279 74.2891L381.921 87.9453L380.916 93.0329Z" fill="#008EFF"/>
<path d="M378.354 104.848L354.713 91.2087L355.717 86.1211L379.359 99.7606L378.354 104.848Z" fill="white"/>
<path d="M494.385 268.84L470.744 255.201L471.748 250.113L495.39 263.753L494.385 268.84Z" fill="#008EFF"/>
<path d="M373.231 128.496L349.589 114.856L350.594 109.769L374.236 123.408L373.231 128.496Z" fill="#008EFF"/>
<path d="M473.975 195.003L386.525 144.529L387.647 138.855L475.097 189.313L473.975 195.003Z" fill="#008EFF"/>
<path d="M442.649 204.592L381.603 169.364L382.724 163.674L443.77 198.902L442.649 204.592Z" fill="#008EFF"/>
<path d="M436.872 187.421L384.064 156.946L385.186 151.256L437.994 181.748L436.872 187.421Z" fill="white"/>
<path d="M425.671 138.654C424.834 140.495 422.707 141.148 420.916 140.11C419.124 139.072 418.371 136.763 419.208 134.922C420.045 133.081 422.172 132.428 423.963 133.466C425.755 134.504 426.508 136.813 425.671 138.654Z" fill="#962595"/>
<path d="M437.04 145.231C436.203 147.072 434.076 147.725 432.285 146.687C430.51 145.666 429.74 143.34 430.577 141.499C431.414 139.658 433.54 139.006 435.332 140.043C437.107 141.064 437.877 143.39 437.04 145.231Z" fill="white"/>
<path d="M448.408 151.792C447.571 153.633 445.445 154.285 443.653 153.248C441.862 152.21 441.108 149.901 441.945 148.06C442.783 146.219 444.909 145.566 446.701 146.604C448.492 147.641 449.245 149.951 448.408 151.792Z" fill="#008EFF"/>
<path d="M459.794 158.352C458.957 160.193 456.83 160.846 455.039 159.808C453.264 158.787 452.494 156.461 453.331 154.62C454.168 152.779 456.294 152.127 458.086 153.164C459.877 154.202 460.631 156.511 459.794 158.352Z" fill="#962595"/>
<path d="M471.514 207.421L445.11 192.174L446.232 186.484L472.636 201.73L471.514 207.421Z" fill="#962595"/>
<path d="M291.021 361.672L222.123 321.908C220.432 320.938 220.649 319.231 222.592 318.11L258.925 297.14C260.867 296.019 263.814 295.901 265.488 296.872L334.387 336.636C336.078 337.606 335.86 339.313 333.918 340.435L297.585 361.404C295.643 362.526 292.696 362.643 291.021 361.672Z" fill="white"/>
<path opacity="0.5" d="M344.968 399.227L158.314 291.634L212.696 260.238L399.367 367.831L344.968 399.227Z" fill="#173D7A"/>
<path d="M344.968 374.459C344.466 374.459 343.981 374.325 343.528 374.074L156.874 266.481C155.987 265.962 155.434 265.025 155.434 263.988C155.434 262.95 155.987 262.013 156.874 261.494L211.273 230.098C212.161 229.579 213.249 229.579 214.153 230.098L400.807 337.691C401.695 338.21 402.247 339.147 402.247 340.185C402.247 341.222 401.695 342.159 400.807 342.678L346.408 374.074C345.956 374.325 345.471 374.459 344.968 374.459ZM164.057 263.988L344.952 368.267L393.591 340.201L212.696 235.922L164.057 263.988Z" fill="white"/>
<path d="M317.057 327.482C315.785 327.482 314.747 326.445 314.747 325.173V252.34C314.747 251.068 315.785 250.03 317.057 250.03C318.33 250.03 319.368 251.068 319.368 252.34V325.173C319.368 326.445 318.33 327.482 317.057 327.482Z" fill="#6D32B1"/>
<path d="M305.655 244.089V293.291C305.655 294.982 306.777 296.655 308.987 297.944C313.441 300.521 320.657 300.521 325.111 297.944C327.338 296.655 328.443 294.982 328.443 293.291V244.089H305.638H305.655Z" fill="url(#paint4_radial_21_2397)"/>
<path d="M305.655 252.19V268.841C312.352 271.904 321.779 271.904 328.46 268.841V252.19C321.762 249.127 312.336 249.127 305.655 252.19Z" fill="#6D32B1"/>
<path d="M335.542 175.523H298.573V252.691C298.573 255.419 300.381 258.147 303.981 260.239C311.197 264.406 322.901 264.406 330.117 260.239C333.734 258.164 335.525 255.419 335.525 252.691V175.523H335.542Z" fill="url(#paint5_radial_21_2397)"/>
<path d="M313.859 285.811C313.859 288.07 312.269 288.991 310.31 287.853C308.351 286.715 306.76 283.97 306.76 281.711C306.76 279.451 308.351 278.531 310.31 279.669C312.269 280.807 313.859 283.552 313.859 285.811Z" fill="#D4ECFF"/>
<path d="M229.485 280.959C228.212 280.959 227.174 279.921 227.174 278.65V205.816C227.174 204.544 228.212 203.507 229.485 203.507C230.757 203.507 231.795 204.544 231.795 205.816V278.65C231.795 279.921 230.757 280.959 229.485 280.959Z" fill="#6D32B1"/>
<path d="M218.083 197.565V246.768C218.083 248.458 219.205 250.132 221.415 251.42C225.868 253.998 233.085 253.998 237.538 251.42C239.765 250.132 240.87 248.458 240.87 246.768V197.565H218.066H218.083Z" fill="url(#paint6_radial_21_2397)"/>
<path d="M218.083 205.666V222.318C224.78 225.381 234.207 225.381 240.887 222.318V205.666C234.19 202.603 224.763 202.603 218.083 205.666Z" fill="#6D32B1"/>
<path d="M247.97 129H211V206.168C211 208.896 212.809 211.624 216.408 213.715C223.625 217.883 235.328 217.883 242.545 213.715C246.161 211.64 247.953 208.896 247.953 206.168V129H247.97Z" fill="url(#paint7_radial_21_2397)"/>
<path d="M226.287 239.287C226.287 241.547 224.696 242.467 222.737 241.329C220.778 240.191 219.188 237.447 219.188 235.187C219.188 232.928 220.778 232.007 222.737 233.146C224.696 234.284 226.287 237.028 226.287 239.287Z" fill="#D4ECFF"/>
<path d="M174.538 78.2562L223.596 50.04C223.596 50.04 221.755 78.206 221.755 78.2562C221.755 78.3064 193.576 86.9754 193.576 86.9754L174.538 78.2562Z" fill="#740F98"/>
<path d="M437.391 240.657C437.391 220.859 423.478 196.777 406.332 186.869C402.599 184.71 399.032 183.455 395.717 182.936C390.778 156.946 372.678 129.349 351.113 116.898C344.617 113.149 338.455 111.158 332.863 110.722C329.916 79.2261 307.999 43.4287 281.394 28.0822C267.497 20.0659 254.889 19.1119 245.58 24.0322L245.128 24.2665C244.894 24.4004 244.659 24.5343 244.425 24.6682L215.493 41.7552L225.103 49.3531C216.48 53.1186 211.022 62.7918 211.022 77.1007C211.022 103.476 229.54 135.541 252.395 148.729L393.44 249.41L397.793 278.748L428.266 260.807L428.35 260.757L428.534 260.656C434.026 257.343 437.408 250.464 437.408 240.691L437.391 240.657Z" fill="url(#paint8_radial_21_2397)"/>
<path d="M212.429 65.4699L278.832 26.6936C265.94 19.9659 254.287 19.4137 245.564 24.0327L245.111 24.267C244.877 24.4009 244.643 24.5347 244.408 24.6686L215.476 41.7556L225.087 49.3536C219.059 51.9811 214.588 57.5205 212.429 65.4867V65.4699Z" fill="#740F98"/>
<path d="M335.056 179.556L383.511 151.139C375.207 136.78 363.754 124.228 351.096 116.915C349.422 115.944 347.765 115.107 346.14 114.371L284.508 150.403L335.073 179.573L335.056 179.556Z" fill="#740F98"/>
<path d="M229.122 44.9186L250.72 57.3866L290.268 34.1074C287.388 31.8649 284.408 29.8399 281.377 28.0826C276.589 25.3213 271.951 23.4134 267.564 22.2754L229.138 44.9186H229.122Z" fill="#B9E2FF"/>
<path d="M378.17 142.771L339.493 165.549L352.938 180.544L388.049 159.825C385.269 153.884 381.938 148.144 378.17 142.771Z" fill="#B9E2FF"/>
<path d="M375.943 204.76C372.21 202.601 368.643 201.346 365.328 200.827C360.389 174.836 342.289 147.239 320.724 134.788C314.244 131.039 308.066 129.048 302.474 128.613C299.527 97.1164 277.61 61.319 251.005 45.9558C222.391 29.4378 199.201 42.8262 199.201 75.8455C199.201 76.9668 199.235 78.0881 199.285 79.2261C178.356 69.5195 162.015 80.4478 162.015 105.233C162.015 131.608 180.533 163.674 203.387 176.861L375.96 276.455C393.122 286.362 407.036 278.329 407.036 258.531C407.036 238.733 393.122 214.65 375.96 204.743L375.943 204.76Z" fill="url(#paint9_linear_21_2397)"/>
<path d="M199.268 79.2438C199.218 78.1057 199.185 76.9845 199.185 75.8632C199.185 75.813 199.185 75.7628 199.185 75.7293C187.632 71.2442 177.686 73.1855 171.458 80.3985C178.222 74.8256 188.084 74.0725 199.268 79.2438Z" fill="white"/>
<path d="M378.472 202.3C374.738 200.141 371.172 198.886 367.856 198.367C362.917 172.377 344.818 144.78 323.252 132.329C316.773 128.58 310.594 126.589 305.002 126.153C302.055 94.6571 280.138 58.8597 253.533 43.4965C235.702 33.2041 219.98 34.5262 210.671 44.9692C220.164 36.8525 234.714 36.5512 251.022 45.9566C277.627 61.3031 299.544 97.1005 302.491 128.597C308.083 129.032 314.261 131.024 320.741 134.772C342.306 147.224 360.406 174.82 365.345 200.811C368.66 201.33 372.226 202.585 375.96 204.744C393.122 214.651 407.036 238.717 407.036 258.532C407.036 265.678 405.211 271.268 402.08 275.05C406.734 271.468 409.564 264.975 409.564 256.072C409.564 236.273 395.65 212.191 378.488 202.284L378.472 202.3Z" fill="white"/>
<path d="M195.618 87.1087L208.594 93.1168L207.941 78.8413C207.891 77.8372 207.858 76.8498 207.858 75.8624C207.858 63.1099 211.709 53.8719 218.691 49.8386C225.672 45.8053 235.618 47.094 246.652 53.4702C270.394 67.1767 291.122 100.531 293.818 129.416L294.504 136.696L301.787 137.248C306.275 137.6 311.18 139.29 316.371 142.286C335.24 153.164 352.235 178.468 356.789 202.434L357.928 208.425L363.955 209.362C366.366 209.747 368.928 210.701 371.573 212.241C386.056 220.608 398.296 241.796 398.296 258.514C398.296 264.773 396.554 269.359 393.541 271.116C390.51 272.857 385.671 272.07 380.246 268.941L207.707 169.381C187.632 157.8 170.671 128.429 170.671 105.267C170.671 96.1794 173.35 89.2509 178.038 86.2552C179.963 85.0335 182.291 84.4143 184.919 84.4143C188.117 84.4143 191.751 85.318 195.635 87.1255L195.618 87.1087Z" fill="url(#paint10_radial_21_2397)"/>
<path d="M281.746 195.221L286.3 192.945L281.829 189.548L281.746 195.221Z" fill="#0182C4"/>
<path d="M268.083 133.751L272.503 131.525L272.57 133.835L268.083 133.751Z" fill="#0182C4"/>
<path d="M294.739 180.862L299.343 178.535L290.469 170.101L294.739 180.862Z" fill="#0182C4"/>
<path d="M284.977 192.794L263.429 180.109C262.34 179.473 261.453 177.849 261.453 176.494L261.52 151.558L287.037 166.569L286.97 191.505C286.97 192.861 286.082 193.447 284.977 192.794Z" fill="#0182C4"/>
<path d="M272.453 131.542L249.18 146.52C248.192 147.156 248.996 149.516 250.486 150.403L274.261 164.394L298.037 178.385C299.544 179.272 300.347 177.849 299.36 176.059L276.237 133.768C275.233 131.944 273.458 130.889 272.436 131.542H272.453Z" fill="#0182C4"/>
<path d="M280.356 195.12L258.807 182.435C257.719 181.799 256.832 180.175 256.832 178.82L256.899 153.884L282.416 168.896L282.349 193.832C282.349 195.187 281.461 195.773 280.356 195.12Z" fill="#D4ECFF"/>
<path d="M267.832 133.868L244.559 148.846C243.571 149.482 244.375 151.842 245.865 152.729L269.64 166.72L293.416 180.711C294.923 181.598 295.726 180.175 294.739 178.385L271.616 136.094C270.611 134.27 268.837 133.215 267.815 133.868H267.832Z" fill="#D4ECFF"/>
</g>
<defs>
<radialGradient id="paint0_radial_21_2397" cx="0" cy="0" r="1" gradientUnits="userSpaceOnUse" gradientTransform="translate(326 326) rotate(90) scale(240 346)">
<stop stop-color="#D9D9D9"/>
<stop offset="1" stop-color="#D9D9D9" stop-opacity="0"/>
</radialGradient>
<radialGradient id="paint1_radial_21_2397" cx="0" cy="0" r="1" gradientUnits="userSpaceOnUse" gradientTransform="translate(550.392 302.797) scale(337.695 337.54)">
<stop stop-color="#86B8E0"/>
<stop offset="0.12" stop-color="#98C4E7"/>
<stop offset="0.33" stop-color="#B2D5F1"/>
<stop offset="0.54" stop-color="#C5E2F9"/>
<stop offset="0.76" stop-color="#D0E9FD"/>
<stop offset="1" stop-color="#D4ECFF"/>
</radialGradient>
<radialGradient id="paint2_radial_21_2397" cx="0" cy="0" r="1" gradientUnits="userSpaceOnUse" gradientTransform="translate(523.653 226.499) scale(232.38 232.273)">
<stop stop-color="#173D7A"/>
<stop offset="1" stop-color="#274F89"/>
</radialGradient>
<linearGradient id="paint3_linear_21_2397" x1="319.996" y1="196.345" x2="319.996" y2="416.898" gradientUnits="userSpaceOnUse">
<stop stop-color="#6DE0F6"/>
<stop offset="1" stop-color="#3167D9"/>
</linearGradient>
<radialGradient id="paint4_radial_21_2397" cx="0" cy="0" r="1" gradientUnits="userSpaceOnUse" gradientTransform="translate(304.232 290.865) scale(21.3142 21.3044)">
<stop stop-color="#D4088C"/>
<stop offset="0.27" stop-color="#A31FA9"/>
<stop offset="0.64" stop-color="#740F98"/>
<stop offset="1" stop-color="#640A92"/>
</radialGradient>
<radialGradient id="paint5_radial_21_2397" cx="0" cy="0" r="1" gradientUnits="userSpaceOnUse" gradientTransform="translate(292.311 268.004) scale(33.7042 33.6887)">
<stop stop-color="#D4088C"/>
<stop offset="0.27" stop-color="#740F98"/>
<stop offset="0.64" stop-color="#640A92"/>
<stop offset="1" stop-color="#4D21A3"/>
</radialGradient>
<radialGradient id="paint6_radial_21_2397" cx="0" cy="0" r="1" gradientUnits="userSpaceOnUse" gradientTransform="translate(216.66 244.341) scale(21.3142 21.3044)">
<stop stop-color="#D4088C"/>
<stop offset="0.27" stop-color="#A31FA9"/>
<stop offset="0.64" stop-color="#740F98"/>
<stop offset="1" stop-color="#640A92"/>
</radialGradient>
<radialGradient id="paint7_radial_21_2397" cx="0" cy="0" r="1" gradientUnits="userSpaceOnUse" gradientTransform="translate(204.738 221.481) scale(33.7042 33.6887)">
<stop stop-color="#D4088C"/>
<stop offset="0.27" stop-color="#740F98"/>
<stop offset="0.64" stop-color="#640A92"/>
<stop offset="1" stop-color="#4D21A3"/>
</radialGradient>
<radialGradient id="paint8_radial_21_2397" cx="0" cy="0" r="1" gradientUnits="userSpaceOnUse" gradientTransform="translate(324.19 149.867) scale(121.305 121.249)">
<stop stop-color="#D4088C"/>
<stop offset="0.27" stop-color="#A31FA9"/>
<stop offset="0.64" stop-color="#841BA1"/>
<stop offset="1" stop-color="#58068E"/>
</radialGradient>
<linearGradient id="paint9_linear_21_2397" x1="161.998" y1="159.808" x2="407.002" y2="159.808" gradientUnits="userSpaceOnUse">
<stop stop-color="#D4ECFF"/>
<stop offset="0.24" stop-color="#D0E9FD"/>
<stop offset="0.46" stop-color="#C5E2F9"/>
<stop offset="0.67" stop-color="#B2D5F1"/>
<stop offset="0.88" stop-color="#98C4E7"/>
<stop offset="1" stop-color="#86B8E0"/>
</linearGradient>
<radialGradient id="paint10_radial_21_2397" cx="0" cy="0" r="1" gradientUnits="userSpaceOnUse" gradientTransform="translate(398.831 251.285) scale(245.289 245.176)">
<stop stop-color="#740F98"/>
<stop offset="1" stop-color="#2C75E4"/>
</radialGradient>
<clipPath id="clip0_21_2397">
<rect width="672" height="452" fill="white" transform="translate(0 114)"/>
</clipPath>
<clipPath id="clip1_21_2397">
<rect width="440.315" height="451.007" fill="white" transform="translate(126.452)"/>
</clipPath>
</defs>
</svg>
