<svg width="1920" height="346" viewBox="0 0 1920 346" fill="none" xmlns="http://www.w3.org/2000/svg">
<path d="M753 172H-1V346H1920.5V204.5H1758L1693.5 142H1224.5H940L877.5 204H785.5L753 172Z" fill="#00255B"/>
<path d="M1077.08 67.8098H1361.82V71.7777H1081.04L1077.08 67.8098Z" fill="#0F95F7"/>
<path d="M1361.42 62.3343C1365.53 62.3343 1368.85 65.6672 1368.85 69.7937C1368.85 73.9203 1365.53 77.2532 1361.42 77.2532C1357.31 77.2532 1353.99 73.9203 1353.99 69.7937C1353.99 65.6672 1357.31 62.3343 1361.42 62.3343Z" fill="#0F95F7"/>
<path d="M2060.15 201.842H1757.75L1696.47 140.341H1154.92L1082.62 67.7702L1079.81 70.5873L1153.26 144.309H1694.81L1756.09 205.81H2060.15V201.842Z" fill="#0F95F7"/>
<path d="M2059.79 196.407C2063.9 196.407 2067.22 199.739 2067.22 203.866C2067.22 207.993 2063.9 211.325 2059.79 211.325C2055.68 211.325 2052.36 207.993 2052.36 203.866C2052.36 199.739 2055.68 196.407 2059.79 196.407Z" fill="#0F95F7"/>
<path d="M716.811 64.4769L714.044 61.6597L687.638 88.1647H588.814L508.451 168.83H79.7122V172.798H510.071L590.475 92.1325H689.299L716.811 64.4769Z" fill="#0F95F7"/>
<path d="M709.893 58.3268C712.779 55.4303 717.483 55.4303 720.408 58.3268C723.294 61.2233 723.294 65.945 720.408 68.8812C717.523 71.8173 712.819 71.7777 709.893 68.8812C707.008 65.9847 707.008 61.263 709.893 58.3268Z" fill="#0F95F7"/>
<path d="M1213.5 187.955H1113.69L1066.25 140.341H939.087L877.816 201.842H786.581L753.969 169.108L401.167 168.83V172.798L752.309 173.076L784.921 205.81H879.476L940.747 144.309H1064.59L1112.03 191.923H1213.5V187.955Z" fill="#0F95F7"/>
<path d="M1213.15 182.48C1217.26 182.48 1220.58 185.812 1220.58 189.939C1220.58 194.066 1217.26 197.398 1213.15 197.398C1209.03 197.398 1205.71 194.066 1205.71 189.939C1205.71 185.812 1209.03 182.48 1213.15 182.48Z" fill="#0F95F7"/>
<path d="M420.734 206.524L387.134 172.798H-5L-1.04688 168.83H388.755L422.355 202.557H509.36V206.524H420.734Z" fill="#0F95F7"/>
<path d="M508.964 197.081C513.076 197.081 516.396 200.414 516.396 204.541C516.396 208.667 513.076 212 508.964 212C504.853 212 501.533 208.667 501.533 204.541C501.533 200.414 504.853 197.081 508.964 197.081Z" fill="#0F95F7"/>
<path d="M1214.88 144.309H1060.28L1056.33 140.341H1216.51L1271.85 195.891H1640.82V199.859H1270.23L1214.88 144.309Z" fill="#0F95F7"/>
<path d="M1640.46 190.415C1644.57 190.415 1647.89 193.748 1647.89 197.875C1647.89 202.001 1644.57 205.334 1640.46 205.334C1636.35 205.334 1633.03 202.001 1633.03 197.875C1633.03 193.748 1636.35 190.415 1640.46 190.415Z" fill="#0F95F7"/>
<path d="M2162.92 5.47558L1953.1 5.4359L1884.56 74.2377H1565.71L1498.67 141.532L1501.47 144.309L1567.33 78.2055H1886.22L1954.72 9.40371L2162.92 9.44339V5.47558Z" fill="#0F95F7"/>
<path d="M2162.57 0C2166.68 0 2170 3.33296 2170 7.45948C2170 11.586 2166.68 14.919 2162.57 14.919C2158.46 14.919 2155.14 11.586 2155.14 7.45948C2155.14 3.33296 2158.46 0 2162.57 0Z" fill="#0F95F7"/>
<path d="M891.216 106.615H735.39L673.131 169.108H486.195V173.076H674.791L737.051 110.583H891.216V106.615Z" fill="#0F95F7"/>
<path d="M890.86 101.139C894.971 101.139 898.292 104.472 898.292 108.599C898.292 112.725 894.971 116.058 890.86 116.058C886.749 116.058 883.429 112.725 883.429 108.599C883.429 104.472 886.749 101.139 890.86 101.139Z" fill="#0F95F7"/>
</svg>
