<svg width="406" height="412" viewBox="0 0 406 412" fill="none" xmlns="http://www.w3.org/2000/svg">
<g opacity="0.8">
<path d="M193.957 269.694L121.114 227.623C115.931 224.639 116.583 219.399 122.568 215.949L192.503 175.557C198.488 172.107 207.53 171.734 212.714 174.718L285.557 216.788C290.74 219.772 290.088 225.012 284.103 228.462L214.168 268.855C208.183 272.305 199.141 272.678 193.957 269.694Z" fill="#0C0F38"/>
<path d="M310.895 342.834L238.052 300.763C232.868 297.779 233.521 292.539 239.506 289.089L309.441 248.696C315.426 245.246 324.468 244.873 329.651 247.857L402.495 289.928C407.678 292.912 407.026 298.152 401.041 301.602L331.106 341.995C325.121 345.444 316.078 345.817 310.895 342.834Z" fill="#0C0F38"/>
<path d="M76.3301 336.847L3.50515 294.777C-1.67799 291.793 -1.02543 286.553 4.95941 283.103L74.8945 242.71C80.8793 239.26 89.9219 238.887 95.105 241.871L167.949 283.942C173.132 286.926 172.479 292.166 166.494 295.616L96.5592 336.008C90.5744 339.458 81.5319 339.831 76.3487 336.847H76.3301Z" fill="#0C0F38"/>
<path d="M193.286 409.986L120.443 367.915C115.26 364.931 115.912 359.691 121.897 356.241L191.832 315.849C197.817 312.399 206.859 312.026 212.042 315.01L284.886 357.08C290.069 360.064 289.417 365.304 283.432 368.754L213.497 409.147C207.512 412.597 198.469 412.97 193.286 409.986Z" fill="#0C0F38"/>
</g>
<path d="M193.976 250.15L121.132 208.079C115.949 205.095 116.602 199.855 122.587 196.405L192.522 156.013C198.507 152.563 207.549 152.19 212.732 155.174L285.576 197.244C290.759 200.228 290.106 205.468 284.122 208.918L214.186 249.311C208.202 252.761 199.159 253.134 193.976 250.15Z" fill="#0C0F38"/>
<g opacity="0.4">
<path d="M289.044 149.728H252.911L212.695 126.511C207.512 123.527 198.469 123.9 192.484 127.35L153.723 149.728H117.609V173.989C117.46 176.022 118.597 177.962 121.077 179.398L193.92 221.468C199.103 224.452 208.146 224.079 214.131 220.629L284.066 180.237C287.179 178.446 288.82 176.171 288.988 173.989H289.006V149.728H289.044Z" fill="url(#paint0_linear_305_4109)"/>
<path d="M119.92 175.668V151.406H156.035L194.796 129.028C200.781 125.578 209.824 125.205 215.007 128.189L255.223 151.406H289.062V149.728H252.93L212.714 126.511C207.53 123.527 198.488 123.9 192.503 127.35L153.741 149.728H117.627V173.989C117.478 176.022 118.615 177.962 121.095 179.398L121.505 179.64C120.331 178.446 119.809 177.066 119.902 175.668H119.92Z" fill="#D4088C"/>
<path d="M193.958 197.207L121.114 155.136C115.931 152.152 116.583 146.912 122.568 143.462L192.503 103.069C198.488 99.6195 207.531 99.2465 212.714 102.23L285.557 144.301C290.741 147.285 290.088 152.525 284.103 155.975L214.168 196.368C208.183 199.818 199.141 200.191 193.958 197.207Z" fill="url(#paint1_linear_305_4109)"/>
<path d="M285.557 144.32L212.714 102.25C210.029 100.702 206.319 100.068 202.515 100.273C205.274 100.441 207.866 101.093 209.861 102.25L282.705 144.32C287.888 147.304 287.235 152.544 281.25 155.994L211.315 196.387C208.425 198.047 204.846 198.998 201.303 199.203C205.685 199.464 210.495 198.513 214.168 196.387L284.103 155.994C290.088 152.544 290.74 147.323 285.557 144.32Z" fill="#6EE8FC"/>
<path d="M202.888 187.193C200.334 187.193 197.873 186.671 196.046 185.627L141.809 154.316C139.926 153.234 138.901 151.705 138.901 150.008C138.901 148.013 140.355 146.017 142.891 144.563L194.964 114.502C199.569 111.835 206.598 111.555 210.626 113.886L264.862 145.197C266.745 146.279 267.771 147.808 267.771 149.505C267.771 151.5 266.316 153.495 263.781 154.95L211.707 185.011C209.19 186.466 205.964 187.212 202.888 187.212V187.193ZM203.783 113.495C200.93 113.495 197.929 114.185 195.58 115.546L143.506 145.607C141.362 146.838 140.131 148.442 140.131 149.99C140.131 151.22 140.952 152.377 142.424 153.216L196.661 184.526C200.334 186.652 206.803 186.373 211.073 183.911L263.147 153.85C265.291 152.619 266.521 151.015 266.521 149.467C266.521 148.237 265.701 147.08 264.228 146.241L209.992 114.93C208.332 113.979 206.114 113.513 203.764 113.513L203.783 113.495Z" fill="#480689"/>
<path d="M197.22 197.207L124.377 155.136C119.194 152.152 119.846 146.912 125.831 143.462L195.766 103.07C198.6 101.429 202.143 100.496 205.61 100.272C201.173 99.9554 196.232 100.906 192.503 103.07L122.568 143.462C116.583 146.912 115.931 152.134 121.114 155.136L193.958 197.207C196.68 198.774 200.465 199.408 204.324 199.165C201.658 198.979 199.178 198.326 197.239 197.207H197.22Z" fill="#D4088C"/>
</g>
<g opacity="0.5">
<path d="M289.044 116.328H252.911L212.695 93.1111C207.512 90.1274 198.469 90.5003 192.484 93.9503L153.723 116.328H117.609V140.59C117.46 142.623 118.597 144.562 121.077 145.998L193.92 188.069C199.103 191.053 208.146 190.68 214.131 187.23L284.066 146.837C287.179 145.047 288.82 142.772 288.988 140.59H289.006V116.328H289.044Z" fill="url(#paint2_linear_305_4109)"/>
<path d="M119.92 142.25V117.988H156.035L194.796 95.6101C200.781 92.1601 209.824 91.7872 215.007 94.7709L255.223 117.988H289.062V116.31H252.93L212.714 93.0926C207.53 90.1088 198.488 90.4818 192.503 93.9317L153.741 116.31H117.627V140.571C117.478 142.604 118.615 144.544 121.095 145.98L121.505 146.222C120.331 145.028 119.809 143.648 119.902 142.25H119.92Z" fill="#D4088C"/>
<path d="M193.958 163.807L121.114 121.736C115.931 118.753 116.583 113.513 122.568 110.063L192.503 69.67C198.488 66.2201 207.531 65.8471 212.714 68.8308L285.557 110.902C290.741 113.885 290.088 119.126 284.103 122.576L214.168 162.968C208.183 166.418 199.141 166.791 193.958 163.807Z" fill="url(#paint3_linear_305_4109)"/>
<path d="M285.557 110.902L212.714 68.8316C210.029 67.2838 206.319 66.6497 202.515 66.8549C205.274 67.0227 207.866 67.6754 209.861 68.8316L282.705 110.902C287.888 113.886 287.235 119.126 281.25 122.576L211.315 162.969C208.425 164.629 204.846 165.58 201.303 165.785C205.685 166.046 210.495 165.095 214.168 162.969L284.103 122.576C290.088 119.126 290.74 113.905 285.557 110.902Z" fill="#6EE8FC"/>
<path d="M202.888 153.794C200.334 153.794 197.873 153.272 196.046 152.227L141.809 120.917C139.926 119.835 138.901 118.306 138.901 116.609C138.901 114.613 140.355 112.618 142.891 111.163L194.964 81.1022C199.588 78.4354 206.617 78.1557 210.626 80.4868L264.862 111.797C266.745 112.879 267.771 114.408 267.771 116.105C267.771 118.101 266.316 120.096 263.781 121.551L211.707 151.612C209.19 153.066 205.964 153.812 202.888 153.812V153.794ZM196.661 151.146C200.334 153.272 206.803 152.992 211.073 150.53L263.147 120.469C265.291 119.238 266.521 117.634 266.521 116.087C266.521 114.856 265.701 113.7 264.228 112.86L209.992 81.5497C206.319 79.4238 199.849 79.7035 195.58 82.1651L143.506 112.226C141.362 113.457 140.131 115.061 140.131 116.609C140.131 117.84 140.952 118.996 142.424 119.835L196.661 151.146Z" fill="#480689"/>
<path d="M197.22 163.808L124.377 121.737C119.194 118.753 119.846 113.513 125.831 110.063L195.766 69.6703C198.6 68.0292 202.143 67.0968 205.61 66.873C201.173 66.556 196.232 67.5071 192.503 69.6703L122.568 110.063C116.583 113.513 115.931 118.734 121.114 121.737L193.958 163.808C196.68 165.374 200.465 166.008 204.324 165.766C201.658 165.579 199.178 164.927 197.239 163.808H197.22Z" fill="#D4088C"/>
</g>
<g opacity="0.7">
<path d="M289.044 82.9105H252.911L212.695 59.6931C207.512 56.7094 198.469 57.0824 192.484 60.5323L153.723 82.9105H117.609V107.172C117.46 109.205 118.597 111.144 121.077 112.58L193.92 154.651C199.103 157.635 208.146 157.262 214.131 153.812L284.066 113.419C287.179 111.629 288.82 109.354 288.988 107.172H289.006V82.9105H289.044Z" fill="url(#paint4_linear_305_4109)"/>
<path d="M119.92 108.832V84.5703H156.035L194.796 62.1921C200.781 58.7422 209.824 58.3692 215.007 61.353L255.223 84.5703H289.062V82.8919H252.93L212.714 59.6746C207.53 56.6908 198.488 57.0638 192.503 60.5138L153.741 82.8919H117.627V107.154C117.478 109.186 118.615 111.126 121.095 112.562L121.505 112.804C120.331 111.611 119.809 110.231 119.902 108.832H119.92Z" fill="#D4088C"/>
<path d="M193.958 130.389L121.114 88.3185C115.931 85.3347 116.583 80.0945 122.568 76.6446L192.503 36.2521C198.488 32.8021 207.531 32.4291 212.714 35.4129L285.557 77.4838C290.741 80.4675 290.088 85.7077 284.103 89.1577L214.168 129.55C208.183 133 199.141 133.373 193.958 130.389Z" fill="url(#paint5_linear_305_4109)"/>
<path d="M285.557 77.5031L212.714 35.4322C210.029 33.8844 206.319 33.2503 202.515 33.4554C205.274 33.6233 207.866 34.276 209.861 35.4322L282.705 77.5031C287.888 80.4868 287.235 85.727 281.25 89.177L211.315 129.57C208.425 131.229 204.846 132.18 201.303 132.385C205.685 132.646 210.495 131.695 214.168 129.57L284.103 89.177C290.088 85.727 290.74 80.5055 285.557 77.5031Z" fill="#6EE8FC"/>
<path d="M202.888 120.376C200.315 120.376 197.873 119.854 196.046 118.809L141.809 87.4986C139.926 86.417 138.901 84.8878 138.901 83.1908C138.901 81.1954 140.355 79.2 142.891 77.7455L194.964 47.6842C199.569 45.0175 206.598 44.7377 210.626 47.0688L264.862 78.3795C266.745 79.4611 267.771 80.9903 267.771 82.6873C267.771 84.6827 266.316 86.6781 263.781 88.1326L211.707 118.194C209.19 119.649 205.964 120.394 202.888 120.394V120.376ZM196.661 117.728C200.334 119.854 206.803 119.574 211.073 117.112L263.147 87.051C265.291 85.8202 266.521 84.2165 266.521 82.6687C266.521 81.4379 265.701 80.2817 264.228 79.4425L209.992 48.1317C206.319 46.0058 199.849 46.2855 195.58 48.7471L143.506 78.8084C141.362 80.0392 140.131 81.643 140.131 83.1908C140.131 84.4216 140.952 85.5778 142.424 86.417L196.661 117.728Z" fill="#480689"/>
<path d="M197.22 130.39L124.377 88.3188C119.194 85.335 119.846 80.0948 125.831 76.6448L195.766 36.2523C198.6 34.6113 202.143 33.6788 205.61 33.4551C201.173 33.138 196.232 34.0891 192.503 36.2523L122.568 76.6448C116.583 80.0948 115.931 85.3164 121.114 88.3188L193.958 130.39C196.68 131.956 200.465 132.59 204.324 132.348C201.658 132.161 199.178 131.509 197.239 130.39H197.22Z" fill="#D4088C"/>
</g>
<path d="M289.044 49.4925H252.911L212.695 26.2752C207.512 23.2914 198.469 23.6644 192.484 27.1144L153.723 49.4925H117.609V73.7541C117.46 75.7868 118.597 77.7262 121.077 79.1622L193.92 121.233C199.103 124.217 208.146 123.844 214.131 120.394L284.066 80.0013C287.179 78.2111 288.82 75.936 288.988 73.7541H289.006V49.4925H289.044Z" fill="url(#paint6_linear_305_4109)"/>
<path d="M119.92 75.4325V51.1708H156.035L194.796 28.7927C200.781 25.3428 209.824 24.9698 215.007 27.9535L255.223 51.1708H289.062V49.4925H252.93L212.714 26.2752C207.53 23.2914 198.488 23.6644 192.503 27.1144L153.741 49.4925H117.627V73.7541C117.478 75.7868 118.615 77.7262 121.095 79.1622L121.505 79.4046C120.331 78.2111 119.809 76.8311 119.902 75.4325H119.92Z" fill="#D4088C"/>
<path d="M193.958 96.9713L121.114 54.9004C115.931 51.9167 116.583 46.6765 122.568 43.2265L192.503 2.85264C198.488 -0.597325 207.531 -0.970294 212.714 2.01346L285.557 44.0843C290.741 47.0681 290.088 52.3083 284.103 55.7583L214.168 96.1508C208.183 99.6007 199.141 99.9737 193.958 96.99V96.9713Z" fill="url(#paint7_linear_305_4109)"/>
<path d="M285.557 44.0851L212.714 2.01421C210.029 0.466387 206.319 -0.16766 202.515 0.0374726C205.274 0.205309 207.866 0.858004 209.861 2.01421L282.705 44.0851C287.888 47.0688 287.235 52.3091 281.25 55.759L211.315 96.1515C208.425 97.8112 204.846 98.7623 201.303 98.9675C205.685 99.2285 210.495 98.2775 214.168 96.1515L284.103 55.759C290.088 52.3091 290.74 47.0875 285.557 44.0851Z" fill="#6EE8FC"/>
<path d="M202.888 86.9571C200.334 86.9571 197.873 86.4349 196.046 85.3906L141.809 54.0798C139.926 52.9982 138.901 51.4691 138.901 49.7721C138.901 47.7767 140.355 45.7813 142.891 44.3267L194.964 14.2281C199.569 11.5614 206.598 11.2817 210.626 13.6127L264.862 44.9235C266.745 46.0051 267.771 47.5342 267.771 49.2313C267.771 51.2266 266.316 53.222 263.781 54.6766L211.707 84.7379C209.19 86.1925 205.964 86.9384 202.888 86.9384V86.9571ZM196.661 84.309C200.334 86.4349 206.803 86.1552 211.073 83.6936L263.147 53.6323C265.291 52.4015 266.521 50.7977 266.521 49.2499C266.521 48.0191 265.701 46.8629 264.228 46.0237L210.01 14.6943C206.337 12.5684 199.868 12.8481 195.598 15.3097L143.524 45.371C141.38 46.6018 140.15 48.2056 140.15 49.7534C140.15 50.9842 140.97 52.1404 142.443 52.9796L196.68 84.2903L196.661 84.309Z" fill="url(#paint8_linear_305_4109)"/>
<path d="M197.22 96.9716L124.377 54.9007C119.194 51.917 119.846 46.6768 125.831 43.2268L195.766 2.85291C198.6 1.21185 202.143 0.279427 205.61 0.0556454C201.173 -0.261378 196.232 0.689692 192.503 2.85291L122.568 43.2454C116.583 46.6954 115.931 51.917 121.114 54.9194L193.958 96.9902C196.68 98.5567 200.465 99.1908 204.324 98.9483C201.658 98.7618 199.178 98.1091 197.239 96.9902L197.22 96.9716Z" fill="#25BFEC"/>
<g opacity="0.4">
<path d="M405.981 222.867H369.848L329.632 199.649C324.449 196.665 315.407 197.038 309.422 200.488L270.66 222.867H234.546V247.128C234.397 249.161 235.534 251.1 238.014 252.536L310.858 294.607C316.041 297.591 325.083 297.218 331.068 293.768L401.003 253.375C404.117 251.585 405.758 249.31 405.925 247.128H405.944V222.867H405.981Z" fill="url(#paint9_linear_305_4109)"/>
<path d="M236.877 248.806V224.545H272.991L311.753 202.167C317.737 198.717 326.78 198.344 331.963 201.328L372.179 224.545H406.019V222.867H369.886L329.67 199.649C324.487 196.665 315.444 197.038 309.459 200.488L270.698 222.867H234.584V247.128C234.434 249.161 235.572 251.1 238.051 252.536L238.462 252.779C237.287 251.585 236.765 250.205 236.858 248.806H236.877Z" fill="#D4088C"/>
<path d="M310.895 270.345L238.052 228.275C232.868 225.291 233.521 220.051 239.506 216.601L309.441 176.208C315.426 172.758 324.468 172.385 329.651 175.369L402.495 217.44C407.678 220.424 407.026 225.664 401.041 229.114L331.106 269.506C325.121 272.956 316.078 273.329 310.895 270.345Z" fill="url(#paint10_linear_305_4109)"/>
<path d="M402.495 217.459L329.651 175.388C326.966 173.84 323.256 173.206 319.453 173.411C322.212 173.579 324.804 174.232 326.798 175.388L399.642 217.459C404.825 220.443 404.173 225.683 398.188 229.133L328.253 269.526C325.363 271.185 321.783 272.136 318.241 272.341C322.622 272.603 327.432 271.651 331.105 269.526L401.04 229.133C407.025 225.683 407.678 220.462 402.495 217.459Z" fill="#6EE8FC"/>
<path d="M319.826 260.332C317.271 260.332 314.81 259.81 312.983 258.765L258.747 227.455C256.864 226.373 255.838 224.844 255.838 223.147C255.838 221.151 257.292 219.156 259.828 217.702L311.902 187.64C316.507 184.974 323.536 184.694 327.563 187.025L381.8 218.336C383.683 219.417 384.708 220.946 384.708 222.643C384.708 224.639 383.254 226.634 380.718 228.089L328.644 258.15C326.127 259.605 322.902 260.351 319.826 260.351V260.332ZM320.721 186.633C317.868 186.633 314.866 187.323 312.517 188.685L260.443 218.746C258.299 219.977 257.069 221.58 257.069 223.128C257.069 224.359 257.889 225.515 259.362 226.354L313.598 257.665C317.271 259.791 323.741 259.511 328.011 257.05L380.084 226.988C382.228 225.758 383.459 224.154 383.459 222.606C383.459 221.375 382.639 220.219 381.166 219.38L326.929 188.069C325.27 187.118 323.051 186.652 320.702 186.652L320.721 186.633Z" fill="#480689"/>
<path d="M314.176 270.346L241.333 228.275C236.15 225.291 236.802 220.051 242.787 216.601L312.722 176.208C315.556 174.567 319.099 173.635 322.566 173.411C318.129 173.094 313.188 174.045 309.459 176.208L239.524 216.601C233.54 220.051 232.887 225.272 238.07 228.275L310.914 270.346C313.636 271.912 317.421 272.546 321.28 272.304C318.614 272.117 316.134 271.465 314.195 270.346H314.176Z" fill="#D4088C"/>
</g>
<g opacity="0.5">
<path d="M405.981 189.467H369.848L329.632 166.25C324.449 163.266 315.407 163.639 309.422 167.089L270.66 189.467H234.546V213.729C234.397 215.761 235.534 217.701 238.014 219.137L310.858 261.208C316.041 264.191 325.083 263.818 331.068 260.368L401.003 219.976C404.117 218.186 405.758 215.911 405.925 213.729H405.944V189.467H405.981Z" fill="url(#paint11_linear_305_4109)"/>
<path d="M236.877 215.389V191.127H272.991L311.753 168.749C317.737 165.299 326.78 164.926 331.963 167.91L372.179 191.127H406.019V189.449H369.886L329.67 166.231C324.487 163.247 315.444 163.62 309.459 167.07L270.698 189.449H234.584V213.71C234.434 215.743 235.572 217.682 238.051 219.118L238.462 219.361C237.287 218.167 236.765 216.787 236.858 215.389H236.877Z" fill="#D4088C"/>
<path d="M310.895 236.946L238.052 194.875C232.868 191.891 233.521 186.651 239.506 183.201L309.441 142.809C315.426 139.359 324.468 138.986 329.651 141.97L402.495 184.04C407.678 187.024 407.026 192.264 401.041 195.714L331.106 236.107C325.121 239.557 316.078 239.93 310.895 236.946Z" fill="url(#paint12_linear_305_4109)"/>
<path d="M402.495 184.041L329.651 141.97C326.966 140.422 323.256 139.788 319.453 139.994C322.212 140.161 324.804 140.814 326.798 141.97L399.642 184.041C404.825 187.025 404.173 192.265 398.188 195.715L328.253 236.108C325.363 237.767 321.783 238.718 318.241 238.924C322.622 239.185 327.432 238.234 331.105 236.108L401.04 195.715C407.025 192.265 407.678 187.044 402.495 184.041Z" fill="#6EE8FC"/>
<path d="M319.826 226.932C317.271 226.932 314.81 226.41 312.983 225.366L258.747 194.055C256.864 192.974 255.838 191.444 255.838 189.747C255.838 187.752 257.292 185.757 259.828 184.302L311.902 154.241C316.526 151.574 323.536 151.294 327.563 153.625L381.8 184.936C383.683 186.018 384.708 187.547 384.708 189.244C384.708 191.239 383.254 193.235 380.718 194.689L328.644 224.751C326.127 226.205 322.902 226.951 319.826 226.951V226.932ZM313.598 224.284C317.271 226.41 323.741 226.131 328.011 223.669L380.084 193.608C382.228 192.377 383.459 190.773 383.459 189.225C383.459 187.995 382.639 186.838 381.166 185.999L326.929 154.688C323.256 152.562 316.787 152.842 312.517 155.304L260.443 185.365C258.299 186.596 257.069 188.2 257.069 189.747C257.069 190.978 257.889 192.134 259.362 192.974L313.598 224.284Z" fill="#480689"/>
<path d="M314.176 236.946L241.333 194.875C236.15 191.892 236.802 186.651 242.787 183.201L312.722 142.809C315.556 141.168 319.099 140.235 322.566 140.012C318.129 139.695 313.188 140.646 309.459 142.809L239.524 183.201C233.54 186.651 232.887 191.873 238.07 194.875L310.914 236.946C313.636 238.513 317.421 239.147 321.28 238.904C318.614 238.718 316.134 238.065 314.195 236.946H314.176Z" fill="#D4088C"/>
</g>
<g opacity="0.7">
<path d="M405.981 156.049H369.848L329.632 132.832C324.449 129.848 315.407 130.221 309.422 133.671L270.66 156.049H234.546V180.311C234.397 182.343 235.534 184.283 238.014 185.719L310.858 227.79C316.041 230.773 325.083 230.4 331.068 226.95L401.003 186.558C404.117 184.768 405.758 182.493 405.925 180.311H405.944V156.049H405.981Z" fill="url(#paint13_linear_305_4109)"/>
<path d="M236.877 181.971V157.709H272.991L311.753 135.331C317.737 131.881 326.78 131.508 331.963 134.492L372.179 157.709H406.019V156.031H369.886L329.67 132.813C324.487 129.83 315.444 130.202 309.459 133.652L270.698 156.031H234.584V180.292C234.434 182.325 235.572 184.264 238.051 185.7L238.462 185.943C237.287 184.749 236.765 183.369 236.858 181.971H236.877Z" fill="#D4088C"/>
<path d="M310.895 203.528L238.052 161.457C232.868 158.473 233.521 153.233 239.506 149.783L309.441 109.391C315.426 105.941 324.468 105.568 329.651 108.552L402.495 150.622C407.678 153.606 407.026 158.846 401.041 162.296L331.106 202.689C325.121 206.139 316.078 206.512 310.895 203.528Z" fill="url(#paint14_linear_305_4109)"/>
<path d="M402.495 150.642L329.651 108.571C326.966 107.023 323.256 106.389 319.453 106.594C322.212 106.762 324.804 107.415 326.798 108.571L399.642 150.642C404.825 153.625 404.173 158.866 398.188 162.316L328.253 202.708C325.363 204.368 321.783 205.319 318.241 205.524C322.622 205.785 327.432 204.834 331.105 202.708L401.04 162.316C407.025 158.866 407.678 153.644 402.495 150.642Z" fill="#6EE8FC"/>
<path d="M319.826 193.514C317.271 193.514 314.81 192.992 312.983 191.948L258.747 160.637C256.864 159.556 255.838 158.026 255.838 156.329C255.838 154.334 257.292 152.339 259.828 150.884L311.902 120.823C316.507 118.156 323.536 117.876 327.563 120.207L381.8 151.518C383.683 152.6 384.708 154.129 384.708 155.826C384.708 157.821 383.254 159.817 380.718 161.271L328.644 191.333C326.127 192.787 322.902 193.533 319.826 193.533V193.514ZM313.598 190.866C317.271 192.992 323.741 192.713 328.011 190.251L380.084 160.19C382.228 158.959 383.459 157.355 383.459 155.807C383.459 154.577 382.639 153.42 381.166 152.581L326.929 121.27C323.256 119.144 316.787 119.424 312.517 121.886L260.443 151.947C258.299 153.178 257.069 154.782 257.069 156.329C257.069 157.56 257.889 158.716 259.362 159.556L313.598 190.866Z" fill="#480689"/>
<path d="M314.176 203.528L241.333 161.457C236.15 158.474 236.802 153.233 242.787 149.784L312.722 109.391C315.556 107.75 319.099 106.818 322.566 106.594C318.129 106.277 313.188 107.228 309.459 109.391L239.524 149.784C233.54 153.233 232.887 158.455 238.07 161.457L310.914 203.528C313.636 205.095 317.421 205.729 321.28 205.486C318.614 205.3 316.134 204.647 314.195 203.528H314.176Z" fill="#D4088C"/>
</g>
<path d="M405.981 122.631H369.848L329.632 99.4138C324.449 96.4301 315.407 96.8031 309.422 100.253L270.66 122.631H234.546V146.893C234.397 148.925 235.534 150.865 238.014 152.301L310.858 194.372C316.041 197.355 325.083 196.982 331.068 193.533L401.003 153.14C404.117 151.35 405.758 149.075 405.925 146.893H405.944V122.631H405.981Z" fill="url(#paint15_linear_305_4109)"/>
<path d="M236.877 148.571V124.31H272.991L311.753 101.931C317.737 98.4814 326.78 98.1085 331.963 101.092L372.179 124.31H406.019V122.631H369.886L329.67 99.4138C324.487 96.4301 315.444 96.8031 309.459 100.253L270.698 122.631H234.584V146.893C234.434 148.925 235.572 150.865 238.051 152.301L238.462 152.543C237.287 151.35 236.765 149.97 236.858 148.571H236.877Z" fill="#D4088C"/>
<path d="M310.895 170.11L238.052 128.039C232.868 125.055 233.521 119.815 239.506 116.365L309.441 75.9728C315.426 72.5228 324.468 72.1498 329.651 75.1336L402.495 117.204C407.678 120.188 407.026 125.428 401.041 128.878L331.106 169.271C325.121 172.721 316.078 173.094 310.895 170.11Z" fill="url(#paint16_linear_305_4109)"/>
<path d="M402.495 117.224L329.651 75.1529C326.966 73.6051 323.256 72.971 319.453 73.1761C322.212 73.344 324.804 73.9967 326.798 75.1529L399.642 117.224C404.825 120.208 404.173 125.448 398.188 128.898L328.253 169.29C325.363 170.95 321.783 171.901 318.241 172.106C322.622 172.367 327.432 171.416 331.105 169.29L401.04 128.898C407.025 125.448 407.678 120.226 402.495 117.224Z" fill="#6EE8FC"/>
<path d="M319.826 160.097C317.271 160.097 314.81 159.574 312.983 158.53L258.747 127.219C256.864 126.138 255.838 124.609 255.838 122.912C255.838 120.916 257.292 118.921 259.828 117.466L311.902 87.4049C316.526 84.7382 323.536 84.4584 327.563 86.7895L381.8 118.1C383.683 119.182 384.708 120.711 384.708 122.408C384.708 124.403 383.254 126.399 380.718 127.853L328.644 157.915C326.127 159.369 322.902 160.115 319.826 160.115V160.097ZM313.598 157.448C317.271 159.574 323.741 159.295 328.011 156.833L380.084 126.772C382.228 125.541 383.459 123.937 383.459 122.389C383.459 121.159 382.639 120.002 381.166 119.163L326.929 87.8524C323.256 85.7265 316.787 86.0062 312.517 88.4678L260.443 118.529C258.299 119.76 257.069 121.364 257.069 122.912C257.069 124.142 257.889 125.299 259.362 126.138L313.598 157.448Z" fill="url(#paint17_linear_305_4109)"/>
<path d="M314.176 170.11L241.333 128.039C236.15 125.056 236.802 119.816 242.787 116.366L312.722 75.973C315.556 74.332 319.099 73.3995 322.566 73.1758C318.129 72.8587 313.188 73.8098 309.459 75.973L239.524 116.366C233.54 119.816 232.887 125.037 238.07 128.039L310.914 170.11C313.636 171.677 317.421 172.311 321.28 172.068C318.614 171.882 316.134 171.229 314.195 170.11H314.176Z" fill="#25BFEC"/>
<path d="M333.175 183.631L394.795 147.975C395.354 147.658 395.82 146.781 395.82 146.017V143.108C395.82 142.362 395.354 142.007 394.795 142.343L333.175 177.999C332.616 178.316 332.149 179.192 332.149 179.957V182.866C332.149 183.612 332.616 183.966 333.175 183.631Z" fill="#6DE0F6"/>
<path d="M393.452 147.21C394.012 146.893 394.478 146.017 394.478 145.252V142.529L394.813 142.343C395.373 142.026 395.839 142.361 395.839 143.107V146.017C395.839 146.763 395.373 147.639 394.813 147.975L333.194 183.631C332.634 183.948 332.168 183.612 332.168 182.866V182.679L393.452 147.229V147.21Z" fill="#267FE5"/>
<g opacity="0.4">
<path d="M171.435 216.881H135.302L95.0864 193.664C89.9032 190.68 80.8607 191.053 74.8759 194.503L36.1142 216.881H1.96742e-05V241.143C-0.149135 243.175 0.988172 245.115 3.46787 246.551L76.3115 288.622C81.4946 291.605 90.5371 291.232 96.522 287.783L166.457 247.39C169.571 245.6 171.211 243.325 171.379 241.143H171.398V216.881H171.435Z" fill="url(#paint18_linear_305_4109)"/>
<path d="M2.31192 242.821V218.56H38.4074L77.1691 196.181C83.154 192.731 92.1965 192.358 97.3796 195.342L137.596 218.56H171.435V216.881H135.302L95.0864 193.664C89.9032 190.68 80.8607 191.053 74.8759 194.503L36.1142 216.881H1.96742e-05V241.143C-0.149135 243.175 0.988172 245.115 3.46787 246.551L3.87805 246.793C2.70345 245.6 2.18141 244.22 2.27463 242.821H2.31192Z" fill="#D4088C"/>
<path d="M76.3303 264.36L3.50539 222.308C-1.67774 219.324 -1.02519 214.084 4.95966 210.634L74.8947 170.241C80.8796 166.791 89.9221 166.418 95.1052 169.402L167.949 211.473C173.132 214.457 172.479 219.697 166.495 223.147L96.5595 263.539C90.5747 266.989 81.5321 267.362 76.349 264.379L76.3303 264.36Z" fill="url(#paint19_linear_305_4109)"/>
<path d="M167.93 211.474L95.0864 169.403C92.4016 167.855 88.6914 167.221 84.8879 167.426C87.6473 167.594 90.2388 168.247 92.2338 169.403L165.077 211.474C170.261 214.458 169.608 219.698 163.623 223.148L93.6881 263.54C90.7982 265.2 87.2185 266.151 83.676 266.356C88.0575 266.617 92.8677 265.666 96.5406 263.54L166.476 223.148C172.461 219.698 173.113 214.476 167.93 211.474Z" fill="#6EE8FC"/>
<path d="M85.2607 254.347C82.7064 254.347 80.2454 253.824 78.4182 252.78L24.1817 221.469C22.2986 220.388 21.2732 218.859 21.2732 217.162C21.2732 215.166 22.7275 213.171 25.2631 211.716L77.3368 181.655C81.9607 178.988 88.9896 178.708 92.9981 181.039L147.235 212.35C149.118 213.432 150.143 214.961 150.143 216.658C150.143 218.653 148.689 220.649 146.153 222.103L94.0795 252.165C91.5625 253.619 88.337 254.365 85.2607 254.365V254.347ZM79.0335 251.698C82.7064 253.824 89.176 253.545 93.4456 251.083L145.519 221.022C147.663 219.791 148.894 218.187 148.894 216.639C148.894 215.409 148.074 214.252 146.601 213.395L92.3642 182.084C88.6913 179.958 82.2217 180.238 77.9521 182.699L25.8784 212.76C23.7343 213.991 22.5037 215.595 22.5037 217.143C22.5037 218.374 23.3241 219.53 24.797 220.369L79.0335 251.68V251.698Z" fill="#480689"/>
<path d="M79.6114 264.36L6.76776 222.308C1.58463 219.324 2.23718 214.084 8.22202 210.634L78.1571 170.242C80.991 168.601 84.5335 167.668 88.0013 167.444C83.564 167.127 78.6232 168.078 74.8943 170.242L4.94061 210.634C-1.04423 214.084 -1.69679 219.306 3.48635 222.308L76.3299 264.379C79.052 265.945 82.8368 266.579 86.6962 266.337C84.0301 266.151 81.5504 265.498 79.6114 264.379V264.36Z" fill="#D4088C"/>
</g>
<g opacity="0.5">
<path d="M171.435 183.482H135.302L95.0864 160.264C89.9032 157.281 80.8607 157.654 74.8759 161.104L36.1142 183.482H1.96742e-05V207.743C-0.149135 209.776 0.988172 211.715 3.46787 213.151L76.3115 255.222C81.4946 258.206 90.5371 257.833 96.522 254.383L166.457 213.991C169.571 212.2 171.211 209.925 171.379 207.743H171.398V183.482H171.435Z" fill="url(#paint20_linear_305_4109)"/>
<path d="M2.31192 209.403V185.142H38.4074L77.1691 162.763C83.154 159.313 92.1965 158.94 97.3796 161.924L137.596 185.142H171.435V183.463H135.302L95.0864 160.246C89.9032 157.262 80.8607 157.635 74.8759 161.085L36.1142 183.463H1.96742e-05V207.725C-0.149135 209.757 0.988172 211.697 3.46787 213.133L3.87805 213.375C2.70345 212.182 2.18141 210.802 2.27463 209.403H2.31192Z" fill="#D4088C"/>
<path d="M76.3303 230.961L3.50539 188.89C-1.67774 185.906 -1.02519 180.666 4.95966 177.216L74.8947 136.823C80.8796 133.373 89.9221 133 95.1052 135.984L167.949 178.055C173.132 181.039 172.479 186.279 166.495 189.729L96.5595 230.121C90.5747 233.571 81.5321 233.944 76.349 230.961H76.3303Z" fill="url(#paint21_linear_305_4109)"/>
<path d="M167.93 178.056L95.0864 135.985C92.4016 134.437 88.6914 133.803 84.8879 134.008C87.6473 134.176 90.2388 134.829 92.2338 135.985L165.077 178.056C170.261 181.04 169.608 186.28 163.623 189.73L93.6881 230.122C90.7982 231.782 87.2185 232.733 83.676 232.938C88.0575 233.199 92.8677 232.248 96.5406 230.122L166.476 189.73C172.461 186.28 173.113 181.058 167.93 178.056Z" fill="#6EE8FC"/>
<path d="M85.2607 220.929C82.7064 220.929 80.2454 220.406 78.4182 219.362L24.1817 188.051C22.2986 186.97 21.2732 185.441 21.2732 183.744C21.2732 181.748 22.7275 179.753 25.2631 178.298L77.3368 148.237C81.9607 145.57 88.9896 145.29 92.9981 147.622L147.235 178.932C149.118 180.014 150.143 181.543 150.143 183.24C150.143 185.235 148.689 187.231 146.153 188.685L94.0795 218.747C91.5625 220.201 88.337 220.947 85.2607 220.947V220.929ZM86.1556 147.23C83.303 147.23 80.3013 147.92 77.9521 149.281L25.8784 179.343C23.7343 180.573 22.5037 182.177 22.5037 183.725C22.5037 184.956 23.3241 186.112 24.797 186.951L79.0335 218.262C82.7064 220.388 89.176 220.108 93.4456 217.646L145.519 187.585C147.663 186.354 148.894 184.751 148.894 183.203C148.894 181.972 148.074 180.816 146.601 179.977L92.3642 148.666C90.7049 147.715 88.4862 147.23 86.137 147.23H86.1556Z" fill="#480689"/>
<path d="M79.6114 230.961L6.76776 188.89C1.58463 185.906 2.23718 180.666 8.22202 177.216L78.1571 136.824C80.991 135.183 84.5335 134.25 88.0013 134.026C83.564 133.709 78.6232 134.66 74.8943 136.824L4.94061 177.216C-1.04423 180.666 -1.69679 185.888 3.48635 188.89L76.3299 230.961C79.052 232.527 82.8368 233.161 86.6962 232.919C84.0301 232.733 81.5504 232.08 79.6114 230.961Z" fill="#D4088C"/>
</g>
<g opacity="0.7">
<path d="M171.435 150.064H135.302L95.0864 126.846C89.9032 123.863 80.8607 124.236 74.8759 127.686L36.1142 150.064H1.96742e-05V174.325C-0.149135 176.358 0.988172 178.298 3.46787 179.733L76.3115 221.804C81.4946 224.788 90.5371 224.415 96.522 220.965L166.457 180.573C169.571 178.782 171.211 176.507 171.379 174.325H171.398V150.064H171.435Z" fill="url(#paint22_linear_305_4109)"/>
<path d="M2.31192 175.985V151.724H38.4074L77.1691 129.345C83.154 125.895 92.1965 125.523 97.3796 128.506L137.596 151.724H171.435V150.045H135.302L95.0864 126.828C89.9032 123.844 80.8607 124.217 74.8759 127.667L36.1142 150.045H1.96742e-05V174.307C-0.149135 176.34 0.988172 178.279 3.46787 179.715L3.87805 179.957C2.70345 178.764 2.18141 177.384 2.27463 175.985H2.31192Z" fill="#D4088C"/>
<path d="M76.3303 197.543L3.50539 155.472C-1.67774 152.488 -1.02519 147.248 4.95966 143.798L74.8947 103.405C80.8796 99.9554 89.9221 99.5824 95.1052 102.566L167.949 144.637C173.132 147.621 172.479 152.861 166.495 156.311L96.5595 196.704C90.5747 200.153 81.5321 200.526 76.349 197.543H76.3303Z" fill="url(#paint23_linear_305_4109)"/>
<path d="M167.93 144.638L95.0864 102.567C92.4016 101.019 88.6914 100.385 84.8879 100.59C87.6473 100.758 90.2388 101.411 92.2338 102.567L165.077 144.638C170.261 147.622 169.608 152.862 163.623 156.312L93.6881 196.704C90.7982 198.364 87.2185 199.315 83.676 199.52C88.0575 199.781 92.8677 198.83 96.5406 196.704L166.476 156.312C172.461 152.862 173.113 147.64 167.93 144.638Z" fill="#6EE8FC"/>
<path d="M85.2607 187.529C82.7064 187.529 80.2454 187.007 78.4182 185.963L24.1817 154.652C22.2986 153.57 21.2732 152.041 21.2732 150.344C21.2732 148.349 22.7275 146.353 25.2631 144.899L77.3368 114.838C81.9607 112.171 88.9709 111.891 92.9981 114.222L147.235 145.533C149.118 146.614 150.143 148.144 150.143 149.841C150.143 151.836 148.689 153.831 146.153 155.286L94.0795 185.347C91.5625 186.802 88.337 187.548 85.2607 187.548V187.529ZM86.1556 113.83C83.303 113.83 80.3013 114.52 77.9521 115.882L25.8784 145.943C23.7343 147.174 22.5037 148.778 22.5037 150.325C22.5037 151.556 23.3241 152.712 24.797 153.552L79.0335 184.862C82.7064 186.988 89.176 186.709 93.4456 184.247L145.519 154.186C147.663 152.955 148.894 151.351 148.894 149.803C148.894 148.573 148.074 147.416 146.601 146.577L92.3642 115.266C90.7049 114.315 88.4862 113.849 86.137 113.849L86.1556 113.83Z" fill="#480689"/>
<path d="M79.6114 197.543L6.76776 155.472C1.58463 152.488 2.23718 147.248 8.22202 143.798L78.1571 103.406C80.991 101.765 84.5335 100.832 88.0013 100.608C83.564 100.291 78.6232 101.242 74.8943 103.406L4.94061 143.798C-1.04423 147.248 -1.69679 152.47 3.48635 155.472L76.3299 197.543C79.052 199.109 82.8368 199.743 86.6962 199.501C84.0301 199.315 81.5504 198.662 79.6114 197.543Z" fill="#D4088C"/>
</g>
<path d="M171.435 116.646H135.302L95.0864 93.4285C89.9032 90.4447 80.8607 90.8177 74.8759 94.2677L36.1142 116.646H1.96742e-05V140.907C-0.149135 142.94 0.988172 144.88 3.46787 146.315L76.3115 188.386C81.4946 191.37 90.5371 190.997 96.522 187.547L166.457 147.155C169.571 145.364 171.211 143.089 171.379 140.907H171.398V116.646H171.435Z" fill="url(#paint24_linear_305_4109)"/>
<path d="M2.31192 142.567V118.306H38.4074L77.1691 95.9275C83.154 92.4775 92.1965 92.1046 97.3796 95.0883L137.596 118.306H171.435V116.627H135.302L95.0864 93.4099C89.9032 90.4262 80.8607 90.7992 74.8759 94.2491L36.1142 116.627H1.96742e-05V140.889C-0.149135 142.922 0.988172 144.861 3.46787 146.297L3.87805 146.539C2.70345 145.346 2.18141 143.966 2.27463 142.567H2.31192Z" fill="#D4088C"/>
<path d="M76.3303 164.125L3.50539 122.054C-1.67774 119.07 -1.02519 113.83 4.95966 110.38L74.8947 69.9874C80.8796 66.5374 89.9221 66.1645 95.1052 69.1482L167.949 111.219C173.132 114.203 172.479 119.443 166.495 122.893L96.5595 163.286C90.5747 166.736 81.5321 167.108 76.349 164.125H76.3303Z" fill="url(#paint25_linear_305_4109)"/>
<path d="M167.93 111.238L95.0864 69.1675C92.4016 67.6197 88.6914 66.9857 84.8879 67.1908C87.6473 67.3586 90.2388 68.0113 92.2338 69.1675L165.077 111.238C170.261 114.222 169.608 119.462 163.623 122.912L93.6881 163.305C90.7982 164.965 87.2185 165.916 83.676 166.121C88.0575 166.382 92.8677 165.431 96.5406 163.305L166.476 122.912C172.461 119.462 173.113 114.241 167.93 111.238Z" fill="#6EE8FC"/>
<path d="M85.2607 154.111C82.7064 154.111 80.2454 153.589 78.4182 152.545L24.1817 121.234C22.2986 120.152 21.2732 118.623 21.2732 116.926C21.2732 114.931 22.7275 112.935 25.2631 111.481L77.3368 81.4195C81.9607 78.7528 88.9896 78.4731 92.9981 80.8041L147.235 112.115C149.118 113.196 150.143 114.726 150.143 116.423C150.143 118.418 148.689 120.413 146.153 121.868L94.0795 151.929C91.5625 153.384 88.337 154.13 85.2607 154.13V154.111ZM79.0335 151.463C82.7064 153.589 89.176 153.309 93.4456 150.848L145.519 120.786C147.663 119.556 148.894 117.952 148.894 116.404C148.894 115.173 148.074 114.017 146.601 113.178L92.3642 81.8671C88.6913 79.7412 82.2217 80.0209 77.9521 82.4825L25.897 112.525C23.7529 113.756 22.5224 115.36 22.5224 116.908C22.5224 118.138 23.3427 119.295 24.8156 120.134L79.0521 151.444L79.0335 151.463Z" fill="url(#paint26_linear_305_4109)"/>
<path d="M79.6114 164.125L6.76776 122.054C1.58463 119.07 2.23718 113.83 8.22202 110.38L78.1571 69.9877C80.991 68.3466 84.5335 67.4142 88.0013 67.1904C83.564 66.8734 78.6232 67.8245 74.8943 69.9877L4.94061 110.399C-1.04423 113.849 -1.69679 119.07 3.48635 122.073L76.3299 164.144C79.052 165.71 82.8368 166.344 86.6962 166.102C84.0301 165.915 81.5504 165.263 79.6114 164.144V164.125Z" fill="#25BFEC"/>
<path d="M73.1047 177.627L11.5037 141.989C10.9444 141.672 10.4783 140.796 10.4783 140.031V137.122C10.4783 136.376 10.9444 136.022 11.5037 136.358L73.1234 172.013C73.6827 172.33 74.1488 173.207 74.1488 173.972V176.881C74.1488 177.627 73.6827 177.981 73.1234 177.645L73.1047 177.627Z" fill="#6DE0F6"/>
<path d="M12.846 141.206C12.2866 140.889 11.8205 140.013 11.8205 139.248V136.525L11.4849 136.339C10.9256 136.022 10.4595 136.358 10.4595 137.104V140.013C10.4595 140.759 10.9256 141.635 11.4849 141.971L73.1046 177.627C73.6639 177.944 74.13 177.608 74.13 176.862V176.676L12.846 141.206Z" fill="#267FE5"/>
<g opacity="0.4">
<path d="M288.373 290.02H252.24L212.024 266.803C206.841 263.819 197.798 264.192 191.813 267.642L153.052 290.02H116.938V314.281C116.788 316.314 117.926 318.254 120.405 319.689L193.249 361.76C198.432 364.744 207.475 364.371 213.459 360.921L283.395 320.529C286.508 318.738 288.149 316.463 288.317 314.281H288.335V290.02H288.373Z" fill="url(#paint27_linear_305_4109)"/>
<path d="M119.249 315.96V291.698H155.364L194.125 269.32C200.11 265.87 209.153 265.497 214.336 268.481L254.552 291.698H288.391V290.02H252.258L212.042 266.803C206.859 263.819 197.817 264.192 191.832 267.642L153.07 290.02H116.956V314.281C116.807 316.314 117.944 318.254 120.424 319.689L120.834 319.932C119.66 318.738 119.137 317.358 119.231 315.96H119.249Z" fill="#D4088C"/>
<path d="M193.286 337.499L120.443 295.428C115.26 292.444 115.912 287.204 121.897 283.754L191.832 243.361C197.817 239.911 206.86 239.538 212.043 242.522L284.886 284.593C290.069 287.577 289.417 292.817 283.432 296.267L213.497 336.66C207.512 340.11 198.47 340.482 193.286 337.499Z" fill="url(#paint28_linear_305_4109)"/>
<path d="M284.867 284.612L212.024 242.542C209.339 240.994 205.629 240.36 201.825 240.565C204.585 240.733 207.176 241.385 209.171 242.542L282.015 284.612C287.198 287.596 286.545 292.836 280.561 296.286L210.626 336.679C207.736 338.339 204.156 339.29 200.614 339.495C204.995 339.756 209.805 338.805 213.478 336.679L283.413 296.286C289.398 292.836 290.051 287.615 284.867 284.612Z" fill="#6EE8FC"/>
<path d="M202.198 327.485C199.644 327.485 197.183 326.963 195.356 325.919L141.119 294.608C139.236 293.526 138.211 291.997 138.211 290.3C138.211 288.305 139.665 286.309 142.201 284.855L194.274 254.794C198.88 252.127 205.908 251.847 209.936 254.178L264.172 285.489C266.055 286.57 267.081 288.1 267.081 289.797C267.081 291.792 265.626 293.787 263.091 295.242L211.017 325.303C208.5 326.758 205.275 327.504 202.198 327.504V327.485ZM195.971 324.837C199.644 326.963 206.114 326.683 210.383 324.222L262.457 294.16C264.601 292.93 265.831 291.326 265.831 289.778C265.831 288.547 265.011 287.391 263.538 286.552L209.302 255.241C205.629 253.115 199.159 253.395 194.89 255.857L142.816 285.918C140.672 287.149 139.441 288.752 139.441 290.3C139.441 291.531 140.262 292.687 141.734 293.526L195.971 324.837Z" fill="#480689"/>
<path d="M196.549 337.499L123.706 295.428C118.523 292.444 119.175 287.204 125.16 283.754L195.095 243.362C197.929 241.721 201.471 240.788 204.939 240.564C200.502 240.247 195.561 241.198 191.832 243.362L121.897 283.754C115.912 287.204 115.26 292.426 120.443 295.428L193.286 337.499C196.009 339.065 199.793 339.7 203.653 339.457C200.987 339.271 198.507 338.618 196.568 337.499H196.549Z" fill="#D4088C"/>
</g>
<g opacity="0.5">
<path d="M288.373 256.62H252.24L212.024 233.403C206.841 230.419 197.798 230.792 191.813 234.242L153.052 256.62H116.938V280.882C116.788 282.915 117.926 284.854 120.405 286.29L193.249 328.361C198.432 331.345 207.475 330.972 213.459 327.522L283.395 287.129C286.508 285.339 288.149 283.064 288.317 280.882H288.335V256.62H288.373Z" fill="url(#paint29_linear_305_4109)"/>
<path d="M119.249 282.542V258.28H155.364L194.125 235.902C200.11 232.452 209.153 232.079 214.336 235.063L254.552 258.28H288.391V256.602H252.258L212.042 233.385C206.859 230.401 197.817 230.774 191.832 234.224L153.07 256.602H116.956V280.863C116.807 282.896 117.944 284.836 120.424 286.272L120.834 286.514C119.66 285.32 119.137 283.94 119.231 282.542H119.249Z" fill="#D4088C"/>
<path d="M193.286 304.099L120.443 262.028C115.26 259.045 115.912 253.805 121.897 250.355L191.832 209.962C197.817 206.512 206.86 206.139 212.043 209.123L284.886 251.194C290.069 254.177 289.417 259.418 283.432 262.868L213.497 303.26C207.512 306.71 198.47 307.083 193.286 304.099Z" fill="url(#paint30_linear_305_4109)"/>
<path d="M284.867 251.194L212.024 209.124C209.339 207.576 205.629 206.942 201.825 207.147C204.585 207.315 207.176 207.967 209.171 209.124L282.015 251.194C287.198 254.178 286.545 259.418 280.561 262.868L210.626 303.261C207.736 304.921 204.156 305.872 200.614 306.077C204.995 306.338 209.805 305.387 213.478 303.261L283.413 262.868C289.398 259.418 290.051 254.197 284.867 251.194Z" fill="#6EE8FC"/>
<path d="M202.198 294.067C199.644 294.067 197.183 293.545 195.356 292.501L141.119 261.19C139.236 260.108 138.211 258.579 138.211 256.882C138.211 254.887 139.665 252.891 142.201 251.437L194.274 221.376C198.898 218.709 205.927 218.429 209.936 220.76L264.172 252.071C266.055 253.153 267.081 254.682 267.081 256.379C267.081 258.374 265.626 260.369 263.091 261.824L211.017 291.885C208.5 293.34 205.275 294.086 202.198 294.086V294.067ZM203.093 220.369C200.241 220.369 197.239 221.059 194.89 222.42L142.816 252.481C140.672 253.712 139.441 255.316 139.441 256.864C139.441 258.094 140.262 259.251 141.734 260.09L195.971 291.4C199.644 293.526 206.114 293.247 210.383 290.785L262.457 260.724C264.601 259.493 265.831 257.889 265.831 256.341C265.831 255.111 265.011 253.954 263.538 253.115L209.302 221.805C207.642 220.853 205.424 220.387 203.074 220.387L203.093 220.369Z" fill="#480689"/>
<path d="M196.549 304.1L123.706 262.029C118.523 259.045 119.175 253.805 125.16 250.355L195.095 209.962C197.929 208.321 201.471 207.389 204.939 207.165C200.502 206.848 195.561 207.799 191.832 209.962L121.897 250.355C115.912 253.805 115.26 259.026 120.443 262.029L193.286 304.1C196.009 305.666 199.793 306.3 203.653 306.058C200.987 305.871 198.507 305.219 196.568 304.1H196.549Z" fill="#D4088C"/>
</g>
<g opacity="0.7">
<path d="M288.373 223.202H252.24L212.024 199.985C206.841 197.001 197.798 197.374 191.813 200.824L153.052 223.202H116.938V247.464C116.788 249.497 117.926 251.436 120.405 252.872L193.249 294.943C198.432 297.927 207.475 297.554 213.459 294.104L283.395 253.711C286.508 251.921 288.149 249.646 288.317 247.464H288.335V223.202H288.373Z" fill="url(#paint31_linear_305_4109)"/>
<path d="M119.249 249.124V224.862H155.364L194.125 202.484C200.11 199.034 209.153 198.661 214.336 201.645L254.552 224.862H288.391V223.184H252.258L212.042 199.967C206.859 196.983 197.817 197.356 191.832 200.806L153.07 223.184H116.956V247.446C116.807 249.478 117.944 251.418 120.424 252.854L120.834 253.096C119.66 251.902 119.137 250.522 119.231 249.124H119.249Z" fill="#D4088C"/>
<path d="M193.286 270.681L120.443 228.61C115.26 225.627 115.912 220.387 121.897 216.937L191.832 176.544C197.817 173.094 206.86 172.721 212.043 175.705L284.886 217.776C290.069 220.759 289.417 226 283.432 229.45L213.497 269.842C207.512 273.292 198.47 273.665 193.286 270.681Z" fill="url(#paint32_linear_305_4109)"/>
<path d="M284.867 217.795L212.024 175.724C209.339 174.176 205.629 173.542 201.825 173.747C204.585 173.915 207.176 174.568 209.171 175.724L282.015 217.795C287.198 220.779 286.545 226.019 280.561 229.469L210.626 269.862C207.736 271.521 204.156 272.472 200.614 272.677C204.995 272.938 209.805 271.987 213.478 269.862L283.413 229.469C289.398 226.019 290.051 220.797 284.867 217.795Z" fill="#6EE8FC"/>
<path d="M202.198 260.668C199.644 260.668 197.183 260.146 195.356 259.101L141.119 227.791C139.236 226.709 138.211 225.18 138.211 223.483C138.211 221.487 139.665 219.492 142.201 218.037L194.274 187.976C198.88 185.309 205.908 185.03 209.936 187.361L264.172 218.672C266.055 219.753 267.081 221.282 267.081 222.979C267.081 224.975 265.626 226.97 263.091 228.425L211.017 258.486C208.5 259.941 205.275 260.686 202.198 260.686V260.668ZM203.093 186.969C200.241 186.969 197.239 187.659 194.89 189.02L142.816 219.082C140.672 220.313 139.441 221.916 139.441 223.464C139.441 224.695 140.262 225.851 141.734 226.69L195.971 258.001C199.644 260.127 206.114 259.847 210.383 257.386L262.457 227.324C264.601 226.094 265.831 224.49 265.831 222.942C265.831 221.711 265.011 220.555 263.538 219.716L209.302 188.405C207.642 187.454 205.424 186.988 203.074 186.988L203.093 186.969Z" fill="#480689"/>
<path d="M196.549 270.682L123.706 228.611C118.523 225.627 119.175 220.387 125.16 216.937L195.095 176.544C197.929 174.903 201.471 173.971 204.939 173.747C200.502 173.43 195.561 174.381 191.832 176.544L121.897 216.937C115.912 220.387 115.26 225.608 120.443 228.611L193.286 270.682C196.009 272.248 199.793 272.882 203.653 272.64C200.987 272.453 198.507 271.801 196.568 270.682H196.549Z" fill="#D4088C"/>
</g>
<path d="M288.373 189.784H252.24L212.024 166.567C206.841 163.583 197.798 163.956 191.813 167.406L153.052 189.784H116.938V214.046C116.788 216.079 117.926 218.018 120.405 219.454L193.249 261.525C198.432 264.509 207.475 264.136 213.459 260.686L283.395 220.293C286.508 218.503 288.149 216.228 288.317 214.046H288.335V189.784H288.373Z" fill="url(#paint33_linear_305_4109)"/>
<path d="M119.249 215.724V191.463H155.364L194.125 169.085C200.11 165.635 209.153 165.262 214.336 168.246L254.552 191.463H288.391V189.784H252.258L212.042 166.567C206.859 163.583 197.817 163.956 191.832 167.406L153.07 189.784H116.956V214.046C116.807 216.079 117.944 218.018 120.424 219.454L120.834 219.697C119.66 218.503 119.137 217.123 119.231 215.724H119.249Z" fill="#D4088C"/>
<path d="M193.286 237.263L120.443 195.193C115.26 192.209 115.912 186.969 121.897 183.519L191.832 143.126C197.817 139.676 206.86 139.303 212.043 142.287L284.886 184.358C290.069 187.342 289.417 192.582 283.432 196.032L213.497 236.424C207.512 239.874 198.47 240.247 193.286 237.263Z" fill="url(#paint34_linear_305_4109)"/>
<path d="M284.867 184.377L212.024 142.306C209.339 140.758 205.629 140.124 201.825 140.329C204.585 140.497 207.176 141.15 209.171 142.306L282.015 184.377C287.198 187.361 286.545 192.601 280.561 196.051L210.626 236.444C207.736 238.103 204.156 239.054 200.614 239.259C204.995 239.521 209.805 238.569 213.478 236.444L283.413 196.051C289.398 192.601 290.051 187.379 284.867 184.377Z" fill="#6EE8FC"/>
<path d="M202.198 227.007C199.681 227.007 197.276 226.504 195.486 225.459L141.25 194.148C139.46 193.104 138.453 191.65 138.453 190.046C138.453 188.144 139.87 186.223 142.331 184.806L194.405 154.744C198.954 152.115 205.871 151.835 209.824 154.129L264.06 185.44C265.869 186.484 266.857 187.939 266.857 189.542C266.857 191.444 265.44 193.365 262.979 194.783L210.905 224.844C208.425 226.28 205.237 227.007 202.198 227.007ZM203.093 153.308C200.203 153.308 197.146 154.017 194.778 155.397L142.704 185.458C140.485 186.745 139.218 188.405 139.218 190.046C139.218 191.37 140.075 192.601 141.641 193.496L195.878 224.807C199.625 226.97 206.207 226.69 210.551 224.191L262.625 194.13C264.843 192.843 266.111 191.183 266.111 189.542C266.111 188.218 265.254 186.987 263.687 186.092L209.451 154.782C207.754 153.812 205.48 153.327 203.112 153.327L203.093 153.308Z" fill="url(#paint35_linear_305_4109)"/>
<path d="M196.549 237.264L123.706 195.193C118.523 192.209 119.175 186.969 125.16 183.519L195.095 143.126C197.929 141.485 201.471 140.553 204.939 140.329C200.502 140.012 195.561 140.963 191.832 143.126L121.897 183.519C115.912 186.969 115.26 192.19 120.443 195.193L193.286 237.264C196.009 238.83 199.793 239.464 203.653 239.222C200.987 239.035 198.507 238.383 196.568 237.264H196.549Z" fill="#25BFEC"/>
<path d="M215.566 250.765L277.186 215.11C277.745 214.793 278.211 213.916 278.211 213.151V210.242C278.211 209.496 277.764 209.142 277.186 209.478L215.566 245.134C215.007 245.451 214.541 246.327 214.541 247.092V250.001C214.541 250.747 214.988 251.101 215.566 250.765Z" fill="#6DE0F6"/>
<path d="M275.825 214.345C276.384 214.028 276.85 213.151 276.85 212.387V209.664L277.186 209.478C277.745 209.161 278.211 209.496 278.211 210.242V213.151C278.211 213.897 277.745 214.774 277.186 215.109L215.566 250.765C215.007 251.082 214.541 250.747 214.541 250.001V249.814L275.825 214.364V214.345Z" fill="#267FE5"/>
<path d="M190.191 250.765L128.572 215.11C128.012 214.793 127.546 213.916 127.546 213.151V210.242C127.546 209.496 128.012 209.142 128.572 209.478L190.191 245.134C190.751 245.451 191.217 246.327 191.217 247.092V250.001C191.217 250.747 190.751 251.101 190.191 250.765Z" fill="#6DE0F6"/>
<path d="M129.933 214.345C129.373 214.028 128.907 213.151 128.907 212.387V209.664L128.572 209.478C128.012 209.161 127.546 209.496 127.546 210.242V213.151C127.546 213.897 128.012 214.774 128.572 215.109L190.191 250.765C190.751 251.082 191.217 250.747 191.217 250.001V249.814L129.933 214.364V214.345Z" fill="#267FE5"/>
<path d="M193.957 96.9713L121.114 54.9004C115.931 51.9167 116.583 46.6765 122.568 43.2265L192.503 2.85264C198.488 -0.597325 207.53 -0.970294 212.714 2.01346L285.557 44.0843C290.74 47.0681 290.088 52.3083 284.103 55.7583L214.168 96.1508C208.183 99.6007 199.141 99.9737 193.957 96.99V96.9713Z" fill="url(#paint36_linear_305_4109)"/>
<path d="M197.015 81.4928L147.924 53.1472C144.438 51.1332 144.867 47.6086 148.894 45.2776L196.027 18.0695C200.054 15.7384 206.151 15.496 209.637 17.51L258.728 45.8557C262.214 47.8697 261.786 51.3942 257.758 53.7253L210.625 80.9334C206.598 83.2644 200.502 83.5069 197.015 81.4928Z" fill="url(#paint37_linear_305_4109)"/>
<path d="M310.895 170.11L238.051 128.039C232.868 125.055 233.521 119.815 239.506 116.365L309.441 75.9728C315.425 72.5228 324.468 72.1498 329.651 75.1336L402.495 117.204C407.678 120.188 407.025 125.428 401.04 128.878L331.105 169.271C325.121 172.721 316.078 173.094 310.895 170.11Z" fill="url(#paint38_linear_305_4109)"/>
<path d="M76.3301 164.125L3.50515 122.054C-1.67799 119.07 -1.02543 113.83 4.95941 110.38L74.8945 69.9874C80.8793 66.5374 89.9219 66.1645 95.105 69.1482L167.949 111.219C173.132 114.203 172.479 119.443 166.494 122.893L96.5592 163.286C90.5744 166.736 81.5319 167.108 76.3487 164.125H76.3301Z" fill="url(#paint39_linear_305_4109)"/>
<path d="M193.286 237.263L120.443 195.193C115.26 192.209 115.912 186.969 121.897 183.519L191.832 143.126C197.817 139.676 206.859 139.303 212.042 142.287L284.886 184.358C290.069 187.342 289.417 192.582 283.432 196.032L213.497 236.424C207.512 239.874 198.469 240.247 193.286 237.263Z" fill="url(#paint40_linear_305_4109)"/>
<path d="M197.071 218.019L153.742 192.993C150.665 191.221 151.057 188.107 154.599 186.055L196.195 162.036C199.756 159.985 205.125 159.761 208.22 161.533L251.55 186.559C254.626 188.33 254.235 191.445 250.692 193.496L209.097 217.515C205.536 219.567 200.166 219.79 197.071 218.019Z" fill="url(#paint41_linear_305_4109)"/>
<path d="M320.385 92.6089L316.936 90.6135L320.385 88.6182L323.853 90.6135L320.385 92.6089Z" fill="#6DE0F6"/>
<path opacity="0.1" d="M327.302 96.6188L323.853 94.6234L327.302 92.6094L330.77 94.6234L327.302 96.6188Z" fill="#6DE0F6"/>
<path opacity="0.4" d="M334.219 100.609L330.77 98.6135L334.219 96.6182L337.687 98.6135L334.219 100.609Z" fill="#6DE0F6"/>
<path d="M341.136 104.6L337.687 102.605L341.136 100.609L344.604 102.605L341.136 104.6Z" fill="#6DE0F6"/>
<path opacity="0.4" d="M348.053 108.59L344.604 106.595L348.053 104.6L351.521 106.595L348.053 108.59Z" fill="#6DE0F6"/>
<path d="M354.97 112.582L351.521 110.586L354.97 108.591L358.438 110.586L354.97 112.582Z" fill="#6DE0F6"/>
<path d="M361.887 116.59L358.438 114.576L361.887 112.581L365.355 114.576L361.887 116.59Z" fill="#6DE0F6"/>
<path d="M368.804 120.582L365.355 118.586L368.804 116.591L372.272 118.586L368.804 120.582Z" fill="#6DE0F6"/>
<path opacity="0.1" d="M375.721 124.573L372.272 122.577L375.721 120.582L379.189 122.577L375.721 124.573Z" fill="#6DE0F6"/>
<path d="M313.449 96.6373L309.981 94.6233L313.449 92.6279L316.899 94.6233L313.449 96.6373Z" fill="#6DE0F6"/>
<path d="M320.366 100.628L316.898 98.6331L320.366 96.6377L323.815 98.6331L320.366 100.628Z" fill="#6DE0F6"/>
<path d="M327.284 104.619L323.816 102.623L327.284 100.628L330.733 102.623L327.284 104.619Z" fill="#6DE0F6"/>
<path d="M334.201 108.61L330.733 106.615L334.201 104.619L337.65 106.615L334.201 108.61Z" fill="#6DE0F6"/>
<path d="M341.118 112.6L337.65 110.605L341.118 108.609L344.567 110.605L341.118 112.6Z" fill="#6DE0F6"/>
<path d="M348.035 116.591L344.567 114.596L348.035 112.601L351.484 114.596L348.035 116.591Z" fill="#6DE0F6"/>
<path d="M354.952 120.6L351.484 118.605L354.952 116.591L358.401 118.605L354.952 120.6Z" fill="#6DE0F6"/>
<path d="M361.869 124.591L358.401 122.596L361.869 120.601L365.318 122.596L361.869 124.591Z" fill="#6DE0F6"/>
<path d="M368.786 128.583L365.318 126.587L368.786 124.592L372.235 126.587L368.786 128.583Z" fill="#6DE0F6"/>
<path d="M306.495 100.646L303.046 98.6321L306.495 96.6367L309.963 98.6321L306.495 100.646Z" fill="#6DE0F6"/>
<path d="M313.412 104.637L309.963 102.642L313.412 100.646L316.88 102.642L313.412 104.637Z" fill="#6DE0F6"/>
<path d="M320.329 108.627L316.88 106.632L320.329 104.637L323.797 106.632L320.329 108.627Z" fill="#6DE0F6"/>
<path opacity="0.1" d="M327.246 112.619L323.797 110.623L327.246 108.628L330.714 110.623L327.246 112.619Z" fill="#6DE0F6"/>
<path opacity="0.4" d="M334.163 116.609L330.714 114.614L334.163 112.618L337.631 114.614L334.163 116.609Z" fill="#6DE0F6"/>
<path opacity="0.4" d="M341.08 120.6L337.631 118.605L341.08 116.609L344.548 118.605L341.08 120.6Z" fill="#6DE0F6"/>
<path d="M347.997 124.609L344.548 122.614L347.997 120.618L351.465 122.614L347.997 124.609Z" fill="#6DE0F6"/>
<path d="M354.914 128.6L351.465 126.605L354.914 124.609L358.382 126.605L354.914 128.6Z" fill="#6DE0F6"/>
<path d="M361.831 132.591L358.382 130.596L361.831 128.601L365.299 130.596L361.831 132.591Z" fill="#6DE0F6"/>
<path opacity="0.4" d="M299.559 104.656L296.091 102.661L299.559 100.646L303.008 102.661L299.559 104.656Z" fill="#6DE0F6"/>
<path opacity="0.4" d="M306.476 108.647L303.008 106.652L306.476 104.656L309.925 106.652L306.476 108.647Z" fill="#6DE0F6"/>
<path opacity="0.1" d="M313.393 112.637L309.926 110.642L313.393 108.646L316.843 110.642L313.393 112.637Z" fill="#6DE0F6"/>
<path d="M320.31 116.628L316.843 114.633L320.31 112.638L323.76 114.633L320.31 116.628Z" fill="#6DE0F6"/>
<path d="M327.227 120.619L323.76 118.623L327.227 116.628L330.677 118.623L327.227 120.619Z" fill="#6DE0F6"/>
<path d="M334.145 124.629L330.677 122.615L334.145 120.619L337.594 122.615L334.145 124.629Z" fill="#6DE0F6"/>
<path opacity="0.4" d="M341.062 128.619L337.594 126.623L341.062 124.628L344.511 126.623L341.062 128.619Z" fill="#6DE0F6"/>
<path d="M347.979 132.61L344.511 130.615L347.979 128.619L351.428 130.615L347.979 132.61Z" fill="#6DE0F6"/>
<path d="M354.896 136.601L351.428 134.606L354.896 132.61L358.345 134.606L354.896 136.601Z" fill="#6DE0F6"/>
<path d="M292.605 108.666L289.156 106.67L292.605 104.656L296.073 106.67L292.605 108.666Z" fill="#6DE0F6"/>
<path d="M299.522 112.657L296.073 110.661L299.522 108.666L302.99 110.661L299.522 112.657Z" fill="#6DE0F6"/>
<path d="M306.439 116.647L302.99 114.652L306.439 112.656L309.907 114.652L306.439 116.647Z" fill="#6DE0F6"/>
<path d="M313.356 120.638L309.907 118.643L313.356 116.647L316.824 118.643L313.356 120.638Z" fill="#6DE0F6"/>
<path d="M320.273 124.628L316.824 122.633L320.273 120.638L323.741 122.633L320.273 124.628Z" fill="#6DE0F6"/>
<path d="M327.19 128.638L323.741 126.643L327.19 124.629L330.658 126.643L327.19 128.638Z" fill="#6DE0F6"/>
<path d="M334.107 132.628L330.658 130.633L334.107 128.638L337.575 130.633L334.107 132.628Z" fill="#6DE0F6"/>
<path d="M341.024 136.62L337.575 134.624L341.024 132.629L344.492 134.624L341.024 136.62Z" fill="#6DE0F6"/>
<path d="M347.941 140.611L344.492 138.615L347.941 136.62L351.409 138.615L347.941 140.611Z" fill="#6DE0F6"/>
<path d="M285.669 112.674L282.201 110.679L285.669 108.684L289.118 110.679L285.669 112.674Z" fill="#6DE0F6"/>
<path d="M292.586 116.666L289.118 114.67L292.586 112.675L296.035 114.67L292.586 116.666Z" fill="#6DE0F6"/>
<path opacity="0.4" d="M299.503 120.656L296.035 118.66L299.503 116.665L302.952 118.66L299.503 120.656Z" fill="#6DE0F6"/>
<path d="M306.42 124.647L302.952 122.652L306.42 120.656L309.869 122.652L306.42 124.647Z" fill="#6DE0F6"/>
<path opacity="0.1" d="M313.337 128.637L309.869 126.642L313.337 124.646L316.786 126.642L313.337 128.637Z" fill="#6DE0F6"/>
<path d="M320.254 132.647L316.787 130.652L320.254 128.638L323.704 130.652L320.254 132.647Z" fill="#6DE0F6"/>
<path d="M327.171 136.637L323.704 134.642L327.171 132.646L330.621 134.642L327.171 136.637Z" fill="#6DE0F6"/>
<path d="M334.088 140.628L330.621 138.633L334.088 136.638L337.538 138.633L334.088 140.628Z" fill="#6DE0F6"/>
<path d="M341.005 144.619L337.538 142.623L341.005 140.628L344.455 142.623L341.005 144.619Z" fill="#6DE0F6"/>
<path d="M278.715 116.684L275.266 114.689L278.715 112.693L282.183 114.689L278.715 116.684Z" fill="#6DE0F6"/>
<path d="M285.632 120.675L282.183 118.68L285.632 116.685L289.1 118.68L285.632 120.675Z" fill="#6DE0F6"/>
<path opacity="0.4" d="M292.549 124.666L289.1 122.67L292.549 120.675L296.017 122.67L292.549 124.666Z" fill="#6DE0F6"/>
<path d="M299.466 128.657L296.017 126.661L299.466 124.666L302.934 126.661L299.466 128.657Z" fill="#6DE0F6"/>
<path d="M306.383 132.666L302.934 130.652L306.383 128.656L309.851 130.652L306.383 132.666Z" fill="#6DE0F6"/>
<path opacity="0.1" d="M313.3 136.657L309.851 134.661L313.3 132.666L316.768 134.661L313.3 136.657Z" fill="#6DE0F6"/>
<path opacity="0.4" d="M320.217 140.647L316.768 138.652L320.217 136.656L323.685 138.652L320.217 140.647Z" fill="#6DE0F6"/>
<path d="M327.134 144.638L323.685 142.643L327.134 140.647L330.602 142.643L327.134 144.638Z" fill="#6DE0F6"/>
<path opacity="0.1" d="M334.051 148.628L330.602 146.633L334.051 144.638L337.519 146.633L334.051 148.628Z" fill="#6DE0F6"/>
<path d="M271.779 120.694L268.311 118.699L271.779 116.703L275.228 118.699L271.779 120.694Z" fill="#6DE0F6"/>
<path opacity="0.4" d="M278.696 124.685L275.228 122.69L278.696 120.694L282.145 122.69L278.696 124.685Z" fill="#6DE0F6"/>
<path d="M285.613 128.675L282.146 126.68L285.613 124.685L289.063 126.68L285.613 128.675Z" fill="#6DE0F6"/>
<path d="M292.53 132.667L289.062 130.671L292.53 128.676L295.98 130.671L292.53 132.667Z" fill="#6DE0F6"/>
<path d="M299.447 136.675L295.979 134.661L299.447 132.666L302.897 134.661L299.447 136.675Z" fill="#6DE0F6"/>
<path d="M306.365 140.667L302.897 138.671L306.365 136.676L309.814 138.671L306.365 140.667Z" fill="#6DE0F6"/>
<path d="M313.282 144.657L309.814 142.661L313.282 140.666L316.731 142.661L313.282 144.657Z" fill="#6DE0F6"/>
<path opacity="0.4" d="M320.199 148.648L316.731 146.653L320.199 144.657L323.648 146.653L320.199 148.648Z" fill="#6DE0F6"/>
<path d="M327.116 152.638L323.648 150.643L327.116 148.647L330.565 150.643L327.116 152.638Z" fill="#6DE0F6"/>
<path d="M264.825 124.703L261.375 122.707L264.825 120.712L268.293 122.707L264.825 124.703Z" fill="#6DE0F6"/>
<path opacity="0.1" d="M271.742 128.694L268.292 126.699L271.742 124.703L275.21 126.699L271.742 128.694Z" fill="#6DE0F6"/>
<path d="M278.659 132.684L275.21 130.689L278.659 128.693L282.127 130.689L278.659 132.684Z" fill="#6DE0F6"/>
<path d="M285.576 136.675L282.127 134.68L285.576 132.685L289.044 134.68L285.576 136.675Z" fill="#6DE0F6"/>
<path d="M292.493 140.684L289.044 138.689L292.493 136.675L295.961 138.689L292.493 140.684Z" fill="#6DE0F6"/>
<path d="M299.41 144.675L295.961 142.68L299.41 140.685L302.878 142.68L299.41 144.675Z" fill="#6DE0F6"/>
<path opacity="0.4" d="M306.327 148.666L302.878 146.67L306.327 144.675L309.795 146.67L306.327 148.666Z" fill="#6DE0F6"/>
<path d="M313.244 152.657L309.795 150.661L313.244 148.666L316.712 150.661L313.244 152.657Z" fill="#6DE0F6"/>
<path d="M320.161 156.647L316.712 154.652L320.161 152.656L323.629 154.652L320.161 156.647Z" fill="#6DE0F6"/>
<path d="M319.826 160.228C317.29 160.228 314.885 159.724 313.076 158.68L258.131 126.959C256.342 125.933 255.372 124.497 255.372 122.912C255.372 121.029 256.77 119.127 259.231 117.709L311.976 87.2378C316.544 84.5897 323.499 84.31 327.47 86.6037L382.415 118.325C384.205 119.35 385.174 120.786 385.174 122.371C385.174 124.255 383.776 126.157 381.315 127.574L328.57 158.046C326.072 159.482 322.865 160.228 319.826 160.228ZM320.739 85.5594C317.793 85.5594 314.68 86.2867 312.237 87.6854L259.492 118.157C257.199 119.481 255.894 121.215 255.894 122.912C255.894 124.292 256.789 125.579 258.411 126.511L313.356 158.232C317.178 160.452 323.909 160.153 328.346 157.598L381.091 127.127C383.384 125.803 384.689 124.068 384.689 122.371C384.689 120.991 383.795 119.705 382.172 118.772L327.227 87.0513C325.494 86.0443 323.163 85.5594 320.739 85.5594Z" fill="#480689"/>
<defs>
<linearGradient id="paint0_linear_305_4109" x1="101.425" y1="173.989" x2="310.261" y2="173.989" gradientUnits="userSpaceOnUse">
<stop stop-color="#A31FA9"/>
<stop offset="0.07" stop-color="#8A16A0"/>
<stop offset="0.15" stop-color="#740F98"/>
<stop offset="0.24" stop-color="#640A92"/>
<stop offset="0.34" stop-color="#5A068F"/>
<stop offset="0.48" stop-color="#58068E"/>
<stop offset="0.63" stop-color="#4D21A3"/>
<stop offset="0.94" stop-color="#3167D9"/>
<stop offset="1" stop-color="#2C75E4"/>
</linearGradient>
<linearGradient id="paint1_linear_305_4109" x1="712.234" y1="493.856" x2="840.212" y2="469.233" gradientUnits="userSpaceOnUse">
<stop stop-color="#8D139B"/>
<stop offset="0.17" stop-color="#841BA1"/>
<stop offset="0.43" stop-color="#6D32B1"/>
<stop offset="0.76" stop-color="#4958CC"/>
<stop offset="1" stop-color="#2979E4"/>
</linearGradient>
<linearGradient id="paint2_linear_305_4109" x1="-8.47676e-05" y1="140.571" x2="1.86435" y2="140.571" gradientUnits="userSpaceOnUse">
<stop stop-color="#A31FA9"/>
<stop offset="0.07" stop-color="#8A16A0"/>
<stop offset="0.15" stop-color="#740F98"/>
<stop offset="0.24" stop-color="#640A92"/>
<stop offset="0.34" stop-color="#5A068F"/>
<stop offset="0.48" stop-color="#58068E"/>
<stop offset="0.63" stop-color="#4D21A3"/>
<stop offset="0.94" stop-color="#3167D9"/>
<stop offset="1" stop-color="#2C75E4"/>
</linearGradient>
<linearGradient id="paint3_linear_305_4109" x1="697.784" y1="452.092" x2="825.746" y2="427.459" gradientUnits="userSpaceOnUse">
<stop stop-color="#8D139B"/>
<stop offset="0.17" stop-color="#841BA1"/>
<stop offset="0.43" stop-color="#6D32B1"/>
<stop offset="0.76" stop-color="#4958CC"/>
<stop offset="1" stop-color="#2979E4"/>
</linearGradient>
<linearGradient id="paint4_linear_305_4109" x1="-8.47676e-05" y1="107.172" x2="1.86435" y2="107.172" gradientUnits="userSpaceOnUse">
<stop stop-color="#A31FA9"/>
<stop offset="0.07" stop-color="#8A16A0"/>
<stop offset="0.15" stop-color="#740F98"/>
<stop offset="0.24" stop-color="#640A92"/>
<stop offset="0.34" stop-color="#5A068F"/>
<stop offset="0.48" stop-color="#58068E"/>
<stop offset="0.63" stop-color="#4D21A3"/>
<stop offset="0.94" stop-color="#3167D9"/>
<stop offset="1" stop-color="#2C75E4"/>
</linearGradient>
<linearGradient id="paint5_linear_305_4109" x1="683.317" y1="410.318" x2="811.296" y2="385.695" gradientUnits="userSpaceOnUse">
<stop stop-color="#8D139B"/>
<stop offset="0.17" stop-color="#841BA1"/>
<stop offset="0.43" stop-color="#6D32B1"/>
<stop offset="0.76" stop-color="#4958CC"/>
<stop offset="1" stop-color="#2979E4"/>
</linearGradient>
<linearGradient id="paint6_linear_305_4109" x1="-8.47676e-05" y1="73.7541" x2="1.86435" y2="73.7541" gradientUnits="userSpaceOnUse">
<stop stop-color="#3167D9"/>
<stop offset="1" stop-color="#2AA4E9"/>
</linearGradient>
<linearGradient id="paint7_linear_305_4109" x1="668.841" y1="368.56" x2="796.82" y2="343.937" gradientUnits="userSpaceOnUse">
<stop stop-color="#267FE5"/>
<stop offset="0.17" stop-color="#2C87E6"/>
<stop offset="0.44" stop-color="#3D9EEB"/>
<stop offset="0.78" stop-color="#58C4F2"/>
<stop offset="1" stop-color="#6EE1F8"/>
</linearGradient>
<linearGradient id="paint8_linear_305_4109" x1="138.901" y1="49.4923" x2="267.771" y2="49.4923" gradientUnits="userSpaceOnUse">
<stop stop-color="#6DE0F6"/>
<stop offset="0.16" stop-color="#67D7F4"/>
<stop offset="0.41" stop-color="#59C0F0"/>
<stop offset="0.73" stop-color="#429AEA"/>
<stop offset="1" stop-color="#2C75E4"/>
</linearGradient>
<linearGradient id="paint9_linear_305_4109" x1="218.363" y1="247.128" x2="427.199" y2="247.128" gradientUnits="userSpaceOnUse">
<stop stop-color="#A31FA9"/>
<stop offset="0.07" stop-color="#8A16A0"/>
<stop offset="0.15" stop-color="#740F98"/>
<stop offset="0.24" stop-color="#640A92"/>
<stop offset="0.34" stop-color="#5A068F"/>
<stop offset="0.48" stop-color="#58068E"/>
<stop offset="0.63" stop-color="#4D21A3"/>
<stop offset="0.94" stop-color="#3167D9"/>
<stop offset="1" stop-color="#2C75E4"/>
</linearGradient>
<linearGradient id="paint10_linear_305_4109" x1="831.619" y1="568.397" x2="959.582" y2="543.764" gradientUnits="userSpaceOnUse">
<stop stop-color="#8D139B"/>
<stop offset="0.17" stop-color="#841BA1"/>
<stop offset="0.43" stop-color="#6D32B1"/>
<stop offset="0.76" stop-color="#4958CC"/>
<stop offset="1" stop-color="#2979E4"/>
</linearGradient>
<linearGradient id="paint11_linear_305_4109" x1="218.363" y1="213.71" x2="427.199" y2="213.71" gradientUnits="userSpaceOnUse">
<stop stop-color="#A31FA9"/>
<stop offset="0.07" stop-color="#8A16A0"/>
<stop offset="0.15" stop-color="#740F98"/>
<stop offset="0.24" stop-color="#640A92"/>
<stop offset="0.34" stop-color="#5A068F"/>
<stop offset="0.48" stop-color="#58068E"/>
<stop offset="0.63" stop-color="#4D21A3"/>
<stop offset="0.94" stop-color="#3167D9"/>
<stop offset="1" stop-color="#2C75E4"/>
</linearGradient>
<linearGradient id="paint12_linear_305_4109" x1="817.153" y1="526.623" x2="945.131" y2="502" gradientUnits="userSpaceOnUse">
<stop stop-color="#8D139B"/>
<stop offset="0.17" stop-color="#841BA1"/>
<stop offset="0.43" stop-color="#6D32B1"/>
<stop offset="0.76" stop-color="#4958CC"/>
<stop offset="1" stop-color="#2979E4"/>
</linearGradient>
<linearGradient id="paint13_linear_305_4109" x1="218.363" y1="180.311" x2="427.199" y2="180.311" gradientUnits="userSpaceOnUse">
<stop stop-color="#A31FA9"/>
<stop offset="0.07" stop-color="#8A16A0"/>
<stop offset="0.15" stop-color="#740F98"/>
<stop offset="0.24" stop-color="#640A92"/>
<stop offset="0.34" stop-color="#5A068F"/>
<stop offset="0.48" stop-color="#58068E"/>
<stop offset="0.63" stop-color="#4D21A3"/>
<stop offset="0.94" stop-color="#3167D9"/>
<stop offset="1" stop-color="#2C75E4"/>
</linearGradient>
<linearGradient id="paint14_linear_305_4109" x1="802.677" y1="484.865" x2="930.656" y2="460.242" gradientUnits="userSpaceOnUse">
<stop stop-color="#8D139B"/>
<stop offset="0.17" stop-color="#841BA1"/>
<stop offset="0.43" stop-color="#6D32B1"/>
<stop offset="0.76" stop-color="#4958CC"/>
<stop offset="1" stop-color="#2979E4"/>
</linearGradient>
<linearGradient id="paint15_linear_305_4109" x1="218.363" y1="146.893" x2="427.199" y2="146.893" gradientUnits="userSpaceOnUse">
<stop stop-color="#A31FA9"/>
<stop offset="0.07" stop-color="#8A16A0"/>
<stop offset="0.15" stop-color="#740F98"/>
<stop offset="0.24" stop-color="#640A92"/>
<stop offset="0.34" stop-color="#5A068F"/>
<stop offset="0.48" stop-color="#58068E"/>
<stop offset="0.63" stop-color="#4D21A3"/>
<stop offset="0.94" stop-color="#3167D9"/>
<stop offset="1" stop-color="#2C75E4"/>
</linearGradient>
<linearGradient id="paint16_linear_305_4109" x1="788.227" y1="443.101" x2="916.189" y2="418.468" gradientUnits="userSpaceOnUse">
<stop stop-color="#267FE5"/>
<stop offset="0.17" stop-color="#2C87E6"/>
<stop offset="0.44" stop-color="#3D9EEB"/>
<stop offset="0.78" stop-color="#58C4F2"/>
<stop offset="1" stop-color="#6EE1F8"/>
</linearGradient>
<linearGradient id="paint17_linear_305_4109" x1="255.838" y1="122.632" x2="384.708" y2="122.632" gradientUnits="userSpaceOnUse">
<stop stop-color="#6DE0F6"/>
<stop offset="0.16" stop-color="#67D7F4"/>
<stop offset="0.41" stop-color="#59C0F0"/>
<stop offset="0.73" stop-color="#429AEA"/>
<stop offset="1" stop-color="#2C75E4"/>
</linearGradient>
<linearGradient id="paint18_linear_305_4109" x1="-16.2019" y1="241.143" x2="192.634" y2="241.143" gradientUnits="userSpaceOnUse">
<stop stop-color="#A31FA9"/>
<stop offset="0.07" stop-color="#8A16A0"/>
<stop offset="0.15" stop-color="#740F98"/>
<stop offset="0.24" stop-color="#640A92"/>
<stop offset="0.34" stop-color="#5A068F"/>
<stop offset="0.48" stop-color="#58068E"/>
<stop offset="0.63" stop-color="#4D21A3"/>
<stop offset="0.94" stop-color="#3167D9"/>
<stop offset="1" stop-color="#2C75E4"/>
</linearGradient>
<linearGradient id="paint19_linear_305_4109" x1="653.087" y1="594.758" x2="781.066" y2="570.135" gradientUnits="userSpaceOnUse">
<stop stop-color="#8D139B"/>
<stop offset="0.17" stop-color="#841BA1"/>
<stop offset="0.43" stop-color="#6D32B1"/>
<stop offset="0.76" stop-color="#4958CC"/>
<stop offset="1" stop-color="#2979E4"/>
</linearGradient>
<linearGradient id="paint20_linear_305_4109" x1="-16.2019" y1="207.725" x2="192.634" y2="207.725" gradientUnits="userSpaceOnUse">
<stop stop-color="#A31FA9"/>
<stop offset="0.07" stop-color="#8A16A0"/>
<stop offset="0.15" stop-color="#740F98"/>
<stop offset="0.24" stop-color="#640A92"/>
<stop offset="0.34" stop-color="#5A068F"/>
<stop offset="0.48" stop-color="#58068E"/>
<stop offset="0.63" stop-color="#4D21A3"/>
<stop offset="0.94" stop-color="#3167D9"/>
<stop offset="1" stop-color="#2C75E4"/>
</linearGradient>
<linearGradient id="paint21_linear_305_4109" x1="638.637" y1="552.993" x2="766.606" y2="528.386" gradientUnits="userSpaceOnUse">
<stop stop-color="#8D139B"/>
<stop offset="0.17" stop-color="#841BA1"/>
<stop offset="0.43" stop-color="#6D32B1"/>
<stop offset="0.76" stop-color="#4958CC"/>
<stop offset="1" stop-color="#2979E4"/>
</linearGradient>
<linearGradient id="paint22_linear_305_4109" x1="-16.2019" y1="174.325" x2="192.634" y2="174.325" gradientUnits="userSpaceOnUse">
<stop stop-color="#A31FA9"/>
<stop offset="0.07" stop-color="#8A16A0"/>
<stop offset="0.15" stop-color="#740F98"/>
<stop offset="0.24" stop-color="#640A92"/>
<stop offset="0.34" stop-color="#5A068F"/>
<stop offset="0.48" stop-color="#58068E"/>
<stop offset="0.63" stop-color="#4D21A3"/>
<stop offset="0.94" stop-color="#3167D9"/>
<stop offset="1" stop-color="#2C75E4"/>
</linearGradient>
<linearGradient id="paint23_linear_305_4109" x1="624.161" y1="511.236" x2="752.139" y2="486.613" gradientUnits="userSpaceOnUse">
<stop stop-color="#8D139B"/>
<stop offset="0.17" stop-color="#841BA1"/>
<stop offset="0.43" stop-color="#6D32B1"/>
<stop offset="0.76" stop-color="#4958CC"/>
<stop offset="1" stop-color="#2979E4"/>
</linearGradient>
<linearGradient id="paint24_linear_305_4109" x1="-16.2019" y1="140.907" x2="192.634" y2="140.907" gradientUnits="userSpaceOnUse">
<stop stop-color="#A31FA9"/>
<stop offset="0.07" stop-color="#8A16A0"/>
<stop offset="0.15" stop-color="#740F98"/>
<stop offset="0.24" stop-color="#640A92"/>
<stop offset="0.34" stop-color="#5A068F"/>
<stop offset="0.48" stop-color="#58068E"/>
<stop offset="0.63" stop-color="#4D21A3"/>
<stop offset="0.94" stop-color="#3167D9"/>
<stop offset="1" stop-color="#2C75E4"/>
</linearGradient>
<linearGradient id="paint25_linear_305_4109" x1="609.694" y1="469.462" x2="737.673" y2="444.839" gradientUnits="userSpaceOnUse">
<stop stop-color="#267FE5"/>
<stop offset="0.17" stop-color="#2C87E6"/>
<stop offset="0.44" stop-color="#3D9EEB"/>
<stop offset="0.78" stop-color="#58C4F2"/>
<stop offset="1" stop-color="#6EE1F8"/>
</linearGradient>
<linearGradient id="paint26_linear_305_4109" x1="21.2732" y1="116.646" x2="150.143" y2="116.646" gradientUnits="userSpaceOnUse">
<stop stop-color="#6DE0F6"/>
<stop offset="0.16" stop-color="#67D7F4"/>
<stop offset="0.41" stop-color="#59C0F0"/>
<stop offset="0.73" stop-color="#429AEA"/>
<stop offset="1" stop-color="#2C75E4"/>
</linearGradient>
<linearGradient id="paint27_linear_305_4109" x1="100.736" y1="314.281" x2="309.59" y2="314.281" gradientUnits="userSpaceOnUse">
<stop stop-color="#A31FA9"/>
<stop offset="0.07" stop-color="#8A16A0"/>
<stop offset="0.15" stop-color="#740F98"/>
<stop offset="0.24" stop-color="#640A92"/>
<stop offset="0.34" stop-color="#5A068F"/>
<stop offset="0.48" stop-color="#58068E"/>
<stop offset="0.63" stop-color="#4D21A3"/>
<stop offset="0.94" stop-color="#3167D9"/>
<stop offset="1" stop-color="#2C75E4"/>
</linearGradient>
<linearGradient id="paint28_linear_305_4109" x1="772.463" y1="669.314" x2="900.442" y2="644.691" gradientUnits="userSpaceOnUse">
<stop stop-color="#8D139B"/>
<stop offset="0.17" stop-color="#841BA1"/>
<stop offset="0.43" stop-color="#6D32B1"/>
<stop offset="0.76" stop-color="#4958CC"/>
<stop offset="1" stop-color="#2979E4"/>
</linearGradient>
<linearGradient id="paint29_linear_305_4109" x1="100.736" y1="280.863" x2="309.59" y2="280.863" gradientUnits="userSpaceOnUse">
<stop stop-color="#A31FA9"/>
<stop offset="0.07" stop-color="#8A16A0"/>
<stop offset="0.15" stop-color="#740F98"/>
<stop offset="0.24" stop-color="#640A92"/>
<stop offset="0.34" stop-color="#5A068F"/>
<stop offset="0.48" stop-color="#58068E"/>
<stop offset="0.63" stop-color="#4D21A3"/>
<stop offset="0.94" stop-color="#3167D9"/>
<stop offset="1" stop-color="#2C75E4"/>
</linearGradient>
<linearGradient id="paint30_linear_305_4109" x1="757.997" y1="627.541" x2="885.975" y2="602.918" gradientUnits="userSpaceOnUse">
<stop stop-color="#8D139B"/>
<stop offset="0.17" stop-color="#841BA1"/>
<stop offset="0.43" stop-color="#6D32B1"/>
<stop offset="0.76" stop-color="#4958CC"/>
<stop offset="1" stop-color="#2979E4"/>
</linearGradient>
<linearGradient id="paint31_linear_305_4109" x1="100.736" y1="247.464" x2="309.59" y2="247.464" gradientUnits="userSpaceOnUse">
<stop stop-color="#A31FA9"/>
<stop offset="0.07" stop-color="#8A16A0"/>
<stop offset="0.15" stop-color="#740F98"/>
<stop offset="0.24" stop-color="#640A92"/>
<stop offset="0.34" stop-color="#5A068F"/>
<stop offset="0.48" stop-color="#58068E"/>
<stop offset="0.63" stop-color="#4D21A3"/>
<stop offset="0.94" stop-color="#3167D9"/>
<stop offset="1" stop-color="#2C75E4"/>
</linearGradient>
<linearGradient id="paint32_linear_305_4109" x1="743.53" y1="585.767" x2="871.509" y2="561.144" gradientUnits="userSpaceOnUse">
<stop stop-color="#8D139B"/>
<stop offset="0.17" stop-color="#841BA1"/>
<stop offset="0.43" stop-color="#6D32B1"/>
<stop offset="0.76" stop-color="#4958CC"/>
<stop offset="1" stop-color="#2979E4"/>
</linearGradient>
<linearGradient id="paint33_linear_305_4109" x1="100.736" y1="214.046" x2="309.59" y2="214.046" gradientUnits="userSpaceOnUse">
<stop stop-color="#A31FA9"/>
<stop offset="0.07" stop-color="#8A16A0"/>
<stop offset="0.15" stop-color="#740F98"/>
<stop offset="0.24" stop-color="#640A92"/>
<stop offset="0.34" stop-color="#5A068F"/>
<stop offset="0.48" stop-color="#58068E"/>
<stop offset="0.63" stop-color="#4D21A3"/>
<stop offset="0.94" stop-color="#3167D9"/>
<stop offset="1" stop-color="#2C75E4"/>
</linearGradient>
<linearGradient id="paint34_linear_305_4109" x1="729.071" y1="544.018" x2="857.049" y2="519.395" gradientUnits="userSpaceOnUse">
<stop stop-color="#267FE5"/>
<stop offset="0.17" stop-color="#2C87E6"/>
<stop offset="0.44" stop-color="#3D9EEB"/>
<stop offset="0.78" stop-color="#58C4F2"/>
<stop offset="1" stop-color="#6EE1F8"/>
</linearGradient>
<linearGradient id="paint35_linear_305_4109" x1="138.472" y1="189.785" x2="266.838" y2="189.785" gradientUnits="userSpaceOnUse">
<stop stop-color="#6DE0F6"/>
<stop offset="0.16" stop-color="#67D7F4"/>
<stop offset="0.41" stop-color="#59C0F0"/>
<stop offset="0.73" stop-color="#429AEA"/>
<stop offset="1" stop-color="#2C75E4"/>
</linearGradient>
<linearGradient id="paint36_linear_305_4109" x1="668.841" y1="368.56" x2="796.82" y2="343.937" gradientUnits="userSpaceOnUse">
<stop stop-color="#8D139B"/>
<stop offset="0.17" stop-color="#841BA1"/>
<stop offset="0.43" stop-color="#6D32B1"/>
<stop offset="0.76" stop-color="#4958CC"/>
<stop offset="1" stop-color="#2979E4"/>
</linearGradient>
<linearGradient id="paint37_linear_305_4109" x1="690.154" y1="364.459" x2="776.402" y2="347.863" gradientUnits="userSpaceOnUse">
<stop offset="1" stop-color="#6EE1F8"/>
</linearGradient>
<linearGradient id="paint38_linear_305_4109" x1="788.227" y1="443.101" x2="916.189" y2="418.468" gradientUnits="userSpaceOnUse">
<stop stop-color="#8D139B"/>
<stop offset="0.17" stop-color="#841BA1"/>
<stop offset="0.43" stop-color="#6D32B1"/>
<stop offset="0.76" stop-color="#4958CC"/>
<stop offset="1" stop-color="#2979E4"/>
</linearGradient>
<linearGradient id="paint39_linear_305_4109" x1="609.694" y1="469.462" x2="737.673" y2="444.839" gradientUnits="userSpaceOnUse">
<stop stop-color="#8D139B"/>
<stop offset="0.17" stop-color="#841BA1"/>
<stop offset="0.43" stop-color="#6D32B1"/>
<stop offset="0.76" stop-color="#4958CC"/>
<stop offset="1" stop-color="#2979E4"/>
</linearGradient>
<linearGradient id="paint40_linear_305_4109" x1="729.07" y1="544.018" x2="857.049" y2="519.395" gradientUnits="userSpaceOnUse">
<stop offset="1" stop-color="#6EE1F8"/>
</linearGradient>
<linearGradient id="paint41_linear_305_4109" x1="758.071" y1="545.284" x2="831.884" y2="517.159" gradientUnits="userSpaceOnUse">
<stop stop-color="#A31FA9"/>
<stop offset="0.05" stop-color="#8A16A0"/>
<stop offset="0.11" stop-color="#740F98"/>
<stop offset="0.18" stop-color="#640A92"/>
<stop offset="0.26" stop-color="#5A068F"/>
<stop offset="0.36" stop-color="#58068E"/>
<stop offset="0.54" stop-color="#4D21A3"/>
<stop offset="0.93" stop-color="#3167D9"/>
<stop offset="1" stop-color="#2C75E4"/>
</linearGradient>
</defs>
</svg>
