<svg width="79" height="129" viewBox="0 0 79 129" fill="none" xmlns="http://www.w3.org/2000/svg">
<path d="M50.1439 92.3767L62.5807 101.94L64.124 92.7294C64.3403 91.4389 64.2893 90.2641 63.9652 89.284L59.9469 77.0717C59.0829 74.4413 56.4032 73.5549 53.0905 74.7929L50.1451 92.3696L50.1439 92.3767Z" fill="url(#paint0_linear_21_2667)"/>
<path d="M19.2589 87.2011L4.38415 92.1874L5.92752 82.9772C6.14376 81.6868 6.58202 80.5939 7.20086 79.7719L14.9807 69.5366C16.655 67.3315 19.4773 67.3671 22.2055 69.6174L19.2601 87.194L19.2589 87.2011Z" fill="url(#paint1_linear_21_2667)"/>
<path d="M37.7956 111.212L24.7921 109.033L24.4844 110.87C24.4844 110.87 24.4785 110.905 24.4761 110.919C24.1256 113.011 26.7557 115.194 30.3433 115.795C33.931 116.396 37.129 115.19 37.4795 113.098C37.4819 113.084 37.4855 113.063 37.4878 113.049L37.7956 111.212Z" fill="url(#paint2_linear_21_2667)"/>
<path d="M49.547 96.46L18.4847 91.2549L16.9378 100.486C16.9307 100.529 16.9236 100.571 16.9164 100.614C16.08 105.605 22.3571 110.82 30.9291 112.256C39.5012 113.692 47.1351 110.809 47.9716 105.818C47.9787 105.775 47.9858 105.733 47.993 105.69L49.5399 96.4588L49.547 96.46Z" fill="url(#paint3_linear_21_2667)"/>
<g style="mix-blend-mode:multiply" opacity="0.5">
<path d="M49.4935 96.7794L18.4313 91.5742L17.198 98.9339C17.198 98.9339 17.1873 98.9977 17.1814 99.0331C16.5136 103.018 22.9286 107.409 31.5006 108.846C40.0727 110.282 47.5688 108.222 48.2365 104.237C48.2425 104.202 48.2472 104.173 48.2531 104.138L49.4864 96.7782L49.4935 96.7794Z" fill="#C7BCD6"/>
</g>
<path d="M63.423 67.3758C67.2034 54.473 66.3977 40.5758 60.6964 28.4022C60.4546 27.8879 60.2116 27.3806 59.9603 26.8793L48.9303 4.87604L31.33 22.0817C30.929 22.4737 30.5268 22.8728 30.1376 23.2814C20.7793 32.9315 15.4861 45.814 14.855 59.2372L13.3845 90.415C13.375 90.4717 13.3655 90.5284 13.3572 90.5781C12.2451 97.2145 20.583 104.137 31.9699 106.045C43.3568 107.953 53.496 104.127 54.608 97.4905C54.6175 97.4338 54.627 97.3771 54.6283 97.3263L54.6354 97.3275L63.4088 67.3734L63.423 67.3758Z" fill="url(#paint4_linear_21_2667)"/>
<path d="M59.9532 26.8786L48.9303 4.8765L31.3301 22.0821C31.233 22.1825 31.1372 22.2758 31.0402 22.3762C32.9706 26.0381 38.1715 29.235 44.6662 30.3233C51.1608 31.4116 57.1127 30.0837 60.1385 27.2522C60.0795 27.1257 60.0193 27.0063 59.9603 26.8798L59.9532 26.8786Z" fill="url(#paint5_linear_21_2667)"/>
<path opacity="0.3" d="M59.9532 26.8786L48.9303 4.8765L31.3301 22.0821C31.233 22.1825 31.1372 22.2758 31.0402 22.3762C32.9706 26.0381 38.1715 29.235 44.6662 30.3233C51.1608 31.4116 57.1127 30.0837 60.1385 27.2522C60.0795 27.1257 60.0193 27.0063 59.9603 26.8798L59.9532 26.8786Z" fill="url(#paint6_linear_21_2667)"/>
<path style="mix-blend-mode:multiply" opacity="0.5" d="M63.423 67.3758C67.2034 54.473 66.3977 40.5758 60.6964 28.4022C60.4546 27.8879 60.2116 27.3806 59.9603 26.8793L48.9303 4.87604L31.33 22.0817C30.929 22.4737 30.5268 22.8728 30.1376 23.2814C20.7793 32.9315 15.4861 45.814 14.855 59.2372L13.3845 90.415C13.375 90.4717 13.3655 90.5284 13.3572 90.5781C12.2451 97.2145 20.583 104.137 31.9699 106.045C43.3568 107.953 53.496 104.127 54.608 97.4905C54.6175 97.4338 54.627 97.3771 54.6283 97.3263L54.6354 97.3275L63.4088 67.3734L63.423 67.3758Z" fill="url(#paint7_radial_21_2667)"/>
<path style="mix-blend-mode:color-dodge" opacity="0.7" d="M51.678 47.9429C50.3411 30.7785 45.0193 10.3806 47.1933 9.80454C51.0164 8.78322 62.7659 29.7553 64.1099 46.9209C65.2879 62.0322 55.1671 97.4607 51.2524 97.7669C47.3449 98.0743 52.8561 63.0543 51.678 47.9429Z" fill="url(#paint8_radial_21_2667)"/>
<path d="M34.6507 70.9087C34.1731 73.7589 32.8489 75.6145 31.0897 76.3256C31.0353 76.3457 29.3883 77.0392 29.334 77.0592C27.5121 77.7088 28.9285 75.7812 26.6491 73.8977C22.0573 70.1104 19.1225 62.3075 20.1015 56.4651C20.5851 53.5794 17.9227 53.1114 19.7151 52.4204C19.7624 52.3992 21.7438 51.7107 21.7911 51.6895C23.6011 51.067 25.8414 51.6174 28.1031 53.4761C32.6949 57.2634 35.6297 65.0663 34.6507 70.9087Z" fill="url(#paint9_linear_21_2667)"/>
<path d="M32.6562 71.6752C31.6784 77.5104 27.1574 79.1729 22.5656 75.3857C17.9738 71.5984 15.039 63.7955 16.018 57.9531C16.997 52.1108 21.5168 50.4554 26.1086 54.2426C30.7004 58.0299 33.6352 65.8328 32.6562 71.6752Z" fill="url(#paint10_linear_21_2667)"/>
<path d="M31.0937 70.3856C30.3 75.1219 26.6326 76.4755 22.8982 73.4005C19.1638 70.3255 16.7856 63.9862 17.5804 59.2428C18.3753 54.4995 22.0415 53.153 25.7747 56.2351C29.5091 59.3101 31.8873 65.6494 31.0937 70.3856Z" fill="url(#paint11_linear_21_2667)"/>
<path style="mix-blend-mode:screen" d="M29.9295 67.7626C29.3319 71.329 26.5737 72.3465 23.7617 70.0311C20.9568 67.7169 19.161 62.9476 19.7586 59.3812C20.3562 55.8149 23.1144 54.7973 25.9264 57.1127C28.7313 59.427 30.5271 64.1962 29.9295 67.7626Z" fill="url(#paint12_linear_21_2667)"/>
<path d="M24.4693 73.0296C20.735 69.9546 18.3567 63.6153 19.1504 58.879C19.5163 56.6952 20.4903 55.2329 21.8086 54.5864C19.7261 54.6165 18.0807 56.2578 17.5793 59.2499C16.7856 63.9862 19.1639 70.3255 22.8971 73.4076C24.9084 75.064 26.9019 75.4345 28.4343 74.6853C27.2134 74.7067 25.8452 74.1713 24.4682 73.0366L24.4693 73.0296Z" fill="url(#paint13_linear_21_2667)"/>
<path style="mix-blend-mode:color-dodge" d="M26.416 54.0603C24.2122 52.2477 21.6726 51.9169 20.4101 52.2739C22.0211 52.0993 24.1468 52.7252 26.0104 54.2621C30.6022 58.0493 33.537 65.8523 32.558 71.6946C32.0483 74.7363 30.3057 76.653 28.3622 77.2457C30.3575 76.8657 32.3755 74.9588 32.9565 71.4917C33.9343 65.6564 30.9995 57.8534 26.4089 54.0591L26.416 54.0603Z" fill="url(#paint14_radial_21_2667)"/>
<path d="M17.2929 99.8458L2.93532 118.841L0.954779 117.175L2.43161 108.362C2.63834 107.129 3.09925 105.814 3.7859 104.5L12.3216 88.1881C14.1566 84.676 17.3645 81.671 20.5365 80.4895L22.4355 82.1198L17.2929 99.8458Z" fill="url(#paint15_linear_21_2667)"/>
<path d="M19.2735 101.512L2.93534 118.841L4.41217 110.028C4.6189 108.794 5.081 107.472 5.76527 106.173L14.301 89.861C16.136 86.3489 19.3439 83.3438 22.5159 82.1624L19.2723 101.519L19.2735 101.512Z" fill="url(#paint16_linear_21_2667)"/>
<path style="mix-blend-mode:color-dodge" d="M4.56322 110.301C4.76996 109.067 5.23086 107.752 5.91632 106.446L14.452 90.1338C16.2089 86.7835 19.2157 83.8906 22.2448 82.605L22.3328 82.0803C19.1596 83.2689 15.9517 86.2739 14.1179 89.7789L5.58216 106.091C4.8967 107.397 4.4358 108.712 4.22906 109.946L2.75223 118.759L3.23134 118.249L4.56322 110.301Z" fill="url(#paint17_radial_21_2667)"/>
<path d="M47.873 104.97L55.254 127.608L57.6694 126.679L59.1462 117.866C59.3529 116.632 59.3459 115.239 59.125 113.773L56.373 95.5699C55.7832 91.6514 53.7301 87.7648 51.1165 85.6138L48.7898 86.536L47.873 104.97Z" fill="url(#paint18_linear_21_2667)"/>
<path d="M45.4577 105.899L55.2541 127.608L56.7309 118.795C56.9376 117.561 56.9318 116.161 56.7085 114.709L53.9566 96.5058C53.3667 92.5874 51.3137 88.7008 48.7001 86.5498L45.4565 105.906L45.4577 105.899Z" fill="url(#paint19_linear_21_2667)"/>
<path style="mix-blend-mode:color-dodge" d="M57.0004 114.751L54.2484 96.5478C53.6586 92.6294 51.6055 88.7427 48.9919 86.5918L48.9729 86.7052C51.2898 88.9304 53.0737 92.5095 53.6212 96.1147L56.3732 114.318C56.5953 115.777 56.6023 117.17 56.3944 118.411L55.034 126.529L55.5436 127.664L57.0204 118.851C57.2271 117.617 57.2201 116.224 56.998 114.765L57.0004 114.751Z" fill="url(#paint20_radial_21_2667)"/>
<defs>
<linearGradient id="paint0_linear_21_2667" x1="55.7577" y1="88.4992" x2="94.8786" y2="83.5886" gradientUnits="userSpaceOnUse">
<stop offset="0.04" stop-color="#6B24D6"/>
<stop offset="0.29" stop-color="#7733DC"/>
<stop offset="0.79" stop-color="#965BEC"/>
<stop offset="1" stop-color="#A56EF4"/>
</linearGradient>
<linearGradient id="paint1_linear_21_2667" x1="35.146" y1="89.5718" x2="-7.81757" y2="72.0871" gradientUnits="userSpaceOnUse">
<stop offset="0.04" stop-color="#6B24D6"/>
<stop offset="0.29" stop-color="#7733DC"/>
<stop offset="0.79" stop-color="#965BEC"/>
<stop offset="1" stop-color="#A56EF4"/>
</linearGradient>
<linearGradient id="paint2_linear_21_2667" x1="24.3736" y1="111.879" x2="37.1785" y2="114.025" gradientUnits="userSpaceOnUse">
<stop offset="0.02" stop-color="#45108A"/>
<stop offset="0.29" stop-color="#3D065F"/>
<stop offset="1" stop-color="#10054D"/>
</linearGradient>
<linearGradient id="paint3_linear_21_2667" x1="17.0926" y1="100.476" x2="47.6656" y2="105.599" gradientUnits="userSpaceOnUse">
<stop stop-color="#5C1CCC"/>
<stop offset="0.03" stop-color="#6223CF"/>
<stop offset="0.07" stop-color="#7437D9"/>
<stop offset="0.12" stop-color="#9258E9"/>
<stop offset="0.14" stop-color="#A56EF4"/>
<stop offset="0.23" stop-color="#C994FF"/>
<stop offset="0.28" stop-color="#AE79EF"/>
<stop offset="0.38" stop-color="#7945D1"/>
<stop offset="0.54" stop-color="#4916A1"/>
<stop offset="0.62" stop-color="#4B16A4"/>
<stop offset="0.69" stop-color="#5219AF"/>
<stop offset="0.76" stop-color="#5D1EC0"/>
<stop offset="0.82" stop-color="#6B24D6"/>
<stop offset="0.94" stop-color="#5B1DBC"/>
<stop offset="1" stop-color="#531AB0"/>
</linearGradient>
<linearGradient id="paint4_linear_21_2667" x1="15.9989" y1="51.3669" x2="64.5882" y2="59.5091" gradientUnits="userSpaceOnUse">
<stop offset="0.01" stop-color="#C1A1D5"/>
<stop offset="0.04" stop-color="#C7ABD9"/>
<stop offset="0.1" stop-color="#D9C6E5"/>
<stop offset="0.18" stop-color="#F6F2F9"/>
<stop offset="0.2" stop-color="white"/>
<stop offset="0.23" stop-color="#F9F5FB"/>
<stop offset="0.29" stop-color="#E9DBF1"/>
<stop offset="0.36" stop-color="#D1B4E3"/>
<stop offset="0.43" stop-color="#B294D5"/>
<stop offset="0.49" stop-color="#9B7CCB"/>
<stop offset="0.56" stop-color="#8D6EC5"/>
<stop offset="0.61" stop-color="#8969C3"/>
<stop offset="0.76" stop-color="#9371C5"/>
<stop offset="1" stop-color="#B086CC"/>
</linearGradient>
<linearGradient id="paint5_linear_21_2667" x1="37.9445" y1="13.2771" x2="61.8232" y2="27.9427" gradientUnits="userSpaceOnUse">
<stop stop-color="#5C1CCC"/>
<stop offset="0.04" stop-color="#6223CF"/>
<stop offset="0.09" stop-color="#7437D9"/>
<stop offset="0.16" stop-color="#9258E9"/>
<stop offset="0.19" stop-color="#A56EF4"/>
<stop offset="0.34" stop-color="#7945D1"/>
<stop offset="0.44" stop-color="#6D37C6"/>
<stop offset="0.6" stop-color="#5E26B9"/>
<stop offset="0.77" stop-color="#551DB2"/>
<stop offset="1" stop-color="#531AB0"/>
</linearGradient>
<linearGradient id="paint6_linear_21_2667" x1="58.7283" y1="15.3967" x2="22.9305" y2="26.0541" gradientUnits="userSpaceOnUse">
<stop stop-color="#5C1CCC"/>
<stop offset="0.04" stop-color="#6223CF"/>
<stop offset="0.09" stop-color="#7437D9"/>
<stop offset="0.16" stop-color="#9258E9"/>
<stop offset="0.19" stop-color="#A56EF4"/>
<stop offset="0.34" stop-color="#7945D1"/>
<stop offset="0.44" stop-color="#6D37C6"/>
<stop offset="0.6" stop-color="#5E26B9"/>
<stop offset="0.77" stop-color="#551DB2"/>
<stop offset="1" stop-color="#531AB0"/>
</linearGradient>
<radialGradient id="paint7_radial_21_2667" cx="0" cy="0" r="1" gradientUnits="userSpaceOnUse" gradientTransform="translate(40.4521 55.4704) rotate(9.51277) scale(34.9605 55.9367)">
<stop offset="0.53" stop-color="white"/>
<stop offset="0.6" stop-color="#FAFAFC"/>
<stop offset="0.68" stop-color="#EFECF5"/>
<stop offset="0.76" stop-color="#DBD4EA"/>
<stop offset="0.85" stop-color="#C0B4D9"/>
<stop offset="0.95" stop-color="#9D8AC5"/>
<stop offset="1" stop-color="#8770B8"/>
</radialGradient>
<radialGradient id="paint8_radial_21_2667" cx="0" cy="0" r="1" gradientUnits="userSpaceOnUse" gradientTransform="translate(18.042 56.1181) rotate(175.533) scale(9.61503 41.8045)">
<stop stop-color="#972A74"/>
<stop offset="0.02" stop-color="#8C276B"/>
<stop offset="0.11" stop-color="#671C4F"/>
<stop offset="0.21" stop-color="#471336"/>
<stop offset="0.32" stop-color="#2D0C22"/>
<stop offset="0.43" stop-color="#180613"/>
<stop offset="0.57" stop-color="#0A0308"/>
<stop offset="0.73" stop-color="#020001"/>
<stop offset="1"/>
</radialGradient>
<linearGradient id="paint9_linear_21_2667" x1="22.6957" y1="51.1632" x2="32.0707" y2="76.2568" gradientUnits="userSpaceOnUse">
<stop stop-color="#5C1CCC"/>
<stop offset="0.03" stop-color="#6223CF"/>
<stop offset="0.07" stop-color="#7437D9"/>
<stop offset="0.12" stop-color="#9258E9"/>
<stop offset="0.14" stop-color="#A56EF4"/>
<stop offset="0.23" stop-color="#C994FF"/>
<stop offset="0.28" stop-color="#AE79EF"/>
<stop offset="0.38" stop-color="#7945D1"/>
<stop offset="0.54" stop-color="#4916A1"/>
<stop offset="0.62" stop-color="#4B16A4"/>
<stop offset="0.69" stop-color="#5219AF"/>
<stop offset="0.76" stop-color="#5D1EC0"/>
<stop offset="0.82" stop-color="#6B24D6"/>
<stop offset="0.94" stop-color="#5B1DBC"/>
<stop offset="1" stop-color="#531AB0"/>
</linearGradient>
<linearGradient id="paint10_linear_21_2667" x1="15.1269" y1="63.2708" x2="33.5473" y2="66.3575" gradientUnits="userSpaceOnUse">
<stop offset="0.04" stop-color="#A56EF4"/>
<stop offset="0.36" stop-color="#C994FF"/>
<stop offset="0.54" stop-color="#B279F5"/>
<stop offset="0.91" stop-color="#7935DC"/>
<stop offset="1" stop-color="#6B24D6"/>
</linearGradient>
<linearGradient id="paint11_linear_21_2667" x1="27.9486" y1="74.4946" x2="20.5168" y2="54.5959" gradientUnits="userSpaceOnUse">
<stop offset="0.04" stop-color="#138BBD"/>
<stop offset="0.23" stop-color="#169AC6"/>
<stop offset="0.59" stop-color="#1EC2DF"/>
<stop offset="1" stop-color="#2AF6FF"/>
</linearGradient>
<linearGradient id="paint12_linear_21_2667" x1="18.8874" y1="52.8352" x2="26.5126" y2="66.5777" gradientUnits="userSpaceOnUse">
<stop stop-color="white"/>
<stop offset="1"/>
</linearGradient>
<linearGradient id="paint13_linear_21_2667" x1="25.7258" y1="75.6237" x2="18.334" y2="55.8338" gradientUnits="userSpaceOnUse">
<stop stop-color="#5C1CCC"/>
<stop offset="0.23" stop-color="#BA85FF"/>
<stop offset="0.38" stop-color="#7945D1"/>
<stop offset="0.54" stop-color="#4916A1"/>
<stop offset="0.61" stop-color="#4B16A4"/>
<stop offset="0.68" stop-color="#5219AF"/>
<stop offset="0.74" stop-color="#5D1EC0"/>
<stop offset="0.79" stop-color="#6B24D6"/>
<stop offset="0.93" stop-color="#5B1DBC"/>
<stop offset="1" stop-color="#531AB0"/>
</linearGradient>
<radialGradient id="paint14_radial_21_2667" cx="0" cy="0" r="1" gradientUnits="userSpaceOnUse" gradientTransform="translate(26.1866 64.8684) rotate(9.51277) scale(10.0216 10.0216)">
<stop stop-color="white"/>
<stop offset="1"/>
</radialGradient>
<linearGradient id="paint15_linear_21_2667" x1="4.07962" y1="114.536" x2="23.25" y2="77.8681" gradientUnits="userSpaceOnUse">
<stop offset="0.2" stop-color="#7734DC"/>
<stop offset="0.39" stop-color="#8C4EE7"/>
<stop offset="0.59" stop-color="#A56EF4"/>
<stop offset="0.67" stop-color="#BA8AFF"/>
<stop offset="0.8" stop-color="#A067F1"/>
<stop offset="1" stop-color="#9155EA"/>
</linearGradient>
<linearGradient id="paint16_linear_21_2667" x1="5.96926" y1="101.345" x2="51.6728" y2="95.6059" gradientUnits="userSpaceOnUse">
<stop offset="0.04" stop-color="#6B24D6"/>
<stop offset="0.29" stop-color="#7733DC"/>
<stop offset="0.79" stop-color="#965BEC"/>
<stop offset="1" stop-color="#A56EF4"/>
</linearGradient>
<radialGradient id="paint17_radial_21_2667" cx="0" cy="0" r="1" gradientUnits="userSpaceOnUse" gradientTransform="translate(20.9191 97.7712) rotate(9.51277) scale(14.716 14.716)">
<stop stop-color="white"/>
<stop offset="1"/>
</radialGradient>
<linearGradient id="paint18_linear_21_2667" x1="53.7328" y1="110.238" x2="50.2464" y2="88.6316" gradientUnits="userSpaceOnUse">
<stop offset="0.04" stop-color="#6B24D6"/>
<stop offset="0.19" stop-color="#7633DB"/>
<stop offset="0.2" stop-color="#7734DC"/>
<stop offset="0.39" stop-color="#8C4EE7"/>
<stop offset="0.59" stop-color="#A56EF4"/>
<stop offset="0.67" stop-color="#BA8AFF"/>
<stop offset="0.8" stop-color="#A067F1"/>
<stop offset="1" stop-color="#9155EA"/>
</linearGradient>
<linearGradient id="paint19_linear_21_2667" x1="83.9578" y1="120.092" x2="18.5857" y2="93.4798" gradientUnits="userSpaceOnUse">
<stop offset="0.04" stop-color="#6B24D6"/>
<stop offset="0.29" stop-color="#7733DC"/>
<stop offset="0.79" stop-color="#965BEC"/>
<stop offset="1" stop-color="#A56EF4"/>
</linearGradient>
<radialGradient id="paint20_radial_21_2667" cx="0" cy="0" r="1" gradientUnits="userSpaceOnUse" gradientTransform="translate(46.5924 100.346) rotate(9.51277) scale(14.7017 14.7017)">
<stop stop-color="white"/>
<stop offset="1"/>
</radialGradient>
</defs>
</svg>
