<svg width="85" height="120" viewBox="0 0 85 120" fill="none" xmlns="http://www.w3.org/2000/svg">
<path d="M76.2767 0.563615C74.7728 -0.313669 72.6893 -0.188343 70.3864 1.14325L23.4204 28.2451C18.8459 30.8769 15.1488 37.2842 15.1645 42.5323L15.2428 67.4566C15.2428 70.0571 16.1671 71.89 17.6553 72.7516L23.107 75.9161L81.7128 3.72811L76.2611 0.563615H76.2767Z" fill="url(#paint0_linear_21_2704)"/>
<path d="M84.2037 33.947L84.1253 9.02273C84.1253 3.77469 80.3969 1.6598 75.8225 4.29166L48.4386 20.1141L28.8564 31.4248C24.282 34.0567 20.5848 40.464 20.6005 45.712L20.6788 70.6363C20.6788 75.8843 24.4073 77.9992 28.9817 75.3674L63.9791 55.1585C67.2533 57.1167 74.3655 60.4692 82.5587 58.8086C82.3551 58.5893 78.611 54.4535 77.4047 47.2473C81.2585 44.2238 84.2037 38.6467 84.188 33.9783L84.2037 33.947Z" fill="url(#paint1_linear_21_2704)"/>
<g style="mix-blend-mode:multiply" opacity="0.6">
<path d="M26.7258 51.885L20.6318 55.3941L20.6788 70.6212C20.6788 75.8693 24.4073 77.9842 28.9817 75.3523L40.0888 68.9293C41.0914 66.0468 41.6553 63.133 41.6397 60.3758C41.6083 50.945 34.9347 47.1382 26.7102 51.885H26.7258Z" fill="#0F95F6"/>
</g>
<path d="M5.59266 99.4297C5.73365 106.965 1.61355 116.333 1.39423 116.834L6.84592 119.999C7.06524 119.513 11.1853 110.129 11.0444 102.594L5.59266 99.4297Z" fill="url(#paint2_linear_21_2704)"/>
<path d="M45.1018 51.2421C42.3916 49.6756 38.6475 49.8949 34.5117 52.2761L14.8355 63.6338C6.61096 68.3805 -0.0313433 79.8792 -1.16819e-05 89.3257C-1.16819e-05 94.0098 1.67623 97.3153 4.33941 98.8662L9.79111 102.031L50.5535 54.4066L45.1018 51.2421Z" fill="url(#paint3_linear_21_2704)"/>
<path d="M39.9634 55.4406L30.1723 61.096L20.2872 66.7983C12.0627 71.5451 5.43602 83.0437 5.45169 92.4746C5.45169 97.8636 7.6449 101.404 11.0444 102.579C11.1854 110.114 7.06526 119.482 6.84594 119.984C13.2219 113.905 18.7206 104.929 21.2428 100.48L40.0574 89.6234C48.282 84.8766 54.9086 73.378 54.8929 63.9315C54.8616 54.5007 48.188 50.6939 39.9634 55.4406Z" fill="url(#paint4_linear_21_2704)"/>
<path d="M25.4726 81.4459C25.4726 82.7149 24.4543 84.3284 23.1854 85.0647C21.9165 85.801 20.8982 85.3624 20.8982 84.0935C20.8982 82.8245 21.9165 81.2109 23.1854 80.4747C24.4543 79.7384 25.4726 80.177 25.4726 81.4459Z" fill="white"/>
<path d="M33.0705 77.0602C33.0705 78.3291 32.0522 79.9427 30.7833 80.679C29.5144 81.4153 28.4961 80.9766 28.4961 79.7077C28.4961 78.4388 29.5144 76.8252 30.7833 76.0889C32.0522 75.3526 33.0705 75.7913 33.0705 77.0602Z" fill="white"/>
<path d="M40.6528 72.6735C40.6528 73.9424 39.6345 75.556 38.3656 76.2923C37.0966 77.0286 36.0784 76.5899 36.0784 75.321C36.0784 74.0521 37.0966 72.4385 38.3656 71.7022C39.6345 70.9659 40.6528 71.4045 40.6528 72.6735Z" fill="white"/>
<path d="M47.154 43.2527C47.154 44.7252 45.9634 46.6208 44.4752 47.4668C43.0026 48.3127 41.7963 47.8114 41.7963 46.3388C41.7963 44.8662 42.9869 42.9707 44.4752 42.1247C45.9478 41.2788 47.154 41.7801 47.154 43.2527Z" fill="white"/>
<path d="M56.0208 38.1462C56.0208 39.6188 54.8302 41.5144 53.342 42.3603C51.8694 43.2063 50.6631 42.705 50.6631 41.2324C50.6631 39.7598 51.8537 37.8642 53.342 37.0183C54.8146 36.1723 56.0208 36.6736 56.0208 38.1462Z" fill="white"/>
<path d="M64.9034 33.0232C64.9034 34.4958 63.7128 36.3913 62.2245 37.2373C60.7519 38.0832 59.5457 37.5819 59.5457 36.1093C59.5457 34.6367 60.7363 32.7412 62.2245 31.8952C63.6971 31.0493 64.9034 31.5506 64.9034 33.0232Z" fill="white"/>
<path style="mix-blend-mode:screen" d="M75.8224 4.29199C56.5535 15.9943 44.4595 22.856 28.8564 31.4095C44.0835 22.151 56.0992 15.1014 75.8224 4.29199Z" fill="url(#paint5_radial_21_2704)"/>
<path style="mix-blend-mode:screen" d="M39.9634 55.4404C31.7232 60.4378 24.094 64.9809 20.2872 66.7981C23.7336 64.4326 33.8851 58.3543 39.9634 55.4404Z" fill="url(#paint6_radial_21_2704)"/>
<defs>
<linearGradient id="paint0_linear_21_2704" x1="64.3237" y1="-6.345" x2="18.3916" y2="73.2059" gradientUnits="userSpaceOnUse">
<stop offset="0.09375" stop-color="#A31FA9"/>
<stop offset="0.83" stop-color="#0F95F6"/>
<stop offset="1" stop-color="#00255B"/>
</linearGradient>
<linearGradient id="paint1_linear_21_2704" x1="20.6005" y1="39.8217" x2="84.2036" y2="39.8217" gradientUnits="userSpaceOnUse">
<stop stop-color="#6EE8FC"/>
<stop offset="0.57" stop-color="#8CB9FF"/>
<stop offset="1" stop-color="#A6BAFF"/>
</linearGradient>
<linearGradient id="paint2_linear_21_2704" x1="10.5117" y1="102.265" x2="1.92687" y2="117.163" gradientUnits="userSpaceOnUse">
<stop stop-color="#0F95F6"/>
<stop offset="0.154167" stop-color="#00255B"/>
<stop offset="0.888542" stop-color="#0F95F6"/>
</linearGradient>
<linearGradient id="paint3_linear_21_2704" x1="37.6292" y1="46.9184" x2="6.79895" y2="100.292" gradientUnits="userSpaceOnUse">
<stop offset="0.54" stop-color="#0F95F6"/>
<stop offset="0.83" stop-color="#04439F"/>
<stop offset="1" stop-color="#A31FA9"/>
</linearGradient>
<linearGradient id="paint4_linear_21_2704" x1="5.45169" y1="86.6939" x2="54.8929" y2="86.6939" gradientUnits="userSpaceOnUse">
<stop stop-color="#6EE8FC"/>
<stop offset="0.57" stop-color="#42BBFF"/>
<stop offset="1" stop-color="#657EFF"/>
</linearGradient>
<radialGradient id="paint5_radial_21_2704" cx="0" cy="0" r="1" gradientUnits="userSpaceOnUse" gradientTransform="translate(51.7754 18.0466) scale(62.5379 62.5379)">
<stop stop-color="#FFEC3D"/>
<stop offset="0.22" stop-color="#E53DFF"/>
<stop offset="0.26" stop-color="#C735DD"/>
<stop offset="0.34" stop-color="#9928AA"/>
<stop offset="0.42" stop-color="#701D7C"/>
<stop offset="0.51" stop-color="#4D1456"/>
<stop offset="0.59" stop-color="#310D37"/>
<stop offset="0.68" stop-color="#1B071E"/>
<stop offset="0.78" stop-color="#0C030D"/>
<stop offset="0.88" stop-color="#020003"/>
<stop offset="1"/>
</radialGradient>
<radialGradient id="paint6_radial_21_2704" cx="0" cy="0" r="1" gradientUnits="userSpaceOnUse" gradientTransform="translate(30.1096 61.1271) scale(25.8486 25.8486)">
<stop stop-color="#FFEC3D"/>
<stop offset="0.22" stop-color="#E53DFF"/>
<stop offset="0.26" stop-color="#C735DD"/>
<stop offset="0.34" stop-color="#9928AA"/>
<stop offset="0.42" stop-color="#701D7C"/>
<stop offset="0.51" stop-color="#4D1456"/>
<stop offset="0.59" stop-color="#310D37"/>
<stop offset="0.68" stop-color="#1B071E"/>
<stop offset="0.78" stop-color="#0C030D"/>
<stop offset="0.88" stop-color="#020003"/>
<stop offset="1"/>
</radialGradient>
</defs>
</svg>
